<svg xmlns="http://www.w3.org/2000/svg" xmlns:xlink="http://www.w3.org/1999/xlink" width="725.782" height="659.346" viewBox="0 0 725.782 659.346">
  <defs>
    <clipPath id="clip-path">
      <path id="path520" d="M365.207-321.373l-12.39,7.154v-14.307l12.39-7.154Z" transform="translate(-352.816 335.679)"/>
    </clipPath>
    <radialGradient id="radial-gradient" cx="0.651" cy="0.742" r="0.861" gradientTransform="translate(8.573 11.381) scale(1.732 1)" gradientUnits="objectBoundingBox">
      <stop offset="0" stop-color="#2e4b8d"/>
      <stop offset="1" stop-color="#263c7b"/>
    </radialGradient>
    <clipPath id="clip-path-2">
      <path id="path536" d="M335.087-338.761l-12.39-7.154,12.39-7.153,12.39,7.154Z" transform="translate(-322.697 353.068)"/>
    </clipPath>
    <linearGradient id="linear-gradient" x1="-5.357" y1="10.152" x2="-5.355" y2="10.152" gradientUnits="objectBoundingBox">
      <stop offset="0" stop-color="#d9effb"/>
      <stop offset="1" stop-color="#8dbae5"/>
    </linearGradient>
    <clipPath id="clip-path-3">
      <path id="path552" d="M335.087-314.219l-12.39-7.154v-14.306l12.39,7.154Z" transform="translate(-322.697 335.679)"/>
    </clipPath>
    <radialGradient id="radial-gradient-2" cx="0.11" cy="0.2" r="1.555" gradientTransform="translate(7.841 12.467) scale(1.732 1)" gradientUnits="objectBoundingBox">
      <stop offset="0" stop-color="#6f9cd6"/>
      <stop offset="1" stop-color="#4067b1"/>
    </radialGradient>
    <clipPath id="clip-path-4">
      <path id="path782" d="M521.44-137.18a12.717,12.717,0,0,0-5.907,1.549L504.053-129l-35.635-.021v16.33a3.2,3.2,0,0,0,1.892,2.952l46.016,26.568a9.968,9.968,0,0,0,5.113,1.092Z"/>
    </clipPath>
    <radialGradient id="radial-gradient-3" cx="0.604" cy="0.592" r="1.056" gradientTransform="translate(0.346 3.793) scale(1.039 1)" xlink:href="#radial-gradient-2"/>
    <clipPath id="clip-path-5">
      <path id="path802" d="M516.327-99.444l-46.016-26.567c-2.824-1.63-2.469-4.48.791-6.363l44.432-25.652c3.261-1.883,8.195-2.087,11.019-.457l46.016,26.568c2.825,1.631,2.471,4.477-.791,6.361L527.345-99.9c-3.261,1.883-8.195,2.086-11.019.456Z"/>
    </clipPath>
    <linearGradient id="linear-gradient-2" x1="-4.416" y1="2.606" x2="-4.415" y2="2.606" gradientUnits="objectBoundingBox">
      <stop offset="0" stop-color="#d9effb"/>
      <stop offset="0.842" stop-color="#8dbae5"/>
      <stop offset="1" stop-color="#8dbae5"/>
    </linearGradient>
    <clipPath id="clip-path-6">
      <path id="Path_6325" data-name="Path 6325" d="M439.225-383.894l-9.795-5.69c-1.759-1.037-2.847-3.206-2.856-6.312l9.786,5.69c0,3.1,1.1,5.288,2.865,6.312" transform="translate(-426.575 395.897)"/>
    </clipPath>
    <clipPath id="clip-path-7">
      <path id="Path_6359" data-name="Path 6359" d="M533.622-333.947c-10.909,0-21.81-2.407-30.11-7.233-16.608-9.652-16.513-25.288.2-34.927,8.352-4.826,19.278-7.241,30.188-7.241s21.81,2.415,30.105,7.241c16.621,9.648,16.535,25.275-.194,34.927-8.347,4.822-19.274,7.233-30.192,7.233" transform="translate(-491.117 383.348)"/>
    </clipPath>
    <linearGradient id="linear-gradient-3" x1="-18.657" y1="25.146" x2="-18.652" y2="25.146" gradientUnits="objectBoundingBox">
      <stop offset="0" stop-color="#dadcdf"/>
      <stop offset="1" stop-color="#b5bcd5"/>
    </linearGradient>
    <clipPath id="clip-path-8">
      <path id="Path_6285" data-name="Path 6285" d="M626.454-179.409l-258.6-150.3,59.429-34.313L626.441-248.277,827.327-364.244l59.433,34.538-260.306,150.3" transform="translate(-367.849 364.244)"/>
    </clipPath>
    <linearGradient id="linear-gradient-4" x1="-2.297" y1="6.386" x2="-2.296" y2="6.386" gradientUnits="objectBoundingBox">
      <stop offset="0" stop-color="#fcfcfc"/>
      <stop offset="1" stop-color="#e5e5e5"/>
    </linearGradient>
    <clipPath id="clip-path-9">
      <path id="Path_6289" data-name="Path 6289" d="M626.432-120.646,427.269-236.388l-59.416-34.529,260.3-150.293,258.6,150.289-59.429,34.309L626.432-120.646M571.056-369.239,406.427-273.186,609.046-154.411l169.221-95.323L571.056-369.239m239.015,70.722c-10.909,0-21.836,2.415-30.187,7.241-16.716,9.639-16.811,25.275-.2,34.927,8.3,4.826,19.2,7.232,30.11,7.232s21.845-2.411,30.192-7.232c16.729-9.652,16.815-25.279.194-34.927-8.3-4.826-19.192-7.241-30.105-7.241" transform="translate(-367.854 421.211)"/>
    </clipPath>
    <linearGradient id="linear-gradient-5" x1="-2.297" y1="4.541" x2="-2.296" y2="4.541" gradientUnits="objectBoundingBox">
      <stop offset="0" stop-color="#f3f5f8"/>
      <stop offset="1" stop-color="#cad1ed"/>
    </linearGradient>
    <clipPath id="clip-path-10">
      <path id="Path_6291" data-name="Path 6291" d="M582.376-190.344,379.757-309.119l164.629-96.054L751.6-285.667,582.376-190.344" transform="translate(-379.757 405.172)"/>
    </clipPath>
    <linearGradient id="linear-gradient-6" x1="-3.309" y1="6.112" x2="-3.308" y2="6.112" xlink:href="#linear-gradient-3"/>
    <clipPath id="clip-path-12">
      <path id="Path_6384" data-name="Path 6384" d="M626.432-120.646,427.269-236.388l-59.416-34.529,260.3-150.293,258.6,150.289-59.429,34.309L626.432-120.646M571.056-369.239,406.427-273.186,609.046-154.411l169.221-95.323L571.056-369.239m239.015,70.722c-10.909,0-21.836,2.415-30.187,7.241-16.716,9.639-16.811,25.275-.2,34.927,8.3,4.826,19.2,7.232,30.11,7.232s21.845-2.411,30.192-7.232c16.729-9.652,16.815-25.279.194-34.927-8.3-4.826-19.192-7.241-30.105-7.241" transform="translate(-367.854 421.211)" fill="#5f92d3"/>
    </clipPath>
    <clipPath id="clip-path-13">
      <path id="Path_6386" data-name="Path 6386" d="M582.376-190.344,379.757-309.119l164.629-96.054L751.6-285.667,582.376-190.344" transform="translate(-379.757 405.172)" fill="#d9effb"/>
    </clipPath>
    <clipPath id="clip-path-14">
      <path id="Path_6420" data-name="Path 6420" d="M436.986-386.019l-8.061-4.683c-1.447-.853-2.343-2.638-2.35-5.195l8.053,4.683c0,2.553.9,4.352,2.357,5.195" transform="translate(-426.575 395.897)" fill="#8e3e00"/>
    </clipPath>
    <clipPath id="clip-path-15">
      <path id="Path_6432" data-name="Path 6432" d="M447.321-421.7l8.061,4.683c-1.476-.857-3.531-.736-5.778.562l-8.054-4.683c2.247-1.294,4.285-1.419,5.771-.562" transform="translate(-441.55 422.243)" fill="#8e3e00"/>
    </clipPath>
    <clipPath id="clip-path-16">
      <path id="Path_6445" data-name="Path 6445" d="M434.6-396.23l-8.061-4.693c-.021-5.149,3.616-11.414,8.068-13.981l8.068,4.676c-4.452,2.574-8.1,8.84-8.075,14" transform="translate(-426.534 414.904)" fill="#8e3e00"/>
    </clipPath>
  </defs>
  <g id="Group_468" data-name="Group 468" transform="translate(-618.209 -271.283)">
    <g id="Group_129" data-name="Group 129" transform="translate(-140 320)">
      <path id="Path_3734" data-name="Path 3734" d="M715.75-327.3l-1.311-.756-.167-.1-23.5-13.57,23.5,13.57,38.759-22.377-38.759-22.377-38.758,22.377-1.476-.853,40.234-23.23,41.712,24.083L715.75-327.3m-2.953,0-19.38-11.189L712.8-327.3m-77.515,0h0l14-8.081-14,8.081m-1.477-.853-38.76-22.377h0l-1.295-.747-.183-.107L633.8-374.615l.368.215,39.867,23.015-1.476.853L633.8-372.908l-38.758,22.375L633.8-328.156l26.767-15.453L633.8-328.156" transform="translate(488 658.32)" fill="#d6effb"/>
      <path id="Path_3735" data-name="Path 3735" d="M675.515-304.071l16.969-9.8-16.969,9.8m-2.953,0-21.925-12.66,21.925,12.66m1.477-.853-19.38-11.189,19.38,11.189,25.481-14.712-25.481,14.712M715.75-327.3l-1.108-.64-.2-.116,1.311.756m-2.953,0-19.38-11.189-19.378-11.188-24.762,14.294-14,8.081-1.476-.853,26.767-15.453,11.99-6.922,1.477-.853,1.476.853,15.254,8.806,23.5,13.57-1.476.853" transform="translate(488 658.32)" fill="#d6effb"/>
      <path id="Path_3736" data-name="Path 3736" d="M715.751-280.841h0l-1.293-.748-.184-.105-38.759-22.377-1.329-.768-.147-.085,25.481-14.712L712.8-327.3l1.476-.853.167.1.2.116,1.108.64,40.236,23.23-40.235,23.23m-40.236-23.23,38.759,22.377,38.759-22.377-38.76-22.377-21.789,12.58-16.969,9.8M554.81-327.3l23.5-13.57-23.5,13.57m-1.477-.853-38.759-22.377-1.3-.748-.18-.105,40.234-23.23.369.215,39.867,23.015-1.477.853-38.759-22.377-38.758,22.377,38.759,22.377,19.38-11.188-19.378,11.188h0m41.711-22.377-1.108-.639-.185-.108,1.295.747" transform="translate(488 658.32)" fill="#d6effb"/>
      <path id="Path_3737" data-name="Path 3737" d="M595.046-304.072l19.378-11.189-19.378,11.189m-1.477-.853L554.81-327.3l-1.187-.685-.289-.168,19.378-11.188,19.378-11.189,1.477-.853.183.107.185.108,1.108.639L633.8-328.156l-1.476.853-38.759-22.377-15.254,8.806-23.5,13.57,38.759,22.377,16.969-9.8-16.969,9.8" transform="translate(488 658.32)" fill="#d6effb"/>
      <path id="Path_3738" data-name="Path 3738" d="M635.283-280.842h0l19.378-11.188-19.377,11.189m-1.477-.853-38.76-22.377h0l-1.248-.72-.229-.133,16.969-9.8,21.789-12.58,1.477-.853,1.476.853h0l19.378,11.189,19.378,11.189-1.476.853-21.925-12.66-16.833-9.72-19.38,11.189-19.378,11.189L633.805-281.7l13.532-7.813L633.805-281.7m41.71-22.375-1.108-.64-.221-.128,1.329.768" transform="translate(488 658.32)" fill="#d6effb"/>
      <path id="Path_3739" data-name="Path 3739" d="M675.518-257.614h0l26.767-15.453-26.766,15.453m-2.955,0L653.185-268.8l19.378,11.188m1.476-.852-23.5-13.57,23.5,13.57,13.934-8.045-13.934,8.045m41.71-22.375-1.107-.64-.185-.108,1.293.748m-2.953,0-38.759-22.378-19.38,11.188-19.378,11.188-1.476-.852,13.532-7.813,25.225-14.562,1.477-.853.147.085.221.128,1.108.64,38.759,22.377-1.476.852" transform="translate(488 658.32)" fill="#d6effb"/>
      <path id="Path_3740" data-name="Path 3740" d="M715.753-234.382l-1.22-.7-.257-.148L690.1-249.194l24.177,13.96,38.759-22.378-38.76-22.377-11.99,6.922-26.767,15.453-1.476-.852,13.934-8.045L712.8-280.842l1.476-.852.184.105.185.108,1.107.64h0l40.235,23.229-40.234,23.23m-2.955,0-12.754-7.364,12.756,7.364h0M474.34-327.3h0L495.7-339.636,474.34-327.3m-1.477-.853L434.1-350.534h0l-1.344-.776-.133-.077,40.235-23.229,40.235,23.23-1.476.853-38.759-22.378L434.1-350.534l38.759,22.377,14-8.081-14,8.081m41.711-22.375-1.108-.639-.188-.109,1.3.748" transform="translate(488 658.32)" fill="#d6effb"/>
      <path id="Path_3741" data-name="Path 3741" d="M514.575-304.072l15.254-8.808-15.254,8.808m-2.953,0-12.756-7.365,12.756,7.365m1.477-.853-26-15.013,26,15.013,19.378-11.189L513.1-304.926M554.81-327.3l-1.108-.64-.079-.045,1.187.685m-2.953,0L513.1-349.679l-17.4,10.044L474.339-327.3l-1.476-.853,14-8.081,24.761-14.294,1.477-.853.18.105.188.109,1.108.639,38.759,22.377-1.476.853" transform="translate(488 658.32)" fill="#d6effb"/>
      <path id="Path_3742" data-name="Path 3742" d="M554.811-280.844l25.481-14.71-25.481,14.712m-1.477-.853-38.759-22.377-1.276-.737-.2-.116,19.378-11.189,19.38-11.188,1.476-.853h0l.289.168.079.045,1.108.64,38.759,22.377-1.477.853L553.333-326.45l-23.5,13.57-15.254,8.808L553.334-281.7l13.278-7.666L553.334-281.7m41.711-22.377-1.107-.64-.14-.08,1.248.72" transform="translate(488 658.32)" fill="#d6effb"/>
      <path id="Path_3743" data-name="Path 3743" d="M595.048-257.614,614.426-268.8l-19.378,11.188m-1.477-.852-38.76-22.377h0l-1.344-.775-.133-.077,13.278-7.666,25.479-14.71,1.477-.853.229.133.14.08,1.107.64,38.76,22.377-1.477.852L593.569-303.22l-13.277,7.666-25.481,14.71,38.759,22.378,19.38-11.189-19.38,11.189" transform="translate(488 658.32)" fill="#d6effb"/>
      <path id="Path_3744" data-name="Path 3744" d="M635.281-234.383l16.969-9.8-16.968,9.8m-2.955,0L612.95-245.571l19.378,11.188m1.477-.852-19.38-11.189,19.38,11.189,19.38-11.189-19.38,11.189m38.758-22.378L653.185-268.8l-19.38-11.189L614.426-268.8l-19.38,11.188-1.476-.852,19.38-11.189,19.378-11.189,1.477-.852,1.476.852h0l15.253,8.806,23.5,13.57-1.476.852" transform="translate(488 658.32)" fill="#d6effb"/>
      <path id="Path_3745" data-name="Path 3745" d="M675.519-211.153h0l21.359-12.33-21.358,12.33m-1.479-.852-38.759-22.378-1.367-.789-.109-.063,19.38-11.189,19.378-11.189,1.477-.852,1.476.852h0l14.581,8.42,24.177,13.96-1.476.852-12.756-7.364-26-15.014-21.79,12.58-16.969,9.8,38.76,22.377,19.378-11.188-19.378,11.189h0m41.711-22.375-1.108-.639-.112-.065,1.22.7" transform="translate(488 658.32)" fill="#d6effb"/>
      <path id="Path_3746" data-name="Path 3746" d="M715.754-187.922h0l-1.379-.8-.1-.057-12.756-7.364,12.756,7.364,38.759-22.377-38.76-22.377-17.4,10.045-21.359,12.33-1.476-.853,19.378-11.188L712.8-234.382h0l1.476-.852.257.148.112.065,1.108.639,40.235,23.23-40.234,23.23m-2.955,0-19.378-11.189,19.38,11.189h0M393.869-327.3l19.378-11.189L393.869-327.3m-1.477-.853-38.759-22.377-1.379-.8-.1-.057,40.234-23.229.369.213,39.867,23.015-1.476.853-38.76-22.377-38.758,22.377,38.759,22.377,19.38-11.188-19.38,11.188M434.1-350.534,433-351.173l-.236-.137,1.344.776" transform="translate(488 658.32)" fill="#d6effb"/>
      <path id="Path_3747" data-name="Path 3747" d="M434.105-304.074l19.378-11.189-19.378,11.189m-1.477-.853L393.869-327.3l-1.344-.776-.133-.077,19.38-11.188,19.38-11.189,1.476-.853.133.077.236.137,1.107.639,38.76,22.377-1.477.853-38.759-22.377-19.38,11.188L393.869-327.3l38.759,22.377,25.481-14.712-25.481,14.712" transform="translate(488 658.32)" fill="#d6effb"/>
      <path id="Path_3748" data-name="Path 3748" d="M446.55-296.889,434.1-304.074h0l-1.295-.747-.183-.107,25.481-14.712,13.277-7.665,1.477-.853,1.476.853h0l12.754,7.365,26,15.013-1.476.853-12.756-7.365-26-15.013-19.38,11.188-19.378,11.189,12.445,7.185m68.025-7.184-1.108-.64-.168-.1,1.276.737" transform="translate(488 658.32)" fill="#d6effb"/>
      <path id="Path_3749" data-name="Path 3749" d="M535.235-271.245l2.688-1.552-2.688,1.552m19.576-9.6-1.107-.64-.236-.136,1.344.775m-2.953,0L513.1-303.22l-16.624,9.6L495-294.475l16.624-9.6,1.477-.853.2.116.168.1,1.108.64L553.334-281.7l-1.476.852" transform="translate(488 658.32)" fill="#d6effb"/>
      <path id="Path_3750" data-name="Path 3750" d="M592.095-257.614l-38.76-22.377-16.624,9.6-1.476-.852,2.688-1.552,13.936-8.046,1.476-.852.133.077.236.136,1.107.64,38.76,22.377-1.477.852" transform="translate(488 658.32)" fill="#d6effb"/>
      <path id="Path_3751" data-name="Path 3751" d="M615.7-224.785l3.347-1.932-3.347,1.932m19.577-9.6-1.108-.639-.259-.151,1.367.789m-2.953,0L612.95-245.571,593.57-256.76l-16.624,9.6-1.476-.852,16.622-9.6,1.477-.852,1.477.852,19.378,11.189,19.38,11.189-1.477.852" transform="translate(488 658.32)" fill="#d6effb"/>
      <path id="Path_3752" data-name="Path 3752" d="M644.564-193.282l4-2.307-4,2.307m1.3-2.455s0,0,0,0l9.732-5.619-9.733,5.62m26.7-15.417L633.806-233.53l-16.624,9.6-1.477-.852,3.347-1.932,13.277-7.666,1.477-.852.109.063.259.151,1.108.639,38.759,22.378-1.476.852" transform="translate(488 658.32)" fill="#d6effb"/>
      <path id="Path_3753" data-name="Path 3753" d="M675.519-164.693l17.4-10.045-17.4,10.045m-1.477-.853-26.269-15.165h0l26.27,15.166,24.822-14.33-24.822,14.33m41.71-22.375-1.107-.64-.271-.156,1.379.8m-2.953,0-19.38-11.189L674.042-210.3l-25.481,14.712-4,2.307a6.078,6.078,0,0,0,1.3-2.455l9.733-5.62,16.969-9.8,1.477-.853,1.476.853h0l26,15.014,12.756,7.364-1.476.853" transform="translate(488 658.32)" fill="#d6effb"/>
      <path id="Path_3754" data-name="Path 3754" d="M715.755-141.463l-1.477-.853-38.759-22.377-1.187-.685-.289-.168,24.822-14.33,13.934-8.045h0l1.476-.853.1.057.271.156,1.107.64h0l40.235,23.23-40.234,23.229m-40.236-23.23,38.759,22.377,38.759-22.375-38.76-22.377-21.358,12.33-17.4,10.045M313.4-327.305l14-8.081-14,8.081m-2.953,0-40.235-23.23,41.711-24.083,40.236,23.231-1.477.853L311.92-372.912l-38.758,22.377,38.759,22.377,26.767-15.453-26.767,15.453-1.477.853m43.188-23.229-1.108-.639-.271-.157,1.379.8" transform="translate(488 658.32)" fill="#d6effb"/>
      <path id="Path_3755" data-name="Path 3755" d="M353.635-304.075h0l17.4-10.045-17.4,10.045m-1.479-.853L312.29-327.945l-.368-.213,26.767-15.453,11.99-6.922,1.477-.853.1.057.271.157,1.108.639,38.759,22.377-1.476.853-38.759-22.377L327.4-335.386l-14,8.081,38.76,22.377,24.822-14.33-24.822,14.33M393.869-327.3l-1.108-.64-.236-.136,1.344.776" transform="translate(488 658.32)" fill="#d6effb"/>
      <path id="Path_3756" data-name="Path 3756" d="M393.87-280.844l17.173-9.916-17.173,9.916m-2.953,0-19.38-11.189,19.38,11.19h0m1.476-.852-19.38-11.189,19.38,11.189,19.38-11.189L392.394-281.7h0M434.1-304.074l-1.108-.64-.185-.107,1.295.747m-2.953,0-38.76-22.377-21.358,12.33-17.4,10.045-1.476-.853,24.822-14.33,13.936-8.045,1.476-.853.133.077.236.136,1.108.64,38.759,22.377-1.477.853" transform="translate(488 658.32)" fill="#d6effb"/>
      <path id="Path_3757" data-name="Path 3757" d="M406.309-273.663l-12.44-7.181h0l-1.276-.737-.2-.116,19.378-11.189,19.378-11.188,1.477-.853.183.107.185.107,1.108.64,12.446,7.185-1.477.852-12.445-7.185-21.585,12.462-17.173,9.916,12.438,7.181m228.976,132.2,15.254-8.808-15.254,8.808m-1.477-.853-7.177-4.144,7.178,4.144,19.378-11.189-19.378,11.189m41.711-22.377-1.108-.64-.079-.045,1.187.685m-2.953,0-24.647-14.23c.008-.129.013-.26.013-.391a6.159,6.159,0,0,0-.159-1.4l26.269,15.165-1.476.853" transform="translate(488 658.32)" fill="#d6effb"/>
      <path id="Path_3758" data-name="Path 3758" d="M675.52-118.235,697.105-130.7,675.52-118.233m-1.477-.854-38.759-22.377-1.247-.72-.229-.133,19.378-11.189,19.38-11.188,1.477-.853.289.168.079.045,1.108.64,38.759,22.377-1.476.853-38.759-22.378-23.5,13.57-15.254,8.808,38.76,22.377,13.277-7.666-13.277,7.666" transform="translate(488 658.32)" fill="#d6effb"/>
      <path id="Path_3759" data-name="Path 3759" d="M715.757-95v0h0l-1.344-.774-.133-.078L675.52-118.233h0l-1.344-.775-.132-.078,13.277-7.666,25.481-14.71,1.476-.853,1.477.853,40.235,23.23L715.757-95M675.52-118.235l38.759,22.378,38.759-22.377-38.76-22.378L697.105-130.7l-21.585,12.461M313.4-280.845l21.586-12.462L313.4-280.845m-2.955,0-40.235-23.229,40.234-23.23,1.477-.853.368.213,39.867,23.017-1.476.853-38.759-22.378-38.758,22.378L311.923-281.7l13.277-7.665L311.923-281.7l-1.477.852" transform="translate(488 658.32)" fill="#d6effb"/>
      <path id="Path_3760" data-name="Path 3760" d="M353.635-257.616l21.359-12.33-21.359,12.33m-1.477-.852-39.867-23.017-.368-.213,13.277-7.665,25.481-14.712,1.477-.853,1.476.853h0l19.378,11.189,19.38,11.189-1.476.852-19.38-11.189-19.38-11.189-17.173,9.916L313.4-280.845l38.76,22.377,14-8.081-14,8.081m41.71-22.375-1.107-.64-.168-.1,1.276.737" transform="translate(488 658.32)" fill="#d6effb"/>
      <path id="Path_3761" data-name="Path 3761" d="M353.635-257.616l-1.476-.852,14-8.081,24.761-14.3,1.476-.852h0l.2.116.168.1,1.107.64,12.44,7.181-1.477.852-12.438-7.181-17.4,10.045-21.359,12.33M595.049-118.235l25.481-14.71L595.05-118.233m-2.955,0-7.185-4.148h0l7.185,4.148h0m1.477-.852-7.185-4.148,7.185,4.148,13.277-7.666-13.277,7.666m41.711-22.377-1.108-.64-.139-.08,1.247.72m-2.953,0-7.178-4.145,1.477-.852,7.177,4.144-1.476.853" transform="translate(488 658.32)" fill="#d6effb"/>
      <path id="Path_3762" data-name="Path 3762" d="M635.285-95l19.38-11.188L635.285-95m-1.476-.852-38.76-22.377h0l-1.375-.793-.1-.059,13.277-7.666,25.481-14.71,1.477-.853.229.133.139.08,1.108.64,38.759,22.377-1.476.852-38.759-22.377-13.278,7.667-25.481,14.71,38.76,22.378,23.5-13.57-23.5,13.57m41.711-22.377-1.108-.64-.236-.136,1.344.775" transform="translate(488 658.32)" fill="#d6effb"/>
      <path id="Path_3763" data-name="Path 3763" d="M674.046-70.921h0m1.476-.853,21.789-12.58-21.789,12.58m-1.477-.852L635.285-95l-1.343-.774-.133-.078,23.5-13.57,15.254-8.808,1.477-.852.132.078.236.136,1.108.64L714.28-95.856,712.8-95l-38.759-22.377-19.38,11.189L635.286-95l38.76,22.378,19.378-11.189-19.38,11.189M715.755-95l-1.107-.639-.236-.136,1.344.774" transform="translate(488 658.32)" fill="#d6effb"/>
      <path id="Path_3764" data-name="Path 3764" d="M714.281-47.691l-.368-.215L674.046-70.921l1.476-.853-1.477-.852,19.38-11.189L712.8-95l1.476-.852.133.078.236.136,1.107.639v0l40.235,23.229L714.281-47.691M675.522-71.774,714.281-49.4,753.04-71.774,714.28-94.151l-16.969,9.8-21.789,12.58M313.4-234.386l19.38-11.188L313.4-234.386m-2.953,0-40.236-23.23,40.234-23.23,1.477-.852.368.213,39.867,23.017-1.476.852-38.759-22.377-38.758,22.377,38.759,22.378,23.5-13.57-23.5,13.57-1.476.852" transform="translate(488 658.32)" fill="#d6effb"/>
    </g>
    <rect id="Rectangle_59" data-name="Rectangle 59" width="407" height="221" transform="translate(909 347)" fill="#fff"/>
    <g id="Group_128" data-name="Group 128" transform="translate(100 180)">
      <path id="Path_3734-2" data-name="Path 3734" d="M715.75-327.3l-1.311-.756-.167-.1-23.5-13.57,23.5,13.57,38.759-22.377-38.759-22.377-38.758,22.377-1.476-.853,40.234-23.23,41.712,24.083L715.75-327.3m-2.953,0-19.38-11.189L712.8-327.3m-77.515,0h0l14-8.081-14,8.081m-1.477-.853-38.76-22.377h0l-1.295-.747-.183-.107L633.8-374.615l.368.215,39.867,23.015-1.476.853L633.8-372.908l-38.758,22.375L633.8-328.156l26.767-15.453L633.8-328.156" transform="translate(488 658.32)" fill="#d6effb"/>
      <path id="Path_3735-2" data-name="Path 3735" d="M675.515-304.071l16.969-9.8-16.969,9.8m-2.953,0-21.925-12.66,21.925,12.66m1.477-.853-19.38-11.189,19.38,11.189,25.481-14.712-25.481,14.712M715.75-327.3l-1.108-.64-.2-.116,1.311.756m-2.953,0-19.38-11.189-19.378-11.188-24.762,14.294-14,8.081-1.476-.853,26.767-15.453,11.99-6.922,1.477-.853,1.476.853,15.254,8.806,23.5,13.57-1.476.853" transform="translate(488 658.32)" fill="#d6effb"/>
      <path id="Path_3736-2" data-name="Path 3736" d="M715.751-280.841h0l-1.293-.748-.184-.105-38.759-22.377-1.329-.768-.147-.085,25.481-14.712L712.8-327.3l1.476-.853.167.1.2.116,1.108.64,40.236,23.23-40.235,23.23m-40.236-23.23,38.759,22.377,38.759-22.377-38.76-22.377-21.789,12.58-16.969,9.8M554.81-327.3l23.5-13.57-23.5,13.57m-1.477-.853-38.759-22.377-1.3-.748-.18-.105,40.234-23.23.369.215,39.867,23.015-1.477.853-38.759-22.377-38.758,22.377,38.759,22.377,19.38-11.188-19.378,11.188h0m41.711-22.377-1.108-.639-.185-.108,1.295.747" transform="translate(488 658.32)" fill="#d6effb"/>
      <path id="Path_3737-2" data-name="Path 3737" d="M595.046-304.072l19.378-11.189-19.378,11.189m-1.477-.853L554.81-327.3l-1.187-.685-.289-.168,19.378-11.188,19.378-11.189,1.477-.853.183.107.185.108,1.108.639L633.8-328.156l-1.476.853-38.759-22.377-15.254,8.806-23.5,13.57,38.759,22.377,16.969-9.8-16.969,9.8" transform="translate(488 658.32)" fill="#d6effb"/>
      <path id="Path_3738-2" data-name="Path 3738" d="M635.283-280.842h0l19.378-11.188-19.377,11.189m-1.477-.853-38.76-22.377h0l-1.248-.72-.229-.133,16.969-9.8,21.789-12.58,1.477-.853,1.476.853h0l19.378,11.189,19.378,11.189-1.476.853-21.925-12.66-16.833-9.72-19.38,11.189-19.378,11.189L633.805-281.7l13.532-7.813L633.805-281.7m41.71-22.375-1.108-.64-.221-.128,1.329.768" transform="translate(488 658.32)" fill="#d6effb"/>
      <path id="Path_3739-2" data-name="Path 3739" d="M675.518-257.614h0l26.767-15.453-26.766,15.453m-2.955,0L653.185-268.8l19.378,11.188m1.476-.852-23.5-13.57,23.5,13.57,13.934-8.045-13.934,8.045m41.71-22.375-1.107-.64-.185-.108,1.293.748m-2.953,0-38.759-22.378-19.38,11.188-19.378,11.188-1.476-.852,13.532-7.813,25.225-14.562,1.477-.853.147.085.221.128,1.108.64,38.759,22.377-1.476.852" transform="translate(488 658.32)" fill="#d6effb"/>
      <path id="Path_3740-2" data-name="Path 3740" d="M715.753-234.382l-1.22-.7-.257-.148L690.1-249.194l24.177,13.96,38.759-22.378-38.76-22.377-11.99,6.922-26.767,15.453-1.476-.852,13.934-8.045L712.8-280.842l1.476-.852.184.105.185.108,1.107.64h0l40.235,23.229-40.234,23.23m-2.955,0-12.754-7.364,12.756,7.364h0M474.34-327.3h0L495.7-339.636,474.34-327.3m-1.477-.853L434.1-350.534h0l-1.344-.776-.133-.077,40.235-23.229,40.235,23.23-1.476.853-38.759-22.378L434.1-350.534l38.759,22.377,14-8.081-14,8.081m41.711-22.375-1.108-.639-.188-.109,1.3.748" transform="translate(488 658.32)" fill="#d6effb"/>
      <path id="Path_3741-2" data-name="Path 3741" d="M514.575-304.072l15.254-8.808-15.254,8.808m-2.953,0-12.756-7.365,12.756,7.365m1.477-.853-26-15.013,26,15.013,19.378-11.189L513.1-304.926M554.81-327.3l-1.108-.64-.079-.045,1.187.685m-2.953,0L513.1-349.679l-17.4,10.044L474.339-327.3l-1.476-.853,14-8.081,24.761-14.294,1.477-.853.18.105.188.109,1.108.639,38.759,22.377-1.476.853" transform="translate(488 658.32)" fill="#d6effb"/>
      <path id="Path_3742-2" data-name="Path 3742" d="M554.811-280.844l25.481-14.71-25.481,14.712m-1.477-.853-38.759-22.377-1.276-.737-.2-.116,19.378-11.189,19.38-11.188,1.476-.853h0l.289.168.079.045,1.108.64,38.759,22.377-1.477.853L553.333-326.45l-23.5,13.57-15.254,8.808L553.334-281.7l13.278-7.666L553.334-281.7m41.711-22.377-1.107-.64-.14-.08,1.248.72" transform="translate(488 658.32)" fill="#d6effb"/>
      <path id="Path_3743-2" data-name="Path 3743" d="M595.048-257.614,614.426-268.8l-19.378,11.188m-1.477-.852-38.76-22.377h0l-1.344-.775-.133-.077,13.278-7.666,25.479-14.71,1.477-.853.229.133.14.08,1.107.64,38.76,22.377-1.477.852L593.569-303.22l-13.277,7.666-25.481,14.71,38.759,22.378,19.38-11.189-19.38,11.189" transform="translate(488 658.32)" fill="#d6effb"/>
      <path id="Path_3744-2" data-name="Path 3744" d="M635.281-234.383l16.969-9.8-16.968,9.8m-2.955,0L612.95-245.571l19.378,11.188m1.477-.852-19.38-11.189,19.38,11.189,19.38-11.189-19.38,11.189m38.758-22.378L653.185-268.8l-19.38-11.189L614.426-268.8l-19.38,11.188-1.476-.852,19.38-11.189,19.378-11.189,1.477-.852,1.476.852h0l15.253,8.806,23.5,13.57-1.476.852" transform="translate(488 658.32)" fill="#d6effb"/>
      <path id="Path_3745-2" data-name="Path 3745" d="M675.519-211.153h0l21.359-12.33-21.358,12.33m-1.479-.852-38.759-22.378-1.367-.789-.109-.063,19.38-11.189,19.378-11.189,1.477-.852,1.476.852h0l14.581,8.42,24.177,13.96-1.476.852-12.756-7.364-26-15.014-21.79,12.58-16.969,9.8,38.76,22.377,19.378-11.188-19.378,11.189h0m41.711-22.375-1.108-.639-.112-.065,1.22.7" transform="translate(488 658.32)" fill="#d6effb"/>
      <path id="Path_3746-2" data-name="Path 3746" d="M715.754-187.922h0l-1.379-.8-.1-.057-12.756-7.364,12.756,7.364,38.759-22.377-38.76-22.377-17.4,10.045-21.359,12.33-1.476-.853,19.378-11.188L712.8-234.382h0l1.476-.852.257.148.112.065,1.108.639,40.235,23.23-40.234,23.23m-2.955,0-19.378-11.189,19.38,11.189h0M393.869-327.3l19.378-11.189L393.869-327.3m-1.477-.853-38.759-22.377-1.379-.8-.1-.057,40.234-23.229.369.213,39.867,23.015-1.476.853-38.76-22.377-38.758,22.377,38.759,22.377,19.38-11.188-19.38,11.188M434.1-350.534,433-351.173l-.236-.137,1.344.776" transform="translate(488 658.32)" fill="#d6effb"/>
      <path id="Path_3747-2" data-name="Path 3747" d="M434.105-304.074l19.378-11.189-19.378,11.189m-1.477-.853L393.869-327.3l-1.344-.776-.133-.077,19.38-11.188,19.38-11.189,1.476-.853.133.077.236.137,1.107.639,38.76,22.377-1.477.853-38.759-22.377-19.38,11.188L393.869-327.3l38.759,22.377,25.481-14.712-25.481,14.712" transform="translate(488 658.32)" fill="#d6effb"/>
      <path id="Path_3748-2" data-name="Path 3748" d="M446.55-296.889,434.1-304.074h0l-1.295-.747-.183-.107,25.481-14.712,13.277-7.665,1.477-.853,1.476.853h0l12.754,7.365,26,15.013-1.476.853-12.756-7.365-26-15.013-19.38,11.188-19.378,11.189,12.445,7.185m68.025-7.184-1.108-.64-.168-.1,1.276.737" transform="translate(488 658.32)" fill="#d6effb"/>
      <path id="Path_3749-2" data-name="Path 3749" d="M535.235-271.245l2.688-1.552-2.688,1.552m19.576-9.6-1.107-.64-.236-.136,1.344.775m-2.953,0L513.1-303.22l-16.624,9.6L495-294.475l16.624-9.6,1.477-.853.2.116.168.1,1.108.64L553.334-281.7l-1.476.852" transform="translate(488 658.32)" fill="#d6effb"/>
      <path id="Path_3750-2" data-name="Path 3750" d="M592.095-257.614l-38.76-22.377-16.624,9.6-1.476-.852,2.688-1.552,13.936-8.046,1.476-.852.133.077.236.136,1.107.64,38.76,22.377-1.477.852" transform="translate(488 658.32)" fill="#d6effb"/>
      <path id="Path_3751-2" data-name="Path 3751" d="M615.7-224.785l3.347-1.932-3.347,1.932m19.577-9.6-1.108-.639-.259-.151,1.367.789m-2.953,0L612.95-245.571,593.57-256.76l-16.624,9.6-1.476-.852,16.622-9.6,1.477-.852,1.477.852,19.378,11.189,19.38,11.189-1.477.852" transform="translate(488 658.32)" fill="#d6effb"/>
      <path id="Path_3752-2" data-name="Path 3752" d="M644.564-193.282l4-2.307-4,2.307m1.3-2.455s0,0,0,0l9.732-5.619-9.733,5.62m26.7-15.417L633.806-233.53l-16.624,9.6-1.477-.852,3.347-1.932,13.277-7.666,1.477-.852.109.063.259.151,1.108.639,38.759,22.378-1.476.852" transform="translate(488 658.32)" fill="#d6effb"/>
      <path id="Path_3753-2" data-name="Path 3753" d="M675.519-164.693l17.4-10.045-17.4,10.045m-1.477-.853-26.269-15.165h0l26.27,15.166,24.822-14.33-24.822,14.33m41.71-22.375-1.107-.64-.271-.156,1.379.8m-2.953,0-19.38-11.189L674.042-210.3l-25.481,14.712-4,2.307a6.078,6.078,0,0,0,1.3-2.455l9.733-5.62,16.969-9.8,1.477-.853,1.476.853h0l26,15.014,12.756,7.364-1.476.853" transform="translate(488 658.32)" fill="#d6effb"/>
      <path id="Path_3754-2" data-name="Path 3754" d="M715.755-141.463l-1.477-.853-38.759-22.377-1.187-.685-.289-.168,24.822-14.33,13.934-8.045h0l1.476-.853.1.057.271.156,1.107.64h0l40.235,23.23-40.234,23.229m-40.236-23.23,38.759,22.377,38.759-22.375-38.76-22.377-21.358,12.33-17.4,10.045M313.4-327.305l14-8.081-14,8.081m-2.953,0-40.235-23.23,41.711-24.083,40.236,23.231-1.477.853L311.92-372.912l-38.758,22.377,38.759,22.377,26.767-15.453-26.767,15.453-1.477.853m43.188-23.229-1.108-.639-.271-.157,1.379.8" transform="translate(488 658.32)" fill="#d6effb"/>
      <path id="Path_3755-2" data-name="Path 3755" d="M353.635-304.075h0l17.4-10.045-17.4,10.045m-1.479-.853L312.29-327.945l-.368-.213,26.767-15.453,11.99-6.922,1.477-.853.1.057.271.157,1.108.639,38.759,22.377-1.476.853-38.759-22.377L327.4-335.386l-14,8.081,38.76,22.377,24.822-14.33-24.822,14.33M393.869-327.3l-1.108-.64-.236-.136,1.344.776" transform="translate(488 658.32)" fill="#d6effb"/>
      <path id="Path_3756-2" data-name="Path 3756" d="M393.87-280.844l17.173-9.916-17.173,9.916m-2.953,0-19.38-11.189,19.38,11.19h0m1.476-.852-19.38-11.189,19.38,11.189,19.38-11.189L392.394-281.7h0M434.1-304.074l-1.108-.64-.185-.107,1.295.747m-2.953,0-38.76-22.377-21.358,12.33-17.4,10.045-1.476-.853,24.822-14.33,13.936-8.045,1.476-.853.133.077.236.136,1.108.64,38.759,22.377-1.477.853" transform="translate(488 658.32)" fill="#d6effb"/>
      <path id="Path_3757-2" data-name="Path 3757" d="M406.309-273.663l-12.44-7.181h0l-1.276-.737-.2-.116,19.378-11.189,19.378-11.188,1.477-.853.183.107.185.107,1.108.64,12.446,7.185-1.477.852-12.445-7.185-21.585,12.462-17.173,9.916,12.438,7.181m228.976,132.2,15.254-8.808-15.254,8.808m-1.477-.853-7.177-4.144,7.178,4.144,19.378-11.189-19.378,11.189m41.711-22.377-1.108-.64-.079-.045,1.187.685m-2.953,0-24.647-14.23c.008-.129.013-.26.013-.391a6.159,6.159,0,0,0-.159-1.4l26.269,15.165-1.476.853" transform="translate(488 658.32)" fill="#d6effb"/>
      <path id="Path_3758-2" data-name="Path 3758" d="M675.52-118.235,697.105-130.7,675.52-118.233m-1.477-.854-38.759-22.377-1.247-.72-.229-.133,19.378-11.189,19.38-11.188,1.477-.853.289.168.079.045,1.108.64,38.759,22.377-1.476.853-38.759-22.378-23.5,13.57-15.254,8.808,38.76,22.377,13.277-7.666-13.277,7.666" transform="translate(488 658.32)" fill="#d6effb"/>
      <path id="Path_3759-2" data-name="Path 3759" d="M715.757-95v0h0l-1.344-.774-.133-.078L675.52-118.233h0l-1.344-.775-.132-.078,13.277-7.666,25.481-14.71,1.476-.853,1.477.853,40.235,23.23L715.757-95M675.52-118.235l38.759,22.378,38.759-22.377-38.76-22.378L697.105-130.7l-21.585,12.461M313.4-280.845l21.586-12.462L313.4-280.845m-2.955,0-40.235-23.229,40.234-23.23,1.477-.853.368.213,39.867,23.017-1.476.853-38.759-22.378-38.758,22.378L311.923-281.7l13.277-7.665L311.923-281.7l-1.477.852" transform="translate(488 658.32)" fill="#d6effb"/>
      <path id="Path_3760-2" data-name="Path 3760" d="M353.635-257.616l21.359-12.33-21.359,12.33m-1.477-.852-39.867-23.017-.368-.213,13.277-7.665,25.481-14.712,1.477-.853,1.476.853h0l19.378,11.189,19.38,11.189-1.476.852-19.38-11.189-19.38-11.189-17.173,9.916L313.4-280.845l38.76,22.377,14-8.081-14,8.081m41.71-22.375-1.107-.64-.168-.1,1.276.737" transform="translate(488 658.32)" fill="#d6effb"/>
      <path id="Path_3761-2" data-name="Path 3761" d="M353.635-257.616l-1.476-.852,14-8.081,24.761-14.3,1.476-.852h0l.2.116.168.1,1.107.64,12.44,7.181-1.477.852-12.438-7.181-17.4,10.045-21.359,12.33M595.049-118.235l25.481-14.71L595.05-118.233m-2.955,0-7.185-4.148h0l7.185,4.148h0m1.477-.852-7.185-4.148,7.185,4.148,13.277-7.666-13.277,7.666m41.711-22.377-1.108-.64-.139-.08,1.247.72m-2.953,0-7.178-4.145,1.477-.852,7.177,4.144-1.476.853" transform="translate(488 658.32)" fill="#d6effb"/>
      <path id="Path_3762-2" data-name="Path 3762" d="M635.285-95l19.38-11.188L635.285-95m-1.476-.852-38.76-22.377h0l-1.375-.793-.1-.059,13.277-7.666,25.481-14.71,1.477-.853.229.133.139.08,1.108.64,38.759,22.377-1.476.852-38.759-22.377-13.278,7.667-25.481,14.71,38.76,22.378,23.5-13.57-23.5,13.57m41.711-22.377-1.108-.64-.236-.136,1.344.775" transform="translate(488 658.32)" fill="#d6effb"/>
      <path id="Path_3763-2" data-name="Path 3763" d="M674.046-70.921h0m1.476-.853,21.789-12.58-21.789,12.58m-1.477-.852L635.285-95l-1.343-.774-.133-.078,23.5-13.57,15.254-8.808,1.477-.852.132.078.236.136,1.108.64L714.28-95.856,712.8-95l-38.759-22.377-19.38,11.189L635.286-95l38.76,22.378,19.378-11.189-19.38,11.189M715.755-95l-1.107-.639-.236-.136,1.344.774" transform="translate(488 658.32)" fill="#d6effb"/>
      <path id="Path_3764-2" data-name="Path 3764" d="M714.281-47.691l-.368-.215L674.046-70.921l1.476-.853-1.477-.852,19.38-11.189L712.8-95l1.476-.852.133.078.236.136,1.107.639v0l40.235,23.229L714.281-47.691M675.522-71.774,714.281-49.4,753.04-71.774,714.28-94.151l-16.969,9.8-21.789,12.58M313.4-234.386l19.38-11.188L313.4-234.386m-2.953,0-40.236-23.23,40.234-23.23,1.477-.852.368.213,39.867,23.017-1.476.852-38.759-22.377-38.758,22.377,38.759,22.378,23.5-13.57-23.5,13.57-1.476.852" transform="translate(488 658.32)" fill="#d6effb"/>
    </g>
    <g id="g516" transform="translate(891.305 505.51)">
      <g id="g518" transform="translate(0 0)" clip-path="url(#clip-path)">
        <path id="path530" d="M365.207-321.373l-12.39,7.154v-14.307l12.39-7.154v14.306" transform="translate(-352.816 335.679)" fill="url(#radial-gradient)"/>
      </g>
    </g>
    <g id="g532" transform="translate(878.914 498.356)">
      <g id="g534" transform="translate(0 0)" clip-path="url(#clip-path-2)">
        <path id="path546" d="M335.087-338.761l-12.39-7.154,12.39-7.153,12.39,7.154-12.39,7.153" transform="translate(-322.697 353.068)" fill="url(#linear-gradient)"/>
      </g>
    </g>
    <g id="g548" transform="translate(878.914 505.51)">
      <g id="g550" transform="translate(0 0)" clip-path="url(#clip-path-3)">
        <path id="path562" d="M335.087-314.219l-12.39-7.154v-14.306l12.39,7.154v14.307" transform="translate(-322.697 335.679)" fill="url(#radial-gradient-2)"/>
      </g>
    </g>
    <path id="path564" d="M337.01-310.888l-3.465-2v-4l3.465,2v4" transform="translate(549.832 830.129)" fill="#fff"/>
    <path id="path100" d="M563.159-130.04h0l19.38-11.188-19.38,11.188m-1.477-.852-21.287-12.291h0l21.287,12.291,19.38-11.189-19.379,11.189h0m41.712-22.377-1.107-.64-.236-.136,1.344.775m-2.953,0L579.1-165.589l1.475-.853,21.339,12.32-1.476.852" transform="translate(355.938 805.584)" fill="#d6effb"/>
    <path id="path102" d="M601.919-105.956h0m1.477-.853h0L622.774-118,603.4-106.809m-1.477-.852-38.76-22.379h0l-1.344-.774-.132-.078,19.379-11.189,19.38-11.189,1.476-.852h0l.133.077.236.136,1.107.64,38.761,22.377-1.477.852-38.76-22.377-19.379,11.189-19.38,11.188,38.76,22.379,23.505-13.571-23.505,13.571" transform="translate(355.938 805.584)" fill="#d6effb"/>
    <path id="path116" d="M521.447-105.956h0m1.476-.853h0l21.791-12.58-21.791,12.58m-2.953,0-26-15.014,26,15.014m1.477-.852-14.583-8.42,14.583,8.42,19.379-11.189-19.379,11.189m41.712-22.379-1.108-.639-.236-.136,1.344.774m-2.953,0L538.92-142.329l1.475-.853,21.287,12.291-1.476.852m-77.518,0-1.477-.852,19.283-11.132,1.476.852-1.883,1.087-17.4,10.045" transform="translate(355.938 805.584)" fill="#d6effb"/>
    <path id="path118" d="M561.683-82.725l-.368-.215-39.868-23.016h0l1.476-.852-1.476-.852,19.379-11.189,19.38-11.19,1.476-.852h0l.132.078.236.136,1.108.639,38.76,22.379,1.477.852-1.477.852h0L561.683-82.725m-38.76-24.084,38.76,22.378,38.76-22.378-38.761-22.377-16.968,9.8-21.791,12.58" transform="translate(355.938 805.584)" fill="#d6effb"/>
    <path id="path128" d="M481.211-82.726l-.368-.214-39.869-23.017h0l1.477-.854-1.477-.852,19.38-11.19,19.379-11.189,1.477-.852,1.477.852h0l24.177,13.96,14.583,8.42,1.476.852-1.476.852h0l-40.235,23.23m-38.76-24.084,38.76,22.378,38.759-22.376-26-15.014-12.756-7.365-23.5,13.571-15.255,8.806" transform="translate(355.938 805.584)" fill="#d6effb"/>
    <path id="path140" d="M599.188-144.594a8.6,8.6,0,0,1-3.892,6.743c-2.149,1.241-3.892.235-3.892-2.248a8.6,8.6,0,0,1,3.892-6.74c2.151-1.241,3.892-.236,3.892,2.245" transform="translate(355.938 805.584)" fill="#fff"/>
    <path id="path772" d="M516.327-52.557,470.311-79.125c-2.824-1.631-2.469-4.48.791-6.363l44.432-25.652c3.261-1.883,8.195-2.086,11.019-.457l46.016,26.568c2.825,1.63,2.471,4.479-.791,6.361L527.345-53.014c-3.261,1.883-8.195,2.086-11.019.457" transform="translate(355.938 805.584)" fill="#88c8ed"/>
    <path id="path774" d="M517.632-69.36c2.032,1.17,5.956.957,8.405-.457l44.432-25.654c1.117-.644,1.385-1.228,1.392-1.337a1.707,1.707,0,0,0-.6-.5l-46.019-26.568c-2.027-1.17-5.953-.957-8.4.457L472.408-97.764c-1.117.645-1.384,1.228-1.391,1.337a1.651,1.651,0,0,0,.6.5L517.633-69.36Zm3.5,5.989a12.372,12.372,0,0,1-6.116-1.463h0L469-91.4a5.858,5.858,0,0,1-3.213-5.027c0-2.256,1.459-4.393,4-5.861l44.433-25.652c4.111-2.376,9.969-2.573,13.631-.458l46.019,26.568a5.855,5.855,0,0,1,3.212,5.024c0,2.256-1.46,4.393-4.005,5.863L528.652-65.291a15.31,15.31,0,0,1-7.516,1.92" transform="translate(355.938 805.584)" fill="#fff"/>
    <path id="path776" d="M574.46-113.086h0v-15.876l-35.6-.021-12.305-7.1c-2.824-1.631-7.757-1.425-11.019.457L504.053-129l-35.635-.021v16.33a3.2,3.2,0,0,0,1.892,2.952l46.016,26.568c2.824,1.63,7.757,1.426,11.019-.457l44.432-25.652c1.881-1.087,2.789-2.493,2.683-3.8" transform="translate(355.938 805.584)" fill="#4067b1"/>
    <g id="g778" transform="translate(355.938 805.584)">
      <g id="g780" clip-path="url(#clip-path-4)">
        <path id="path792" d="M521.44-137.18a12.717,12.717,0,0,0-5.907,1.549L504.053-129l-35.635-.021v16.33a3.2,3.2,0,0,0,1.892,2.952l46.016,26.568a9.968,9.968,0,0,0,5.113,1.092v-55.1" fill="url(#radial-gradient-3)"/>
      </g>
    </g>
    <path id="path796" d="M517.036-82.826a12.55,12.55,0,0,0,8.808-.1v-18.54h-8.808v18.642" transform="translate(355.938 805.584)" fill="#5f92d3"/>
    <g id="g798" transform="translate(355.938 805.584)">
      <g id="g800" clip-path="url(#clip-path-5)">
        <path id="path814" d="M516.327-99.444l-46.016-26.567c-2.824-1.63-2.469-4.48.791-6.363l44.432-25.652c3.261-1.883,8.195-2.087,11.019-.457l46.016,26.568c2.825,1.631,2.471,4.477-.791,6.361L527.345-99.9c-3.261,1.883-8.195,2.086-11.019.456" fill="url(#linear-gradient-2)"/>
      </g>
    </g>
    <g id="Group_425" data-name="Group 425" transform="translate(-19177.404 12986.283)">
      <path id="Path_6281" data-name="Path 6281" d="M604.207-367.592c1.071.644,1.97.143,1.992-1.1a4.365,4.365,0,0,0-1.94-3.431c-1.089-.639-1.966-.138-1.992,1.115A4.326,4.326,0,0,0,604.207-367.592Zm-5.029-2.96c1.089.635,1.975.138,2-1.1a4.34,4.34,0,0,0-1.94-3.431c-1.084-.644-1.97-.138-1.992,1.115A4.388,4.388,0,0,0,599.178-370.552Zm-5.025-2.96c1.084.639,1.983.143,1.992-1.1a4.338,4.338,0,0,0-1.936-3.435c-1.08-.635-1.974-.134-1.987,1.123A4.361,4.361,0,0,0,594.153-373.511Zm13.1-.782a8.093,8.093,0,0,1,3.59,6.368l-.091,8.123-91.508-53.924.1-8.114c.026-2.333,1.676-3.258,3.7-2.07l84.211,49.617" transform="translate(19901.25 -12216.285)" fill="#bbd2ff"/>
      <path id="Path_6282" data-name="Path 6282" d="M611.343-375.324l-.091,8.123-91.508-53.924-.721,61.606a8.09,8.09,0,0,0,3.6,6.369l84.211,49.617c2,1.184,3.66.255,3.7-2.065l.808-69.724" transform="translate(19900.752 -12208.887)" fill="#d7e9ff"/>
      <path id="Path_6283" data-name="Path 6283" d="M543.842-371.893l-.009,3.055,54.123,31.259.009-3.068-54.123-31.246m.017-6.93,0,3.085,54.127,31.25.009-3.089-54.132-31.246m.026-6.9-.009,3.068,54.119,31.242.013-3.068-54.123-31.242m.043-16.133-.017,3.068,54.132,31.246,0-3.068-54.119-31.246m-.026,6.921v3.076l54.127,31.246v-3.068L543.9-394.935m-22.419-1.46-.035,13.826,18.725,10.819.039-13.83L521.483-396.4m.047-18.423L521.5-401l18.716,10.819.043-13.826-18.734-10.81" transform="translate(19906.188 -12194.754)" fill="#91a2c5"/>
      <path id="Path_6287" data-name="Path 6287" d="M447.65-224.556l.06,27.656L708-347.176l-.03-27.656L447.65-224.556" transform="translate(19740.846 -12105.167)" fill="#9daae2"/>
      <path id="Path_6292" data-name="Path 6292" d="M591.407-377.373l-.073,26.441L442.285-264.318l.065-26.437,149.057-86.618" transform="translate(19728.826 -12110.861)" fill="#9fbfff"/>
      <path id="Path_6293" data-name="Path 6293" d="M614.908-363.778,465.85-277.161,431.8-296.824l149.053-86.618,34.059,19.663" transform="translate(19705.326 -12124.456)" fill="#fff"/>
      <path id="Path_6294" data-name="Path 6294" d="M458.618-364.722s6.649-1,10.335-4.886c0,0,25.4,17.632,27.5,23.309,2.013,5.414,4.93,31.833,4.748,43.192-.047,3.629-13.679,6.282-14.487,1.08-1.452-9.367-2.588-35.666-2.588-35.666s-30.278-10.814-25.513-27.029" transform="translate(19764.279 -12093.463)" fill="#223a7a"/>
      <path id="Path_6295" data-name="Path 6295" d="M451.869-368.632s-3.629,12.75,5.656,19.892,25.72,17.066,25.72,17.066a205.365,205.365,0,0,0-.579,23.482c.294,13.467.039,13.1.579,17.813.393,3.413,13.623,4.528,14.258-1.46,1.3-12.236.981-43.3-1.612-48.921-2.6-5.634-20.626-18.146-20.626-18.146l2.86-8.771s-16.962,4.225-26.256-.955" transform="translate(19748.732 -12091.276)" fill="#282528"/>
      <path id="Path_6296" data-name="Path 6296" d="M451.869-368.632s-3.629,12.75,5.656,19.892,25.72,17.066,25.72,17.066a205.365,205.365,0,0,0-.579,23.482c.294,13.467.039,13.1.579,17.813.393,3.413,13.623,4.528,14.258-1.46,1.3-12.236.981-43.3-1.612-48.921-2.6-5.634-20.626-18.146-20.626-18.146l2.86-8.771s-16.962,4.225-26.256-.955" transform="translate(19748.732 -12091.276)" fill="#2c4481"/>
      <path id="Path_6297" data-name="Path 6297" d="M469.942-375.633a9.77,9.77,0,0,1,4.584-.881c3.15-.022,3.858.829,5.565,1.715,1.737.873,2.938,1.711,2.48,2.566s-4.688,1.9-7.09,1.041c-1.456-.54-5.509,1.136-6.373,1.046-.886-.086-.164-5.077.834-5.487" transform="translate(19788.023 -12108.938)" fill="#ffaa83"/>
      <path id="Path_6298" data-name="Path 6298" d="M469.1-372.414c.864.091,4.917-1.586,6.373-1.046a10,10,0,0,0,5.928-.324l-.043-.121c-.315-.553-1.676-.328-2.484-.631s-3.379-.419-5-.877c-1.6-.467-4.834,1.041-4.834,1.041l-.311.16c-.073.968.022,1.767.372,1.8" transform="translate(19788.027 -12106.669)" fill="#f29c79"/>
      <path id="Path_6299" data-name="Path 6299" d="M459.055-384.06s1.672-6.239,7.6,1.646c3.37,4.485,8.231,23.893,10.114,25.677.92.873,17.913,2.1,17.913,2.1s-2.817,2.212-.035,7.392c0,0-22.8,4.61-25.932-.307-5.353-8.447-13.6-29.163-9.656-36.513" transform="translate(19764.084 -12131.091)" fill="#1cb799"/>
      <path id="Path_6300" data-name="Path 6300" d="M483.216-295.433c-.54-4.709-.285-4.346-.579-17.813a205.365,205.365,0,0,1,.579-23.482s-16.431-9.937-25.72-17.066a16.584,16.584,0,0,1-6.312-12.581c3.409,8.395,24.078,22.717,30.611,24.774,8.308,2.61,3.9,12.819,4.078,15.066.125,1.828-.5,24.316-.773,32.97-1.054-.462-1.81-1.1-1.884-1.867" transform="translate(19748.762 -12086.223)" fill="#223a7a"/>
      <path id="Path_6301" data-name="Path 6301" d="M484.235-343.471c-.216-2.45-.9-7.042,3.232-16.055,2.1-4.545.16-9.389-1.244-13.7-3.05-8.52-3.8-11.428-5.634-12.815-2.782-2.065-26.234,8.053-26.908,8.542-9.056,6.507,3.517,18.405.631,40.919,0,0-.592,5.707-1.637,12.953,0,0,2.432,9.484,38.124-8.135,0,0-3.923.847-6.563-11.709" transform="translate(19746.883 -12130.902)" fill="#27e0c0"/>
      <path id="Path_6302" data-name="Path 6302" d="M465.708-384.591s-1.283,5.79,0,8.861-3.366,4.04-5.573,3.262c-2.216-.752-5.707-2.29-5.236-4.251s2.437-8.412,1.167-10.706,9.643,2.834,9.643,2.834" transform="translate(19756.988 -12134.703)" fill="#f79f7c"/>
      <path id="Path_6303" data-name="Path 6303" d="M458.3-390.663s-6.645,6.6-4.852,13.549c.99,3.845,5.414,6.351,7.928,8.321s8.835,6.425,11.454,1.832c2.627-4.576,5.673-17.8,0-23.7s-14.53,0-14.53,0" transform="translate(19753.156 -12146.505)" fill="#ffaa83"/>
      <path id="Path_6304" data-name="Path 6304" d="M476.786-385.595s-.782,4.58-9.509,5.919c-2.484.389-2.035,7.932-3.975,6.031-.73-.734-2.687-2.169-2.916-1.076-1.089,5.206,8.943,8.619,6.8,14.962-1.8,5.34-22.933,6.083-13.281-22.912,2.316-6.956,5.681-12.374,16.1-11.51,8.174.652,11.635,7.747,8.71,8.7-.462.156-.186-.3-1.923-.117" transform="translate(19749.217 -12148.718)" fill="#3a2528"/>
      <path id="Path_6305" data-name="Path 6305" d="M455.689-366.535v2.307l21.049,12.244,0-2.32-21.045-12.231" transform="translate(19758.855 -12086.578)" fill="#88b5ea"/>
      <path id="Path_6306" data-name="Path 6306" d="M462.183-350.044l0,2.32,31.877-18.41-.009-2.3-31.872,18.392" transform="translate(19773.406 -12090.838)" fill="#aecfff"/>
      <path id="Path_6307" data-name="Path 6307" d="M455.689-353.818l21.045,12.231,31.872-18.392-21.067-12.231-31.851,18.392" transform="translate(19758.855 -12099.295)" fill="#d7e9ff"/>
      <path id="Path_6308" data-name="Path 6308" d="M487.522-366.163l1.741,1,2.389-1.378-1.745-1.011-2.385,1.387m-4.571-2.666,1.733,1.007,2.389-1.378-1.737-1.015-2.385,1.387m2.277,1.326,1.746,1.011,2.394-1.374-1.75-1.016-2.389,1.378m-5.453-1.326.929.553,3.988-2.3-.955-.562-3.962,2.307m-4.619,2.666.955.544,3.983-2.3-.955-.557-3.984,2.316M461.34-358.2l.955.553,3.979-2.307-.959-.544-3.975,2.3m18.531-8.857,1.741,1,2.4-1.378-1.754-1.015-2.389,1.391m2.294,1.331,1.745,1,2.376-1.37-1.728-1.02-2.394,1.387m-5.362.441,1.75,1.007,2.389-1.378-1.75-1-2.389,1.374m7.643.886,1.754,1,2.381-1.37-1.75-1.011-2.385,1.382m-13.895.886.955.553,3.988-2.3-.968-.553-3.975,2.3m8.533-.441,1.754,1,2.376-1.374-1.737-1.02-2.394,1.391m-5.345.441,1.741,1.007,2.385-1.387-1.746-1-2.381,1.378m12.806.32,1.663.968,2.385-1.382-1.646-.964-2.4,1.378m-5.154.557,1.737,1.015,2.376-1.37-1.737-1.02-2.376,1.374m-5.362.454,1.745,1.007,2.381-1.383-1.754-1-2.372,1.378m-5.366.436,1.737,1.015,2.394-1.383-1.733-1-2.4,1.37m-4.722.886.955.557,3.992-2.294-.963-.562-3.984,2.3m12.374,0,1.728,1.011,2.394-1.378-1.733-1.007-2.389,1.374m-5.362.458,1.75,1.007,2.376-1.387-1.741-1-2.385,1.382m-5.37.445,1.75.994,2.394-1.374-1.741-1.011-2.4,1.391m7.669.877,1.733,1,2.389-1.378-1.75-1.011-2.372,1.387m-5.375.432,1.745,1.02,2.385-1.383-1.737-1.015-2.394,1.378m2.3,1.344,1.733,1,2.389-1.378-1.728-1.02-2.394,1.4m-5.366.436,1.741,1.015,2.4-1.383-1.745-1.02-2.394,1.387m2.3,1.331,1.732,1.011,2.381-1.383-1.733-1.011-2.38,1.383m-5.362.441,1.741,1.015,2.389-1.378-1.754-1.016-2.376,1.378m-5.556.553,1.745,1.007,4.835-2.791-1.737-1.011-4.843,2.8m12.732.385,1.655.955,14.927-8.611-1.672-.964-14.91,8.619m-4.9.4,1.754,1,2.191-1.266.19-.112-1.745-1.007-2.389,1.383m1.91,1.331,1.659.946,2.389-1.365-1.668-.972-2.381,1.391m-3.076,1.767,1.668.959,2.385-1.378-1.672-.964-2.381,1.383m24.748-14.3,1.663.972,2.385-1.383-1.646-.963-2.4,1.374M460.48-353.215l1.741,1.02,2.588-1.486-1.745-1.015-2.584,1.482" transform="translate(19764.461 -12096.887)" fill="#85a9ff"/>
      <path id="Path_6309" data-name="Path 6309" d="M463.775-359.873l1.733,1.011,5.465-3.154-2.191,1.266-1.754-1-3.253,1.88m1.75-6.317,1.745,1.02,2.376-1.391-1.724-1.007-2.4,1.378m-7.781,2.661.942.549,3.988-2.3-.946-.553-3.983,2.3" transform="translate(19763.459 -12088.893)" fill="#85a9ff"/>
      <path id="Path_6310" data-name="Path 6310" d="M463.655-346.632l-2.1-1.18,3.837-22.147,1.966,1.568-3.707,21.758" transform="translate(19772.008 -12094.249)" fill="#88b5ea"/>
      <path id="Path_6311" data-name="Path 6311" d="M464.709-355.68l-1.966-1.568,31.872-18.384,1.962,1.551-31.868,18.4" transform="translate(19774.662 -12106.96)" fill="#88b5ea"/>
      <path id="Path_6312" data-name="Path 6312" d="M497.781-375.153l-3.7,21.767-31.872,18.392,3.707-21.758,31.868-18.4" transform="translate(19773.457 -12105.887)" fill="#aecfff"/>
      <path id="Path_6313" data-name="Path 6313" d="M459.117-369.93a9.968,9.968,0,0,1,4.718,1.167c2.947,1.361,3.249,2.476,4.472,4.083,1.223,1.581,1.992,2.912,1.2,3.517s-5.249-.259-7.094-2.126c-1.167-1.154-5.694-1.331-6.472-1.819-.778-.467,2.074-4.874,3.176-4.822" transform="translate(19759.125 -12094.205)" fill="#ffaa83"/>
      <path id="Path_6314" data-name="Path 6314" d="M455.937-367.146c.778.488,5.306.665,6.472,1.819a10.106,10.106,0,0,0,5.686,2.29l.009-.134c-.052-.674-1.426-1.041-2.048-1.685s-3-1.884-4.316-3.029c-1.3-1.145-5.007-1.145-5.007-1.145l-.359.017c-.488.89-.726,1.689-.436,1.866" transform="translate(19759.131 -12092.167)" fill="#f29c79"/>
      <path id="Path_6315" data-name="Path 6315" d="M456.95-383.161c1.633-.9,5.111-.307,6.347,3.971,1.62,5.643-4.882,26.683-3.875,29.181.471,1.24,17.07,9.76,17.07,9.76s-3.6.86-3.253,6.982c0,0-23.43-5.63-24.208-11.67-1.331-10.352.341-34.033,7.92-38.224" transform="translate(19743.008 -12124.636)" fill="#1cb799"/>
      <path id="Path_6319" data-name="Path 6319" d="M510.337-409.7c-.013-4.528-3.236-6.329-7.146-4.07l-28.079,16.215a15.657,15.657,0,0,0-7.09,12.283l.009,2.821-1.154.665,1.162,1.685.017,7.656L466.8-369.2l1.27.717.039,15.433c.026,4.532,3.223,6.329,7.151,4.057l28.07-16.2a15.666,15.666,0,0,0,7.085-12.283l-.078-32.227" transform="translate(19783.748 -12194.594)" fill="#4267c5"/>
      <path id="Path_6320" data-name="Path 6320" d="M508.807-411.617a6.48,6.48,0,0,1,1.167-.259l.095-.013a4.406,4.406,0,0,1,1.154.065l.052.009a3.376,3.376,0,0,1,1.037.393l-7.068-4.109-.052-.026-.346-.177-.384-.13-.251-.056-.06-.022-.1-.026-.406-.039-.488-.009-.143.022-.108.013-.268.013-.631.143-.276.091-.229.082-.333.112-.989.5-28.079,16.2a12.153,12.153,0,0,0-2.381,1.849l-.32.341-.138.13-.315.354-.579.7-.467.644-.428.622-.372.6-.021.052v.009l-.3.54-.311.6-.294.626-.246.631-.246.674-.1.363-.026.078-.091.276-.207.821-.164.985a9.634,9.634,0,0,0-.1,1.391l.1,32.227c.009,2.242.8,3.815,2.078,4.558l7.064,4.122c-1.253-.739-2.061-2.316-2.07-4.563l-.086-32.227a12.006,12.006,0,0,1,.557-3.5l0-.039a16.815,16.815,0,0,1,1.512-3.457v0a17.335,17.335,0,0,1,2.208-2.986l.113-.125a12.229,12.229,0,0,1,2.7-2.173l28.079-16.215a7.006,7.006,0,0,1,1.309-.6l.251-.086" transform="translate(19779.691 -12197.437)" fill="#345eb2"/>
      <path id="Path_6321" data-name="Path 6321" d="M476.159-393.987a6.221,6.221,0,0,0,3.413-5.262c-.009-1.879-1.119-2.333-3.106-1.193a10.116,10.116,0,0,0-1.655,1.136l.022,5.984A7.745,7.745,0,0,0,476.159-393.987Zm5.465-11.264c1.132.354,1.905,1.607,1.914,3.573a11.411,11.411,0,0,1-1.616,5.776,16.064,16.064,0,0,1-5.725,5.44,10.372,10.372,0,0,1-1.365.678l.039,7.245-3.958,2.286-.056-20a49.371,49.371,0,0,1,5.375-3.5c2.454-1.426,4.234-1.9,5.392-1.49m8.559-1.188a8.172,8.172,0,0,1,3.612-1.231l-.7,3.547a5.582,5.582,0,0,0-2.769.76,2.6,2.6,0,0,0-1.516,2.078c0,.7.5.778,2.074.5,2.432-.445,3.465.367,3.491,2.532,0,2.752-1.875,5.846-5.521,7.954a8.742,8.742,0,0,1-4.161,1.378l.7-3.7a6.475,6.475,0,0,0,3.443-.86c1.2-.687,1.685-1.46,1.685-2.212s-.41-.886-1.892-.6c-2.631.51-3.659-.562-3.638-2.324-.013-2.731,2.031-5.988,5.189-7.82" transform="translate(19792.842 -12178.739)" fill="#e3f1fe"/>
      <path id="Path_6322" data-name="Path 6322" d="M450.308-405.572l-9.786-5.677,4.424-2.566,9.79,5.682-4.429,2.562" transform="translate(19724.877 -12192.508)" fill="#c3cfdb"/>
      <path id="Path_6323" data-name="Path 6323" d="M439.225-383.894l-9.795-5.69c-1.759-1.037-2.847-3.206-2.856-6.312l9.786,5.69c0,3.1,1.1,5.288,2.865,6.312" transform="translate(19693.627 -12152.362)" fill="#e58b0a"/>
      <g id="Group_428" data-name="Group 428" transform="translate(20120.201 -12548.259)" clip-path="url(#clip-path-6)">
        <path id="Path_6324" data-name="Path 6324" d="M439.225-383.894l-9.795-5.69c-1.759-1.037-2.847-3.206-2.856-6.312l9.786,5.69c0,3.1,1.1,5.288,2.865,6.312" transform="translate(-426.575 395.897)" fill="#e58b0a"/>
      </g>
      <path id="Path_6351" data-name="Path 6351" d="M441.158-388.486l4.355-2.519-1.231-4.078c-.354-1.128-.713-2.623-1.02-3.776l-.039.026c-.315,1.512-.592,3.387-.925,4.887Zm5.163-15.973L452.5-385.38l-4.8,2.778-1.534-4.938-5.634,3.24-1.378,6.632L434.517-375l5.958-26.1,5.846-3.361m10.6-1.944c-1.391.808-2.311.207-2.286-1.214a4.691,4.691,0,0,1,2.329-3.949c1.426-.821,2.324-.225,2.372,1.231a4.8,4.8,0,0,1-2.415,3.932M454.806-386.7l-.056-16.422,4.45-2.575.052,16.427-4.446,2.571" transform="translate(19711.422 -12188.301)" fill="#fff"/>
      <path id="Path_6352" data-name="Path 6352" d="M507.461-421.938l19.7,11.376.009-3.742-19.684-11.372Zm-.147,53.5,19.7,11.376.009-3.75-19.689-11.367Zm.177-61.926,19.693,11.372.013-3.759-19.688-11.363Zm-.151,53.488L527.02-365.5l.022-3.75-19.693-11.367Zm.017-9.242,19.693,11.363.091-31.414-19.693-11.367Zm23.7,33.419,15.588,9,.186-67.581-15.584-9Zm21.3,13.242c-.009,3.111-2.195,4.372-4.9,2.8l-40.907-23.62a10.765,10.765,0,0,1-4.9-8.447l.229-75.414,50.7,29.267-.22,75.414" transform="translate(19861.83 -12260.442)" fill="#d7e9ff"/>
      <path id="Path_6353" data-name="Path 6353" d="M517.188-438.71c-1.257-.722-2.281-.134-2.281,1.279a4.95,4.95,0,0,0,2.264,3.9c1.231.709,2.26.151,2.26-1.287a5,5,0,0,0-2.243-3.888" transform="translate(19891.533 -12248.977)" fill="#ffb420"/>
      <path id="Path_6354" data-name="Path 6354" d="M514.893-440.015c-1.231-.726-2.251-.143-2.251,1.275a4.9,4.9,0,0,0,2.238,3.884c1.253.73,2.272.173,2.281-1.27a4.947,4.947,0,0,0-2.268-3.889" transform="translate(19886.457 -12251.909)" fill="#ff66a8"/>
      <path id="Path_6355" data-name="Path 6355" d="M503.415-379.118l-.017,3.75,19.7,11.376v-3.75l-19.68-11.376m.017-8.429-.009,3.741L523.1-372.43l.022-3.75-19.693-11.367m.1-36.919-.091,31.419,19.693,11.363.091-31.414-19.693-11.367m.035-8.14-.022,3.737,19.7,11.376.009-3.742-19.684-11.372m.026-8.438-.017,3.75,19.693,11.372.013-3.759-19.688-11.363" transform="translate(19865.748 -12253.512)" fill="#91a2c5"/>
      <path id="Path_6356" data-name="Path 6356" d="M546.715-414.863c1.231.709,2.26.151,2.26-1.287a5,5,0,0,0-2.243-3.888c-1.257-.722-2.281-.134-2.281,1.279A4.95,4.95,0,0,0,546.715-414.863Zm-7.367-4.256c1.253.73,2.273.173,2.281-1.27a4.947,4.947,0,0,0-2.268-3.889c-1.231-.726-2.251-.143-2.251,1.275A4.9,4.9,0,0,0,539.348-419.118Zm8.209-3.94a10.709,10.709,0,0,1,4.874,8.451l-.013,6.943-50.7-29.267.017-6.952c.009-3.106,2.2-4.364,4.912-2.791l40.907,23.616" transform="translate(19861.988 -12267.647)" fill="#bbd2ff"/>
      <path id="Path_6357" data-name="Path 6357" d="M510.916-436.774l-.19,67.581,15.589,9,.186-67.581-15.584-9" transform="translate(19882.164 -12243.947)" fill="#ff66a8"/>
      <g id="Group_431" data-name="Group 431" transform="translate(20329.35 -12507.595)" clip-path="url(#clip-path-7)">
        <path id="Path_6358" data-name="Path 6358" d="M533.622-333.947c-10.909,0-21.81-2.407-30.11-7.233-16.608-9.652-16.513-25.288.2-34.927,8.352-4.826,19.278-7.241,30.188-7.241s21.81,2.415,30.105,7.241c16.621,9.648,16.535,25.275-.194,34.927-8.347,4.822-19.274,7.233-30.192,7.233" transform="translate(-491.117 383.348)" fill="url(#linear-gradient-3)"/>
      </g>
      <path id="Path_6360" data-name="Path 6360" d="M507.767-378.157c.238.052,11.735-.307,9.177,3.694a6.505,6.505,0,0,1-5.7,3.1c-1.724.043-4.865-.9-5.642-.419-.791.462-4.683,2.986-6.909.449a3.7,3.7,0,0,1-.467-2.925c.294-.942,8.278-4.117,9.54-3.9" transform="translate(19853.898 -12112.64)" fill="#5bb0ff"/>
      <path id="Path_6361" data-name="Path 6361" d="M516.908-375.291a6.505,6.505,0,0,1-5.7,3.1c-1.724.043-4.865-.9-5.642-.419-.791.462-4.683,2.986-6.909.449a2.712,2.712,0,0,1-.531-1.447c1.556,2.156,5.388,1.564,6.446.851a6.368,6.368,0,0,1,4.467-.916c1.495.289,4.77-.048,6.412-1.538a2.42,2.42,0,0,0,.739-2.588,1.563,1.563,0,0,1,.717,2.506" transform="translate(19853.936 -12111.811)" fill="#3d93ff"/>
      <path id="Path_6362" data-name="Path 6362" d="M513.575-375.6c8.252-1.084,16.919.264,13.713,4.489a8.6,8.6,0,0,1-7.185,3.206c-2.195.03-6.213-1.015-7.2-.523s-5.906,3.1-8.779.38c-.583-.566-1.486-2.968-1.132-3.975s8.952-3.366,10.585-3.577" transform="translate(19864.652 -12107.693)" fill="#5bb0ff"/>
      <path id="Path_6363" data-name="Path 6363" d="M500.354-404.894s-6.217,12.106.225,28.826c0,0,4.93,14.137,3.841,18.859-1.3,5.677-3.232,4.07-4.619,22.843-1.223,16.582-1.141,13.964-.868,20.052.082,1.931,7.85,3.573,9.09-1.275,3.2-12.4,10.918-38.344,9.5-53.35s-2.316-29.055-2.316-29.055-9.911-2.627-14.854-6.9" transform="translate(19852.883 -12172.52)" fill="#223a7a"/>
      <path id="Path_6364" data-name="Path 6364" d="M501.251-402.732S497.6-389.624,507.33-375.4c0,0,7.332,16,6.325,21.361C512.61-348.5,510.83-348.96,508.92-332c-1.2,10.788-1.97,13.515-1.11,20.453.32,2.571,10.2,2.8,10.771-.808,2-12.59,11.415-39.68,10.015-54.693-1.422-15.014-4.442-31.916-4.442-31.916s-16.375-.138-22.9-3.767" transform="translate(19859.43 -12167.678)" fill="#2c4481"/>
      <path id="Path_6365" data-name="Path 6365" d="M527.1-372.1a8.6,8.6,0,0,1-7.185,3.206c-2.195.03-6.213-1.015-7.2-.523s-5.906,3.1-8.779.38a4.512,4.512,0,0,1-.946-1.9c2.013,2.32,7.111,2.1,8.447,1.344a9.25,9.25,0,0,1,5.668-.89c1.91.328,6.083,0,8.14-1.542a3.733,3.733,0,0,0,1.365-3.491c1.288.6,1.422,2.191.492,3.417" transform="translate(19864.836 -12106.706)" fill="#3d93ff"/>
      <path id="Path_6366" data-name="Path 6366" d="M524.283-369.371c1.4,15.014-8.015,42.1-10.015,54.693-.264,1.629-2.424,2.484-4.744,2.674,4.139-11.117,10.5-43.59,11.393-48.208.972-5.133,2.886-24.229-4.485-26.947S502.5-399.143,502.5-399.143L512-401.7c4.372.376,7.842.41,7.842.41s3.02,16.9,4.442,31.916" transform="translate(19863.742 -12165.356)" fill="#223a7a"/>
      <path id="Path_6367" data-name="Path 6367" d="M514.295-419.385s5.9-4.433,9.626-2.376,3.992,3.029,1.983,3.465c-2.035.423-7.414,1.737-6.671,2.294.769.544,2.756.786,2.307,1.478s-6.407-.216-6.407-.216l-3.309-3.089,2.471-1.555" transform="translate(19884.623 -12211.529)" fill="#ffaa83"/>
      <path id="Path_6368" data-name="Path 6368" d="M504.622-411.476s-6.973-.285-7.008,6.8c-.039,7.5,14.8,4.77,14.8,4.77s12.841-1.292,16.8-2.925c5.293-2.182,18.872-13.1,18.872-13.1s-1.046-4.342-4.044-5.409c0,0-12.854,8.758-17.766,9.808-5.353,1.149-20.488-.194-21.654.056" transform="translate(19852.789 -12209.367)" fill="#1cb799"/>
      <path id="Path_6369" data-name="Path 6369" d="M530.976-402.2s1.711-7.98-11.626-12.763-21.559-4.614-21.728,2.834,3.275,17.373,3.754,20.725c.389,2.648,2.986,4.99-.25,12.711-3.188,7.63-7.656,14.011,12.923,18.2,3.634.73,19.6,2.195,17.649-6.377-2.428-10.7-2.255-26.48-.721-35.333" transform="translate(19852.791 -12202.328)" fill="#27e0c0"/>
      <path id="Path_6370" data-name="Path 6370" d="M512.27-418.033s-1.383,5.647,1.365,9.073c1.478,1.854-4.45,3.793-9.224,1.348,0,0-.428-9.652-3.966-13.013l11.825,2.592" transform="translate(19859.131 -12207.766)" fill="#ffaa83"/>
      <path id="Path_6371" data-name="Path 6371" d="M509.011-417.491a21.338,21.338,0,0,1-5.336-1.568l-.22.143-1.072,1.551-.631-.89s1.089,5.867,8.192,4.6a12.891,12.891,0,0,1-.933-3.832" transform="translate(19862.061 -12204.256)" fill="#f79f7c"/>
      <path id="Path_6372" data-name="Path 6372" d="M515.216-425.831s4.593,1.037,5.681,8.131c1.046,6.74,3.15,12.547-.177,15.463-3.374,2.955-15.809,2.2-19.879-6.386s1.957-21.119,14.374-17.209" transform="translate(19857.188 -12221.078)" fill="#ffaa83"/>
      <path id="Path_6373" data-name="Path 6373" d="M523.959-417.611a4.973,4.973,0,0,1-2.865,4.2c-3.042,1.253-6.654,1.1-6.982,3.167-.337,2.048-2.216,4.463,4.251,15.869,2.031,3.551-12.309,6.018-17.33-1.18-1.655-2.355-3.919-17.282.1-25.923a11.113,11.113,0,0,1,11.423-5.453s12.158.842,11.4,9.315" transform="translate(19855.635 -12222.179)" fill="#3a2528"/>
      <path id="Path_6374" data-name="Path 6374" d="M503.77-416.734c1.482,1.443,3.456,1.763,4.42.7s.527-3.068-.963-4.528c-1.491-1.434-3.465-1.754-4.42-.691-.946,1.046-.51,3.076.964,4.515m45.413,48.649s7.124,2,9.847-1.27c2.722-3.288,2.609-4.29.575-3.945-2.044.328-7.539,1.071-7.029.289s2.264-1.745,1.6-2.216-5.88,2.536-5.88,2.536l-1.962,4.074,2.852.531" transform="translate(19863.301 -12210.572)" fill="#ffaa83"/>
      <path id="Path_6375" data-name="Path 6375" d="M515.195-412.909s-3.841-5.794-9.4-1.266c-5.867,4.783,4.9,14.936,4.9,14.936s8.481,9.488,12.063,11.622c4.77,2.847,21.2,6.744,21.2,6.744s2.8-3.621,1.88-6.723c0,0-14.314-4.7-17.995-7.975-4.018-3.564-11.765-16.565-12.651-17.338" transform="translate(19867.201 -12197.189)" fill="#1cb799"/>
      <g id="Group_425-2" data-name="Group 425" transform="translate(19929.904 -12445.689)" clip-path="url(#clip-path-8)">
        <path id="Path_6284" data-name="Path 6284" d="M626.454-179.409l-258.6-150.3,59.429-34.313L626.441-248.277,827.327-364.244l59.433,34.538-260.306,150.3" transform="translate(-367.849 364.244)" fill="url(#linear-gradient-4)"/>
      </g>
      <path id="Path_6286" data-name="Path 6286" d="M367.854-374.831l.048,27.651L626.492-196.9l-.06-27.656L367.854-374.831" transform="translate(19562.064 -12105.164)" fill="#d3d8f9"/>
      <g id="Group_426" data-name="Group 426" transform="translate(19929.918 -12630.288)" clip-path="url(#clip-path-9)">
        <path id="Path_6288" data-name="Path 6288" d="M626.432-120.646,427.269-236.388l-59.416-34.529,260.3-150.293,258.6,150.289-59.429,34.309L626.432-120.646M571.056-369.239,406.427-273.186,609.046-154.411l169.221-95.323L571.056-369.239m239.015,70.722c-10.909,0-21.836,2.415-30.187,7.241-16.716,9.639-16.811,25.275-.2,34.927,8.3,4.826,19.2,7.232,30.11,7.232s21.845-2.411,30.192-7.232c16.729-9.652,16.815-25.279.194-34.927-8.3-4.826-19.192-7.241-30.105-7.241" transform="translate(-367.854 421.211)" fill="url(#linear-gradient-5)"/>
      </g>
      <g id="Group_427" data-name="Group 427" transform="translate(19968.492 -12578.316)" clip-path="url(#clip-path-10)">
        <path id="Path_6290" data-name="Path 6290" d="M582.376-190.344,379.757-309.119l164.629-96.054L751.6-285.667,582.376-190.344" transform="translate(-379.757 405.172)" fill="url(#linear-gradient-6)"/>
      </g>
      <g id="Group_439" data-name="Group 439" transform="translate(19929.906 -12714.999)">
        <path id="Path_6376" data-name="Path 6376" d="M604.207-367.592c1.071.644,1.97.143,1.992-1.1a4.365,4.365,0,0,0-1.94-3.431c-1.089-.639-1.966-.138-1.992,1.115A4.326,4.326,0,0,0,604.207-367.592Zm-5.029-2.96c1.089.635,1.975.138,2-1.1a4.34,4.34,0,0,0-1.94-3.431c-1.084-.644-1.97-.138-1.992,1.115A4.388,4.388,0,0,0,599.178-370.552Zm-5.025-2.96c1.084.639,1.983.143,1.992-1.1a4.338,4.338,0,0,0-1.936-3.435c-1.08-.635-1.974-.134-1.987,1.123A4.361,4.361,0,0,0,594.153-373.511Zm13.1-.782a8.093,8.093,0,0,1,3.59,6.368l-.091,8.123-91.508-53.924.1-8.114c.026-2.333,1.676-3.258,3.7-2.07l84.211,49.617" transform="translate(-28.655 498.714)" fill="#bbd2ff"/>
        <path id="Path_6377" data-name="Path 6377" d="M611.343-375.324l-.091,8.123-91.508-53.924-.721,61.606a8.09,8.09,0,0,0,3.6,6.369l84.211,49.617c2,1.184,3.66.255,3.7-2.065l.808-69.724" transform="translate(-29.154 506.113)" fill="#d7e9ff"/>
        <path id="Path_6378" data-name="Path 6378" d="M543.842-371.893l-.009,3.055,54.123,31.259.009-3.068-54.123-31.246m.017-6.93,0,3.085,54.127,31.25.009-3.089-54.132-31.246m.026-6.9-.009,3.068,54.119,31.242.013-3.068-54.123-31.242m.043-16.133-.017,3.068,54.132,31.246,0-3.068-54.119-31.246m-.026,6.921v3.076l54.127,31.246v-3.068L543.9-394.935m-22.419-1.46-.035,13.826,18.725,10.819.039-13.83L521.483-396.4m.047-18.423L521.5-401l18.716,10.819.043-13.826-18.734-10.81" transform="translate(-23.717 520.246)" fill="#91a2c5"/>
        <g id="Group_432" data-name="Group 432" transform="translate(0 269.309)" clip-path="url(#clip-path-8)">
          <path id="Path_6379" data-name="Path 6379" d="M626.454-179.409l-258.6-150.3,59.429-34.313L626.441-248.277,827.327-364.244l59.433,34.538-260.306,150.3" transform="translate(-367.849 364.244)" fill="url(#linear-gradient-4)"/>
        </g>
        <path id="Path_6381" data-name="Path 6381" d="M367.854-374.831l.048,27.651L626.492-196.9l-.06-27.656L367.854-374.831" transform="translate(-367.841 609.835)" fill="#4067b1"/>
        <path id="Path_6382" data-name="Path 6382" d="M447.65-224.556l.06,27.656L708-347.176l-.03-27.656L447.65-224.556" transform="translate(-189.06 609.832)" fill="#4067b1"/>
        <g id="Group_433" data-name="Group 433" transform="translate(0.013 84.711)" clip-path="url(#clip-path-12)">
          <path id="Path_6383" data-name="Path 6383" d="M626.432-120.646,427.269-236.388l-59.416-34.529,260.3-150.293,258.6,150.289-59.429,34.309L626.432-120.646M571.056-369.239,406.427-273.186,609.046-154.411l169.221-95.323L571.056-369.239m239.015,70.722c-10.909,0-21.836,2.415-30.187,7.241-16.716,9.639-16.811,25.275-.2,34.927,8.3,4.826,19.2,7.232,30.11,7.232s21.845-2.411,30.192-7.232c16.729-9.652,16.815-25.279.194-34.927-8.3-4.826-19.192-7.241-30.105-7.241" transform="translate(-367.854 421.211)" fill="#5f92d3"/>
        </g>
        <g id="Group_434" data-name="Group 434" transform="translate(38.586 136.683)" clip-path="url(#clip-path-13)">
          <path id="Path_6385" data-name="Path 6385" d="M582.376-190.344,379.757-309.119l164.629-96.054L751.6-285.667,582.376-190.344" transform="translate(-379.757 405.172)" fill="#d9effb"/>
        </g>
        <path id="Path_6387" data-name="Path 6387" d="M591.407-377.373l-.073,26.441L442.285-264.318l.065-26.437,149.057-86.618" transform="translate(-201.08 604.138)" fill="#9fbfff"/>
        <path id="Path_6388" data-name="Path 6388" d="M614.908-363.778,465.85-277.161,431.8-296.824l149.053-86.618,34.059,19.663" transform="translate(-224.58 590.544)" fill="#fff"/>
        <path id="Path_6389" data-name="Path 6389" d="M458.618-364.722s6.649-1,10.335-4.886c0,0,25.4,17.632,27.5,23.309,2.013,5.414,4.93,31.833,4.748,43.192-.047,3.629-13.679,6.282-14.487,1.08-1.452-9.367-2.588-35.666-2.588-35.666s-30.278-10.814-25.513-27.029" transform="translate(-165.627 621.536)" fill="#223a7a"/>
        <path id="Path_6390" data-name="Path 6390" d="M451.869-368.632s-3.629,12.75,5.656,19.892,25.72,17.066,25.72,17.066a205.365,205.365,0,0,0-.579,23.482c.294,13.467.039,13.1.579,17.813.393,3.413,13.623,4.528,14.258-1.46,1.3-12.236.981-43.3-1.612-48.921-2.6-5.634-20.626-18.146-20.626-18.146l2.86-8.771s-16.962,4.225-26.256-.955" transform="translate(-181.172 623.723)" fill="#282528"/>
        <path id="Path_6391" data-name="Path 6391" d="M451.869-368.632s-3.629,12.75,5.656,19.892,25.72,17.066,25.72,17.066a205.365,205.365,0,0,0-.579,23.482c.294,13.467.039,13.1.579,17.813.393,3.413,13.623,4.528,14.258-1.46,1.3-12.236.981-43.3-1.612-48.921-2.6-5.634-20.626-18.146-20.626-18.146l2.86-8.771s-16.962,4.225-26.256-.955" transform="translate(-181.172 623.723)" fill="#2c4481"/>
        <path id="Path_6392" data-name="Path 6392" d="M469.942-375.633a9.77,9.77,0,0,1,4.584-.881c3.15-.022,3.858.829,5.565,1.715,1.737.873,2.938,1.711,2.48,2.566s-4.688,1.9-7.09,1.041c-1.456-.54-5.509,1.136-6.373,1.046-.886-.086-.164-5.077.834-5.487" transform="translate(-141.881 606.062)" fill="#ffaa83"/>
        <path id="Path_6393" data-name="Path 6393" d="M469.1-372.414c.864.091,4.917-1.586,6.373-1.046a10,10,0,0,0,5.928-.324l-.043-.121c-.315-.553-1.676-.328-2.484-.631s-3.379-.419-5-.877c-1.6-.467-4.834,1.041-4.834,1.041l-.311.16c-.073.968.022,1.767.372,1.8" transform="translate(-141.878 608.33)" fill="#f29c79"/>
        <path id="Path_6394" data-name="Path 6394" d="M459.055-384.06s1.672-6.239,7.6,1.646c3.37,4.485,8.231,23.893,10.114,25.677.92.873,17.913,2.1,17.913,2.1s-2.817,2.212-.035,7.392c0,0-22.8,4.61-25.932-.307-5.353-8.447-13.6-29.163-9.656-36.513" transform="translate(-165.822 583.909)" fill="#4067b1"/>
        <path id="Path_6395" data-name="Path 6395" d="M483.216-295.433c-.54-4.709-.285-4.346-.579-17.813a205.365,205.365,0,0,1,.579-23.482s-16.431-9.937-25.72-17.066a16.584,16.584,0,0,1-6.312-12.581c3.409,8.395,24.078,22.717,30.611,24.774,8.308,2.61,3.9,12.819,4.078,15.066.125,1.828-.5,24.316-.773,32.97-1.054-.462-1.81-1.1-1.884-1.867" transform="translate(-181.143 628.777)" fill="#223a7a"/>
        <path id="Path_6396" data-name="Path 6396" d="M484.235-343.471c-.216-2.45-.9-7.042,3.232-16.055,2.1-4.545.16-9.389-1.244-13.7-3.05-8.52-3.8-11.428-5.634-12.815-2.782-2.065-26.234,8.053-26.908,8.542-9.056,6.507,3.517,18.405.631,40.919,0,0-.592,5.707-1.637,12.953,0,0,2.432,9.484,38.124-8.135,0,0-3.923.847-6.563-11.709" transform="translate(-183.022 584.097)" fill="#5f92d3"/>
        <path id="Path_6397" data-name="Path 6397" d="M465.708-384.591s-1.283,5.79,0,8.861-3.366,4.04-5.573,3.262c-2.216-.752-5.707-2.29-5.236-4.251s2.437-8.412,1.167-10.706,9.643,2.834,9.643,2.834" transform="translate(-172.917 580.297)" fill="#f79f7c"/>
        <path id="Path_6398" data-name="Path 6398" d="M458.3-390.663s-6.645,6.6-4.852,13.549c.99,3.845,5.414,6.351,7.928,8.321s8.835,6.425,11.454,1.832c2.627-4.576,5.673-17.8,0-23.7s-14.53,0-14.53,0" transform="translate(-176.749 568.495)" fill="#ffaa83"/>
        <path id="Path_6399" data-name="Path 6399" d="M476.786-385.595s-.782,4.58-9.509,5.919c-2.484.389-2.035,7.932-3.975,6.031-.73-.734-2.687-2.169-2.916-1.076-1.089,5.206,8.943,8.619,6.8,14.962-1.8,5.34-22.933,6.083-13.281-22.912,2.316-6.956,5.681-12.374,16.1-11.51,8.174.652,11.635,7.747,8.71,8.7-.462.156-.186-.3-1.923-.117" transform="translate(-180.689 566.282)" fill="#3a2528"/>
        <path id="Path_6400" data-name="Path 6400" d="M455.689-366.535v2.307l21.049,12.244,0-2.32-21.045-12.231" transform="translate(-171.05 628.421)" fill="#88b5ea"/>
        <path id="Path_6401" data-name="Path 6401" d="M462.183-350.044l0,2.32,31.877-18.41-.009-2.3-31.872,18.392" transform="translate(-156.499 624.162)" fill="#aecfff"/>
        <path id="Path_6402" data-name="Path 6402" d="M455.689-353.818l21.045,12.231,31.872-18.392-21.067-12.231-31.851,18.392" transform="translate(-171.05 615.705)" fill="#d7e9ff"/>
        <path id="Path_6403" data-name="Path 6403" d="M487.522-366.163l1.741,1,2.389-1.378-1.745-1.011-2.385,1.387m-4.571-2.666,1.733,1.007,2.389-1.378-1.737-1.015-2.385,1.387m2.277,1.326,1.746,1.011,2.394-1.374-1.75-1.016-2.389,1.378m-5.453-1.326.929.553,3.988-2.3-.955-.562-3.962,2.307m-4.619,2.666.955.544,3.983-2.3-.955-.557-3.984,2.316M461.34-358.2l.955.553,3.979-2.307-.959-.544-3.975,2.3m18.531-8.857,1.741,1,2.4-1.378-1.754-1.015-2.389,1.391m2.294,1.331,1.745,1,2.376-1.37-1.728-1.02-2.394,1.387m-5.362.441,1.75,1.007,2.389-1.378-1.75-1-2.389,1.374m7.643.886,1.754,1,2.381-1.37-1.75-1.011-2.385,1.382m-13.895.886.955.553,3.988-2.3-.968-.553-3.975,2.3m8.533-.441,1.754,1,2.376-1.374-1.737-1.02-2.394,1.391m-5.345.441,1.741,1.007,2.385-1.387-1.746-1-2.381,1.378m12.806.32,1.663.968,2.385-1.382-1.646-.964-2.4,1.378m-5.154.557,1.737,1.015,2.376-1.37-1.737-1.02-2.376,1.374m-5.362.454,1.745,1.007,2.381-1.383-1.754-1-2.372,1.378m-5.366.436,1.737,1.015,2.394-1.383-1.733-1-2.4,1.37m-4.722.886.955.557,3.992-2.294-.963-.562-3.984,2.3m12.374,0,1.728,1.011,2.394-1.378-1.733-1.007-2.389,1.374m-5.362.458,1.75,1.007,2.376-1.387-1.741-1-2.385,1.382m-5.37.445,1.75.994,2.394-1.374-1.741-1.011-2.4,1.391m7.669.877,1.733,1,2.389-1.378-1.75-1.011-2.372,1.387m-5.375.432,1.745,1.02,2.385-1.383-1.737-1.015-2.394,1.378m2.3,1.344,1.733,1,2.389-1.378-1.728-1.02-2.394,1.4m-5.366.436,1.741,1.015,2.4-1.383-1.745-1.02-2.394,1.387m2.3,1.331,1.732,1.011,2.381-1.383-1.733-1.011-2.38,1.383m-5.362.441,1.741,1.015,2.389-1.378-1.754-1.016-2.376,1.378m-5.556.553,1.745,1.007,4.835-2.791-1.737-1.011-4.843,2.8m12.732.385,1.655.955,14.927-8.611-1.672-.964-14.91,8.619m-4.9.4,1.754,1,2.191-1.266.19-.112-1.745-1.007-2.389,1.383m1.91,1.331,1.659.946,2.389-1.365-1.668-.972-2.381,1.391m-3.076,1.767,1.668.959,2.385-1.378-1.672-.964-2.381,1.383m24.748-14.3,1.663.972,2.385-1.383-1.646-.963-2.4,1.374M460.48-353.215l1.741,1.02,2.588-1.486-1.745-1.015-2.584,1.482" transform="translate(-165.446 618.113)" fill="#85a9ff"/>
        <path id="Path_6404" data-name="Path 6404" d="M463.775-359.873l1.733,1.011,5.465-3.154-2.191,1.266-1.754-1-3.253,1.88m1.75-6.317,1.745,1.02,2.376-1.391-1.724-1.007-2.4,1.378m-7.781,2.661.942.549,3.988-2.3-.946-.553-3.983,2.3" transform="translate(-166.446 626.107)" fill="#85a9ff"/>
        <path id="Path_6405" data-name="Path 6405" d="M463.655-346.632l-2.1-1.18,3.837-22.147,1.966,1.568-3.707,21.758" transform="translate(-157.897 620.75)" fill="#88b5ea"/>
        <path id="Path_6406" data-name="Path 6406" d="M464.709-355.68l-1.966-1.568,31.872-18.384,1.962,1.551-31.868,18.4" transform="translate(-155.244 608.04)" fill="#88b5ea"/>
        <path id="Path_6407" data-name="Path 6407" d="M497.781-375.153l-3.7,21.767-31.872,18.392,3.707-21.758,31.868-18.4" transform="translate(-156.448 609.112)" fill="#aecfff"/>
        <path id="Path_6408" data-name="Path 6408" d="M459.117-369.93a9.968,9.968,0,0,1,4.718,1.167c2.947,1.361,3.249,2.476,4.472,4.083,1.223,1.581,1.992,2.912,1.2,3.517s-5.249-.259-7.094-2.126c-1.167-1.154-5.694-1.331-6.472-1.819-.778-.467,2.074-4.874,3.176-4.822" transform="translate(-170.78 620.795)" fill="#ffaa83"/>
        <path id="Path_6409" data-name="Path 6409" d="M455.937-367.146c.778.488,5.306.665,6.472,1.819a10.106,10.106,0,0,0,5.686,2.29l.009-.134c-.052-.674-1.426-1.041-2.048-1.685s-3-1.884-4.316-3.029c-1.3-1.145-5.007-1.145-5.007-1.145l-.359.017c-.488.89-.726,1.689-.436,1.866" transform="translate(-170.775 622.832)" fill="#f29c79"/>
        <path id="Path_6410" data-name="Path 6410" d="M456.95-383.161c1.633-.9,5.111-.307,6.347,3.971,1.62,5.643-4.882,26.683-3.875,29.181.471,1.24,17.07,9.76,17.07,9.76s-3.6.86-3.253,6.982c0,0-23.43-5.63-24.208-11.67-1.331-10.352.341-34.033,7.92-38.224" transform="translate(-186.897 590.363)" fill="#4067b1"/>
        <path id="Path_6414" data-name="Path 6414" d="M510.337-409.7c-.013-4.528-3.236-6.329-7.146-4.07l-28.079,16.215a15.657,15.657,0,0,0-7.09,12.283l.009,2.821-1.154.665,1.162,1.685.017,7.656L466.8-369.2l1.27.717.039,15.433c.026,4.532,3.223,6.329,7.151,4.057l28.07-16.2a15.666,15.666,0,0,0,7.085-12.283l-.078-32.227" transform="translate(-146.157 520.406)" fill="#4267c5"/>
        <path id="Path_6415" data-name="Path 6415" d="M508.807-411.617a6.48,6.48,0,0,1,1.167-.259l.095-.013a4.406,4.406,0,0,1,1.154.065l.052.009a3.376,3.376,0,0,1,1.037.393l-7.068-4.109-.052-.026-.346-.177-.384-.13-.251-.056-.06-.022-.1-.026-.406-.039-.488-.009-.143.022-.108.013-.268.013-.631.143-.276.091-.229.082-.333.112-.989.5-28.079,16.2a12.153,12.153,0,0,0-2.381,1.849l-.32.341-.138.13-.315.354-.579.7-.467.644-.428.622-.372.6-.021.052v.009l-.3.54-.311.6-.294.626-.246.631-.246.674-.1.363-.026.078-.091.276-.207.821-.164.985a9.634,9.634,0,0,0-.1,1.391l.1,32.227c.009,2.242.8,3.815,2.078,4.558l7.064,4.122c-1.253-.739-2.061-2.316-2.07-4.563l-.086-32.227a12.006,12.006,0,0,1,.557-3.5l0-.039a16.815,16.815,0,0,1,1.512-3.457v0a17.335,17.335,0,0,1,2.208-2.986l.113-.125a12.229,12.229,0,0,1,2.7-2.173l28.079-16.215a7.006,7.006,0,0,1,1.309-.6l.251-.086" transform="translate(-150.214 517.563)" fill="#345eb2"/>
        <path id="Path_6417" data-name="Path 6417" d="M450.308-405.572l-9.786-5.677,4.424-2.566,9.79,5.682-4.429,2.562" transform="translate(-205.029 522.492)" fill="#c3cfdb"/>
        <g id="Group_435" data-name="Group 435" transform="translate(139.217 112.882)" clip-path="url(#clip-path-14)">
          <path id="Path_6419" data-name="Path 6419" d="M436.986-386.019l-8.061-4.683c-1.447-.853-2.343-2.638-2.35-5.195l8.053,4.683c0,2.553.9,4.352,2.357,5.195" transform="translate(-426.575 395.897)" fill="#8e3e00"/>
        </g>
        <path id="Path_6421" data-name="Path 6421" d="M478.609-414.747c-.029-5.159-3.684-7.2-8.143-4.629L438.5-400.922c-4.452,2.571-8.1,8.84-8.075,14v3.221l-1.312.761,1.319,1.909.036,8.708-1.433,3.7,1.436.832.053,17.569c0,5.156,3.677,7.2,8.135,4.629L470.63-364.05c4.455-2.574,8.093-8.836,8.078-13.992l-.1-36.706" transform="translate(-283.255 467.791)" fill="#f58025"/>
        <g id="Group_436" data-name="Group 436" transform="translate(179.154 42.623)" clip-path="url(#clip-path-15)">
          <path id="Path_6423" data-name="Path 6423" d="M449.607-416.793l-8.057-4.683a9.589,9.589,0,0,1,1.134-.562l8.061,4.683a8.411,8.411,0,0,0-1.138.562" transform="translate(-441.55 422.584)" fill="#8e3e00"/>
          <path id="Path_6424" data-name="Path 6424" d="M450.036-417.15l-8.061-4.683.953-.327,8.054,4.683c-.309.089-.622.2-.946.327" transform="translate(-440.841 422.38)" fill="#8e3e00"/>
          <path id="Path_6425" data-name="Path 6425" d="M450.387-417.382l-8.054-4.683.722-.153,8.054,4.679-.722.156" transform="translate(-440.246 422.284)" fill="#8e3e00"/>
          <path id="Path_6426" data-name="Path 6426" d="M450.657-417.5l-8.054-4.679.6-.064,8.046,4.683-.6.06" transform="translate(-439.794 422.244)" fill="#8e3e00"/>
          <path id="Path_6427" data-name="Path 6427" d="M450.877-417.559l-8.046-4.683h.533l8.053,4.694-.54-.011" transform="translate(-439.417 422.244)" fill="#8e3e00"/>
          <path id="Path_6428" data-name="Path 6428" d="M451.084-417.548l-8.053-4.694.491.064,8.053,4.679-.491-.05" transform="translate(-439.083 422.244)" fill="#8e3e00"/>
          <path id="Path_6429" data-name="Path 6429" d="M451.268-417.538l-8.053-4.679.462.1,8.039,4.686-.448-.11" transform="translate(-438.777 422.284)" fill="#8e3e00"/>
          <path id="Path_6430" data-name="Path 6430" d="M451.427-417.492l-8.039-4.686.413.156,8.057,4.686-.43-.157m.43.157-8.057-4.686.416.2,8.05,4.686-.409-.2" transform="translate(-438.488 422.349)" fill="#8e3e00"/>
          <path id="Path_6431" data-name="Path 6431" d="M451.748-417.36l-8.05-4.686.043.025,8.064,4.683-.057-.021" transform="translate(-437.97 422.569)" fill="#8e3e00"/>
        </g>
        <path id="Path_6433" data-name="Path 6433" d="M434.695-347.993l-8.054-4.683-.107-36.709,8.061,4.693.1,36.7m7.975-50.7-8.068-4.676,31.976-18.461,8.057,4.683L442.67-398.69" transform="translate(-287.424 465.558)" fill="#8e3e00"/>
        <g id="Group_437" data-name="Group 437" transform="translate(139.109 62.192)" clip-path="url(#clip-path-16)">
          <path id="Path_6435" data-name="Path 6435" d="M434.6-403.982l-8.061-4.693a8.873,8.873,0,0,1,.107-1.579l8.054,4.69a12.615,12.615,0,0,0-.1,1.582" transform="translate(-426.535 422.656)" fill="#8e3e00"/>
          <path id="Path_6436" data-name="Path 6436" d="M434.628-404.286l-8.054-4.69a8.921,8.921,0,0,1,.185-1.123l8.064,4.686c-.089.377-.142.747-.2,1.127m.2-1.127L426.76-410.1l.235-.921,8.039,4.683-.21.924" transform="translate(-426.467 421.378)" fill="#8e3e00"/>
          <path id="Path_6437" data-name="Path 6437" d="M434.771-405.817l-8.039-4.683.252-.832,8.05,4.686-.263.829" transform="translate(-426.205 420.858)" fill="#8e3e00"/>
          <path id="Path_6438" data-name="Path 6438" d="M434.877-405.277l-8.05-4.686.27-.761,8.05,4.679-.27.768m.27-.768-8.05-4.679.288-.732,8.064,4.686-.3.725m.3-.725-8.064-4.686.32-.7,8.071,4.683-.327.7" transform="translate(-426.047 419.489)" fill="#8e3e00"/>
          <path id="Path_6439" data-name="Path 6439" d="M435.227-406.611l-8.071-4.683.359-.686,8.057,4.679-.345.69m.345-.69-8.057-4.679.377-.69,8.064,4.69-.384.679" transform="translate(-425.498 418.629)" fill="#8e3e00"/>
          <path id="Path_6440" data-name="Path 6440" d="M435.5-407.555l-8.064-4.69.42-.679,8.05,4.679-.405.69" transform="translate(-425.038 418.204)" fill="#8e3e00"/>
          <path id="Path_6441" data-name="Path 6441" d="M435.639-407.345l-8.05-4.679.473-.7,8.057,4.683-.48.7m.48-.7-8.057-4.683.533-.736,8.071,4.683-.548.736" transform="translate(-424.776 417.304)" fill="#8e3e00"/>
          <path id="Path_6442" data-name="Path 6442" d="M436.038-408.281l-8.071-4.683.661-.8,8.061,4.683-.651.8" transform="translate(-424.147 416.804)" fill="#8e3e00"/>
          <path id="Path_6443" data-name="Path 6443" d="M436.275-408.492l-8.061-4.683a12.432,12.432,0,0,1,.889-.942l8.064,4.683c-.306.3-.6.612-.892.942" transform="translate(-423.734 416.215)" fill="#8e3e00"/>
          <path id="Path_6444" data-name="Path 6444" d="M436.612-408.124l-8.064-4.683a13.259,13.259,0,0,1,2.7-2.1l8.068,4.676a13.649,13.649,0,0,0-2.7,2.1" transform="translate(-423.178 414.904)" fill="#8e3e00"/>
        </g>
        <path id="Path_6447" data-name="Path 6447" d="M507.461-421.938l19.7,11.376.009-3.742-19.684-11.372Zm-.147,53.5,19.7,11.376.009-3.75-19.689-11.367Zm.177-61.926,19.693,11.372.013-3.759-19.688-11.363Zm-.151,53.488L527.02-365.5l.022-3.75-19.693-11.367Zm.017-9.242,19.693,11.363.091-31.414-19.693-11.367Zm23.7,33.419,15.588,9,.186-67.581-15.584-9Zm21.3,13.242c-.009,3.111-2.195,4.372-4.9,2.8l-40.907-23.62a10.765,10.765,0,0,1-4.9-8.447l.229-75.414,50.7,29.267-.22,75.414" transform="translate(-68.075 454.557)" fill="#d7e9ff"/>
        <path id="Path_6448" data-name="Path 6448" d="M517.188-438.71c-1.257-.722-2.281-.134-2.281,1.279a4.95,4.95,0,0,0,2.264,3.9c1.231.709,2.26.151,2.26-1.287a5,5,0,0,0-2.243-3.888" transform="translate(-38.373 466.023)" fill="#ffb420"/>
        <path id="Path_6449" data-name="Path 6449" d="M514.893-440.015c-1.231-.726-2.251-.143-2.251,1.275a4.9,4.9,0,0,0,2.238,3.884c1.253.73,2.272.173,2.281-1.27a4.947,4.947,0,0,0-2.268-3.889" transform="translate(-43.448 463.09)" fill="#ff66a8"/>
        <path id="Path_6450" data-name="Path 6450" d="M503.415-379.118l-.017,3.75,19.7,11.376v-3.75l-19.68-11.376m.017-8.429-.009,3.741L523.1-372.43l.022-3.75-19.693-11.367m.1-36.919-.091,31.419,19.693,11.363.091-31.414-19.693-11.367m.035-8.14-.022,3.737,19.7,11.376.009-3.742-19.684-11.372m.026-8.438-.017,3.75,19.693,11.372.013-3.759-19.688-11.363" transform="translate(-64.158 461.487)" fill="#91a2c5"/>
        <path id="Path_6451" data-name="Path 6451" d="M546.715-414.863c1.231.709,2.26.151,2.26-1.287a5,5,0,0,0-2.243-3.888c-1.257-.722-2.281-.134-2.281,1.279A4.95,4.95,0,0,0,546.715-414.863Zm-7.367-4.256c1.253.73,2.273.173,2.281-1.27a4.947,4.947,0,0,0-2.268-3.889c-1.231-.726-2.251-.143-2.251,1.275A4.9,4.9,0,0,0,539.348-419.118Zm8.209-3.94a10.709,10.709,0,0,1,4.874,8.451l-.013,6.943-50.7-29.267.017-6.952c.009-3.106,2.2-4.364,4.912-2.791l40.907,23.616" transform="translate(-67.916 447.352)" fill="#bbd2ff"/>
        <path id="Path_6452" data-name="Path 6452" d="M510.916-436.774l-.19,67.581,15.589,9,.186-67.581-15.584-9" transform="translate(-47.741 471.052)" fill="#ee1696"/>
        <g id="Group_438" data-name="Group 438" transform="translate(399.444 207.405)" clip-path="url(#clip-path-7)">
          <path id="Path_6453" data-name="Path 6453" d="M533.622-333.947c-10.909,0-21.81-2.407-30.11-7.233-16.608-9.652-16.513-25.288.2-34.927,8.352-4.826,19.278-7.241,30.188-7.241s21.81,2.415,30.105,7.241c16.621,9.648,16.535,25.275-.194,34.927-8.347,4.822-19.274,7.233-30.192,7.233" transform="translate(-491.117 383.348)" fill="url(#linear-gradient-3)"/>
        </g>
        <path id="Path_6455" data-name="Path 6455" d="M507.767-378.157c.238.052,11.735-.307,9.177,3.694a6.505,6.505,0,0,1-5.7,3.1c-1.724.043-4.865-.9-5.642-.419-.791.462-4.683,2.986-6.909.449a3.7,3.7,0,0,1-.467-2.925c.294-.942,8.278-4.117,9.54-3.9" transform="translate(-76.006 602.36)" fill="#5bb0ff"/>
        <path id="Path_6456" data-name="Path 6456" d="M516.908-375.291a6.505,6.505,0,0,1-5.7,3.1c-1.724.043-4.865-.9-5.642-.419-.791.462-4.683,2.986-6.909.449a2.712,2.712,0,0,1-.531-1.447c1.556,2.156,5.388,1.564,6.446.851a6.368,6.368,0,0,1,4.467-.916c1.495.289,4.77-.048,6.412-1.538a2.42,2.42,0,0,0,.739-2.588,1.563,1.563,0,0,1,.717,2.506" transform="translate(-75.97 603.188)" fill="#3d93ff"/>
        <path id="Path_6457" data-name="Path 6457" d="M513.575-375.6c8.252-1.084,16.919.264,13.713,4.489a8.6,8.6,0,0,1-7.185,3.206c-2.195.03-6.213-1.015-7.2-.523s-5.906,3.1-8.779.38c-.583-.566-1.486-2.968-1.132-3.975s8.952-3.366,10.585-3.577" transform="translate(-65.253 607.306)" fill="#5bb0ff"/>
        <path id="Path_6458" data-name="Path 6458" d="M500.354-404.894s-6.217,12.106.225,28.826c0,0,4.93,14.137,3.841,18.859-1.3,5.677-3.232,4.07-4.619,22.843-1.223,16.582-1.141,13.964-.868,20.052.082,1.931,7.85,3.573,9.09-1.275,3.2-12.4,10.918-38.344,9.5-53.35s-2.316-29.055-2.316-29.055-9.911-2.627-14.854-6.9" transform="translate(-77.023 542.479)" fill="#223a7a"/>
        <path id="Path_6459" data-name="Path 6459" d="M501.251-402.732S497.6-389.624,507.33-375.4c0,0,7.332,16,6.325,21.361C512.61-348.5,510.83-348.96,508.92-332c-1.2,10.788-1.97,13.515-1.11,20.453.32,2.571,10.2,2.8,10.771-.808,2-12.59,11.415-39.68,10.015-54.693-1.422-15.014-4.442-31.916-4.442-31.916s-16.375-.138-22.9-3.767" transform="translate(-70.475 547.322)" fill="#2c4481"/>
        <path id="Path_6460" data-name="Path 6460" d="M527.1-372.1a8.6,8.6,0,0,1-7.185,3.206c-2.195.03-6.213-1.015-7.2-.523s-5.906,3.1-8.779.38a4.512,4.512,0,0,1-.946-1.9c2.013,2.32,7.111,2.1,8.447,1.344a9.25,9.25,0,0,1,5.668-.89c1.91.328,6.083,0,8.14-1.542a3.733,3.733,0,0,0,1.365-3.491c1.288.6,1.422,2.191.492,3.417" transform="translate(-65.069 608.294)" fill="#3d93ff"/>
        <path id="Path_6461" data-name="Path 6461" d="M524.283-369.371c1.4,15.014-8.015,42.1-10.015,54.693-.264,1.629-2.424,2.484-4.744,2.674,4.139-11.117,10.5-43.59,11.393-48.208.972-5.133,2.886-24.229-4.485-26.947S502.5-399.143,502.5-399.143L512-401.7c4.372.376,7.842.41,7.842.41s3.02,16.9,4.442,31.916" transform="translate(-66.163 549.643)" fill="#223a7a"/>
        <path id="Path_6462" data-name="Path 6462" d="M514.295-419.385s5.9-4.433,9.626-2.376,3.992,3.029,1.983,3.465c-2.035.423-7.414,1.737-6.671,2.294.769.544,2.756.786,2.307,1.478s-6.407-.216-6.407-.216l-3.309-3.089,2.471-1.555" transform="translate(-45.282 503.47)" fill="#ffaa83"/>
        <path id="Path_6463" data-name="Path 6463" d="M504.622-411.476s-6.973-.285-7.008,6.8c-.039,7.5,14.8,4.77,14.8,4.77s12.841-1.292,16.8-2.925c5.293-2.182,18.872-13.1,18.872-13.1s-1.046-4.342-4.044-5.409c0,0-12.854,8.758-17.766,9.808-5.353,1.149-20.488-.194-21.654.056" transform="translate(-77.117 505.632)" fill="#4067b1"/>
        <path id="Path_6464" data-name="Path 6464" d="M530.976-402.2s1.711-7.98-11.626-12.763-21.559-4.614-21.728,2.834,3.275,17.373,3.754,20.725c.389,2.648,2.986,4.99-.25,12.711-3.188,7.63-7.656,14.011,12.923,18.2,3.634.73,19.6,2.195,17.649-6.377-2.428-10.7-2.255-26.48-.721-35.333" transform="translate(-77.115 512.671)" fill="#5f92d3"/>
        <path id="Path_6465" data-name="Path 6465" d="M512.27-418.033s-1.383,5.647,1.365,9.073c1.478,1.854-4.45,3.793-9.224,1.348,0,0-.428-9.652-3.966-13.013l11.825,2.592" transform="translate(-70.775 507.233)" fill="#ffaa83"/>
        <path id="Path_6466" data-name="Path 6466" d="M509.011-417.491a21.338,21.338,0,0,1-5.336-1.568l-.22.143-1.072,1.551-.631-.89s1.089,5.867,8.192,4.6a12.891,12.891,0,0,1-.933-3.832" transform="translate(-67.844 510.743)" fill="#f79f7c"/>
        <path id="Path_6467" data-name="Path 6467" d="M515.216-425.831s4.593,1.037,5.681,8.131c1.046,6.74,3.15,12.547-.177,15.463-3.374,2.955-15.809,2.2-19.879-6.386s1.957-21.119,14.374-17.209" transform="translate(-72.718 493.921)" fill="#ffaa83"/>
        <path id="Path_6468" data-name="Path 6468" d="M523.959-417.611a4.973,4.973,0,0,1-2.865,4.2c-3.042,1.253-6.654,1.1-6.982,3.167-.337,2.048-2.216,4.463,4.251,15.869,2.031,3.551-12.309,6.018-17.33-1.18-1.655-2.355-3.919-17.282.1-25.923a11.113,11.113,0,0,1,11.423-5.453s12.158.842,11.4,9.315" transform="translate(-74.272 492.821)" fill="#3a2528"/>
        <path id="Path_6469" data-name="Path 6469" d="M503.77-416.734c1.482,1.443,3.456,1.763,4.42.7s.527-3.068-.963-4.528c-1.491-1.434-3.465-1.754-4.42-.691-.946,1.046-.51,3.076.964,4.515m45.413,48.649s7.124,2,9.847-1.27c2.722-3.288,2.609-4.29.575-3.945-2.044.328-7.539,1.071-7.029.289s2.264-1.745,1.6-2.216-5.88,2.536-5.88,2.536l-1.962,4.074,2.852.531" transform="translate(-66.604 504.427)" fill="#ffaa83"/>
        <path id="Path_6470" data-name="Path 6470" d="M515.195-412.909s-3.841-5.794-9.4-1.266c-5.867,4.783,4.9,14.936,4.9,14.936s8.481,9.488,12.063,11.622c4.77,2.847,21.2,6.744,21.2,6.744s2.8-3.621,1.88-6.723c0,0-14.314-4.7-17.995-7.975-4.018-3.564-11.765-16.565-12.651-17.338" transform="translate(-62.704 517.81)" fill="#4067b1"/>
        <path id="Path_6473" data-name="Path 6473" d="M20161.893-12634.549s2.7,17.781-6.574,21.789-13.291-12.148-13.291-12.148" transform="translate(-19809 12752.162)" fill="none" stroke="#fff" stroke-linecap="round" stroke-width="3"/>
        <path id="Path_6474" data-name="Path 6474" d="M500.4-410.854c-.01-3.494-2.5-4.884-5.514-3.141l-21.667,12.512A12.082,12.082,0,0,0,467.743-392l.007,2.177-.89.513.9,1.3.013,5.908-.97,2.507.98.553.03,11.909c.02,3.5,2.487,4.884,5.518,3.131l21.661-12.5a12.089,12.089,0,0,0,5.468-9.478l-.06-24.868" transform="translate(-337.496 599.467)" fill="#4267c5"/>
        <path id="Path_6475" data-name="Path 6475" d="M498.8-412.621a5,5,0,0,1,.9-.2l.073-.01a3.4,3.4,0,0,1,.89.05l.04.007a2.6,2.6,0,0,1,.8.3l-5.454-3.171-.04-.02-.267-.137-.3-.1-.193-.043-.047-.017-.08-.02-.313-.03-.377-.007-.11.017-.083.01-.207.01-.487.11-.213.07-.177.063-.257.087-.763.387-21.668,12.5a9.38,9.38,0,0,0-1.837,1.427l-.247.263-.107.1-.243.273-.447.54-.36.5-.33.48-.287.463-.017.04v.007l-.233.417-.24.463-.227.483-.19.487-.19.52-.073.28-.02.06-.07.213-.16.633-.127.76a7.435,7.435,0,0,0-.08,1.074l.08,24.868a3.846,3.846,0,0,0,1.6,3.517l5.451,3.181a3.878,3.878,0,0,1-1.6-3.521l-.067-24.868a9.264,9.264,0,0,1,.43-2.7l0-.03a12.974,12.974,0,0,1,1.167-2.667v0a13.378,13.378,0,0,1,1.7-2.3l.087-.1a9.437,9.437,0,0,1,2.08-1.677L497.6-412.091a5.4,5.4,0,0,1,1.01-.463l.193-.067" transform="translate(-340.215 597.563)" fill="#345eb2"/>
        <path id="Path_6476" data-name="Path 6476" d="M20157.357-12634.549s2.08,13.722-5.074,16.814-10.256-9.375-10.256-9.375" transform="translate(-20003.168 12828.494)" fill="none" stroke="#fff" stroke-linecap="round" stroke-width="3"/>
      </g>
      <path id="Path_6472" data-name="Path 6472" d="M20165.652-12634.546s3.207,21.147-7.82,25.914-15.8-14.448-15.8-14.448" transform="translate(-52.553 -20.344)" fill="none" stroke="#fcfafa" stroke-linecap="round" stroke-width="4"/>
    </g>
  </g>
</svg>
