<svg xmlns="http://www.w3.org/2000/svg" xmlns:xlink="http://www.w3.org/1999/xlink" width="660.991" height="456.122" viewBox="0 0 660.991 456.122">
  <defs>
    <clipPath id="clip-path">
      <path id="path520" d="M365.207-321.373l-12.39,7.154v-14.307l12.39-7.154Z" transform="translate(-352.816 335.679)"/>
    </clipPath>
    <radialGradient id="radial-gradient" cx="0.651" cy="0.742" r="0.861" gradientTransform="translate(8.573 11.381) scale(1.732 1)" gradientUnits="objectBoundingBox">
      <stop offset="0" stop-color="#2e4b8d"/>
      <stop offset="1" stop-color="#263c7b"/>
    </radialGradient>
    <clipPath id="clip-path-2">
      <path id="path536" d="M335.087-338.761l-12.39-7.154,12.39-7.153,12.39,7.154Z" transform="translate(-322.697 353.068)"/>
    </clipPath>
    <linearGradient id="linear-gradient" x1="-5.357" y1="10.152" x2="-5.355" y2="10.152" gradientUnits="objectBoundingBox">
      <stop offset="0" stop-color="#d9effb"/>
      <stop offset="1" stop-color="#8dbae5"/>
    </linearGradient>
    <clipPath id="clip-path-3">
      <path id="path552" d="M335.087-314.219l-12.39-7.154v-14.306l12.39,7.154Z" transform="translate(-322.697 335.679)"/>
    </clipPath>
    <radialGradient id="radial-gradient-2" cx="0.11" cy="0.2" r="1.555" gradientTransform="translate(7.841 12.467) scale(1.732 1)" gradientUnits="objectBoundingBox">
      <stop offset="0" stop-color="#6f9cd6"/>
      <stop offset="1" stop-color="#4067b1"/>
    </radialGradient>
    <clipPath id="clip-path-4">
      <path id="path782" d="M521.44-137.18a12.717,12.717,0,0,0-5.907,1.549L504.053-129l-35.635-.021v16.33a3.2,3.2,0,0,0,1.892,2.952l46.016,26.568a9.968,9.968,0,0,0,5.113,1.092Z"/>
    </clipPath>
    <radialGradient id="radial-gradient-3" cx="0.604" cy="0.592" r="1.056" gradientTransform="translate(0.346 3.793) scale(1.039 1)" xlink:href="#radial-gradient-2"/>
    <clipPath id="clip-path-5">
      <path id="path802" d="M516.327-99.444l-46.016-26.567c-2.824-1.63-2.469-4.48.791-6.363l44.432-25.652c3.261-1.883,8.195-2.087,11.019-.457l46.016,26.568c2.825,1.631,2.471,4.477-.791,6.361L527.345-99.9c-3.261,1.883-8.195,2.086-11.019.456Z"/>
    </clipPath>
    <linearGradient id="linear-gradient-2" x1="-4.416" y1="2.606" x2="-4.415" y2="2.606" gradientUnits="objectBoundingBox">
      <stop offset="0" stop-color="#d9effb"/>
      <stop offset="0.842" stop-color="#8dbae5"/>
      <stop offset="1" stop-color="#8dbae5"/>
    </linearGradient>
    <clipPath id="clip-path-6">
      <path id="path466" d="M720.19-113.572,690.07-96.183v-34.779l30.12-17.389Z"/>
    </clipPath>
    <radialGradient id="radial-gradient-4" cx="0.651" cy="0.743" r="0.861" gradientTransform="translate(16.769 4.2) scale(1.732 1)" xlink:href="#radial-gradient"/>
    <clipPath id="clip-path-7">
      <path id="path482" d="M690.07-130.961,659.952-148.35l30.117-17.389,30.12,17.389Z"/>
    </clipPath>
    <linearGradient id="linear-gradient-3" x1="-10.956" y1="4.766" x2="-10.954" y2="4.766" xlink:href="#linear-gradient"/>
    <clipPath id="clip-path-8">
      <path id="path498" d="M690.07-96.183l-30.119-17.389V-148.35l30.119,17.389Z"/>
    </clipPath>
    <radialGradient id="radial-gradient-5" cx="0.11" cy="0.2" r="1.555" gradientTransform="translate(16.039 5.286) scale(1.732 1)" xlink:href="#radial-gradient-2"/>
  </defs>
  <g id="Group_468" data-name="Group 468" transform="translate(-683 -274.507)">
    <rect id="Rectangle_59" data-name="Rectangle 59" width="407" height="221" transform="translate(909 287)" fill="#fff"/>
    <g id="Group_128" data-name="Group 128" transform="translate(100 120)">
      <path id="Path_3734" data-name="Path 3734" d="M715.75-327.3l-1.311-.756-.167-.1-23.5-13.57,23.5,13.57,38.759-22.377-38.759-22.377-38.758,22.377-1.476-.853,40.234-23.23,41.712,24.083L715.75-327.3m-2.953,0-19.38-11.189L712.8-327.3m-77.515,0h0l14-8.081-14,8.081m-1.477-.853-38.76-22.377h0l-1.295-.747-.183-.107L633.8-374.615l.368.215,39.867,23.015-1.476.853L633.8-372.908l-38.758,22.375L633.8-328.156l26.767-15.453L633.8-328.156" transform="translate(488 658.32)" fill="#d6effb"/>
      <path id="Path_3735" data-name="Path 3735" d="M675.515-304.071l16.969-9.8-16.969,9.8m-2.953,0-21.925-12.66,21.925,12.66m1.477-.853-19.38-11.189,19.38,11.189,25.481-14.712-25.481,14.712M715.75-327.3l-1.108-.64-.2-.116,1.311.756m-2.953,0-19.38-11.189-19.378-11.188-24.762,14.294-14,8.081-1.476-.853,26.767-15.453,11.99-6.922,1.477-.853,1.476.853,15.254,8.806,23.5,13.57-1.476.853" transform="translate(488 658.32)" fill="#d6effb"/>
      <path id="Path_3736" data-name="Path 3736" d="M715.751-280.841h0l-1.293-.748-.184-.105-38.759-22.377-1.329-.768-.147-.085,25.481-14.712L712.8-327.3l1.476-.853.167.1.2.116,1.108.64,40.236,23.23-40.235,23.23m-40.236-23.23,38.759,22.377,38.759-22.377-38.76-22.377-21.789,12.58-16.969,9.8M554.81-327.3l23.5-13.57-23.5,13.57m-1.477-.853-38.759-22.377-1.3-.748-.18-.105,40.234-23.23.369.215,39.867,23.015-1.477.853-38.759-22.377-38.758,22.377,38.759,22.377,19.38-11.188-19.378,11.188h0m41.711-22.377-1.108-.639-.185-.108,1.295.747" transform="translate(488 658.32)" fill="#d6effb"/>
      <path id="Path_3737" data-name="Path 3737" d="M595.046-304.072l19.378-11.189-19.378,11.189m-1.477-.853L554.81-327.3l-1.187-.685-.289-.168,19.378-11.188,19.378-11.189,1.477-.853.183.107.185.108,1.108.639L633.8-328.156l-1.476.853-38.759-22.377-15.254,8.806-23.5,13.57,38.759,22.377,16.969-9.8-16.969,9.8" transform="translate(488 658.32)" fill="#d6effb"/>
      <path id="Path_3738" data-name="Path 3738" d="M635.283-280.842h0l19.378-11.188-19.377,11.189m-1.477-.853-38.76-22.377h0l-1.248-.72-.229-.133,16.969-9.8,21.789-12.58,1.477-.853,1.476.853h0l19.378,11.189,19.378,11.189-1.476.853-21.925-12.66-16.833-9.72-19.38,11.189-19.378,11.189L633.805-281.7l13.532-7.813L633.805-281.7m41.71-22.375-1.108-.64-.221-.128,1.329.768" transform="translate(488 658.32)" fill="#d6effb"/>
      <path id="Path_3739" data-name="Path 3739" d="M675.518-257.614h0l26.767-15.453-26.766,15.453m-2.955,0L653.185-268.8l19.378,11.188m1.476-.852-23.5-13.57,23.5,13.57,13.934-8.045-13.934,8.045m41.71-22.375-1.107-.64-.185-.108,1.293.748m-2.953,0-38.759-22.378-19.38,11.188-19.378,11.188-1.476-.852,13.532-7.813,25.225-14.562,1.477-.853.147.085.221.128,1.108.64,38.759,22.377-1.476.852" transform="translate(488 658.32)" fill="#d6effb"/>
      <path id="Path_3740" data-name="Path 3740" d="M715.753-234.382l-1.22-.7-.257-.148L690.1-249.194l24.177,13.96,38.759-22.378-38.76-22.377-11.99,6.922-26.767,15.453-1.476-.852,13.934-8.045L712.8-280.842l1.476-.852.184.105.185.108,1.107.64h0l40.235,23.229-40.234,23.23m-2.955,0-12.754-7.364,12.756,7.364h0M474.34-327.3h0L495.7-339.636,474.34-327.3m-1.477-.853L434.1-350.534h0l-1.344-.776-.133-.077,40.235-23.229,40.235,23.23-1.476.853-38.759-22.378L434.1-350.534l38.759,22.377,14-8.081-14,8.081m41.711-22.375-1.108-.639-.188-.109,1.3.748" transform="translate(488 658.32)" fill="#d6effb"/>
      <path id="Path_3741" data-name="Path 3741" d="M514.575-304.072l15.254-8.808-15.254,8.808m-2.953,0-12.756-7.365,12.756,7.365m1.477-.853-26-15.013,26,15.013,19.378-11.189L513.1-304.926M554.81-327.3l-1.108-.64-.079-.045,1.187.685m-2.953,0L513.1-349.679l-17.4,10.044L474.339-327.3l-1.476-.853,14-8.081,24.761-14.294,1.477-.853.18.105.188.109,1.108.639,38.759,22.377-1.476.853" transform="translate(488 658.32)" fill="#d6effb"/>
      <path id="Path_3742" data-name="Path 3742" d="M554.811-280.844l25.481-14.71-25.481,14.712m-1.477-.853-38.759-22.377-1.276-.737-.2-.116,19.378-11.189,19.38-11.188,1.476-.853h0l.289.168.079.045,1.108.64,38.759,22.377-1.477.853L553.333-326.45l-23.5,13.57-15.254,8.808L553.334-281.7l13.278-7.666L553.334-281.7m41.711-22.377-1.107-.64-.14-.08,1.248.72" transform="translate(488 658.32)" fill="#d6effb"/>
      <path id="Path_3743" data-name="Path 3743" d="M595.048-257.614,614.426-268.8l-19.378,11.188m-1.477-.852-38.76-22.377h0l-1.344-.775-.133-.077,13.278-7.666,25.479-14.71,1.477-.853.229.133.14.08,1.107.64,38.76,22.377-1.477.852L593.569-303.22l-13.277,7.666-25.481,14.71,38.759,22.378,19.38-11.189-19.38,11.189" transform="translate(488 658.32)" fill="#d6effb"/>
      <path id="Path_3744" data-name="Path 3744" d="M635.281-234.383l16.969-9.8-16.968,9.8m-2.955,0L612.95-245.571l19.378,11.188m1.477-.852-19.38-11.189,19.38,11.189,19.38-11.189-19.38,11.189m38.758-22.378L653.185-268.8l-19.38-11.189L614.426-268.8l-19.38,11.188-1.476-.852,19.38-11.189,19.378-11.189,1.477-.852,1.476.852h0l15.253,8.806,23.5,13.57-1.476.852" transform="translate(488 658.32)" fill="#d6effb"/>
      <path id="Path_3745" data-name="Path 3745" d="M675.519-211.153h0l21.359-12.33-21.358,12.33m-1.479-.852-38.759-22.378-1.367-.789-.109-.063,19.38-11.189,19.378-11.189,1.477-.852,1.476.852h0l14.581,8.42,24.177,13.96-1.476.852-12.756-7.364-26-15.014-21.79,12.58-16.969,9.8,38.76,22.377,19.378-11.188-19.378,11.189h0m41.711-22.375-1.108-.639-.112-.065,1.22.7" transform="translate(488 658.32)" fill="#d6effb"/>
      <path id="Path_3746" data-name="Path 3746" d="M715.754-187.922h0l-1.379-.8-.1-.057-12.756-7.364,12.756,7.364,38.759-22.377-38.76-22.377-17.4,10.045-21.359,12.33-1.476-.853,19.378-11.188L712.8-234.382h0l1.476-.852.257.148.112.065,1.108.639,40.235,23.23-40.234,23.23m-2.955,0-19.378-11.189,19.38,11.189h0M393.869-327.3l19.378-11.189L393.869-327.3m-1.477-.853-38.759-22.377-1.379-.8-.1-.057,40.234-23.229.369.213,39.867,23.015-1.476.853-38.76-22.377-38.758,22.377,38.759,22.377,19.38-11.188-19.38,11.188M434.1-350.534,433-351.173l-.236-.137,1.344.776" transform="translate(488 658.32)" fill="#d6effb"/>
      <path id="Path_3747" data-name="Path 3747" d="M434.105-304.074l19.378-11.189-19.378,11.189m-1.477-.853L393.869-327.3l-1.344-.776-.133-.077,19.38-11.188,19.38-11.189,1.476-.853.133.077.236.137,1.107.639,38.76,22.377-1.477.853-38.759-22.377-19.38,11.188L393.869-327.3l38.759,22.377,25.481-14.712-25.481,14.712" transform="translate(488 658.32)" fill="#d6effb"/>
      <path id="Path_3748" data-name="Path 3748" d="M446.55-296.889,434.1-304.074h0l-1.295-.747-.183-.107,25.481-14.712,13.277-7.665,1.477-.853,1.476.853h0l12.754,7.365,26,15.013-1.476.853-12.756-7.365-26-15.013-19.38,11.188-19.378,11.189,12.445,7.185m68.025-7.184-1.108-.64-.168-.1,1.276.737" transform="translate(488 658.32)" fill="#d6effb"/>
      <path id="Path_3749" data-name="Path 3749" d="M535.235-271.245l2.688-1.552-2.688,1.552m19.576-9.6-1.107-.64-.236-.136,1.344.775m-2.953,0L513.1-303.22l-16.624,9.6L495-294.475l16.624-9.6,1.477-.853.2.116.168.1,1.108.64L553.334-281.7l-1.476.852" transform="translate(488 658.32)" fill="#d6effb"/>
      <path id="Path_3750" data-name="Path 3750" d="M592.095-257.614l-38.76-22.377-16.624,9.6-1.476-.852,2.688-1.552,13.936-8.046,1.476-.852.133.077.236.136,1.107.64,38.76,22.377-1.477.852" transform="translate(488 658.32)" fill="#d6effb"/>
      <path id="Path_3751" data-name="Path 3751" d="M615.7-224.785l3.347-1.932-3.347,1.932m19.577-9.6-1.108-.639-.259-.151,1.367.789m-2.953,0L612.95-245.571,593.57-256.76l-16.624,9.6-1.476-.852,16.622-9.6,1.477-.852,1.477.852,19.378,11.189,19.38,11.189-1.477.852" transform="translate(488 658.32)" fill="#d6effb"/>
      <path id="Path_3752" data-name="Path 3752" d="M644.564-193.282l4-2.307-4,2.307m1.3-2.455s0,0,0,0l9.732-5.619-9.733,5.62m26.7-15.417L633.806-233.53l-16.624,9.6-1.477-.852,3.347-1.932,13.277-7.666,1.477-.852.109.063.259.151,1.108.639,38.759,22.378-1.476.852" transform="translate(488 658.32)" fill="#d6effb"/>
      <path id="Path_3753" data-name="Path 3753" d="M675.519-164.693l17.4-10.045-17.4,10.045m-1.477-.853-26.269-15.165h0l26.27,15.166,24.822-14.33-24.822,14.33m41.71-22.375-1.107-.64-.271-.156,1.379.8m-2.953,0-19.38-11.189L674.042-210.3l-25.481,14.712-4,2.307a6.078,6.078,0,0,0,1.3-2.455l9.733-5.62,16.969-9.8,1.477-.853,1.476.853h0l26,15.014,12.756,7.364-1.476.853" transform="translate(488 658.32)" fill="#d6effb"/>
      <path id="Path_3754" data-name="Path 3754" d="M715.755-141.463l-1.477-.853-38.759-22.377-1.187-.685-.289-.168,24.822-14.33,13.934-8.045h0l1.476-.853.1.057.271.156,1.107.64h0l40.235,23.23-40.234,23.229m-40.236-23.23,38.759,22.377,38.759-22.375-38.76-22.377-21.358,12.33-17.4,10.045M313.4-327.305l14-8.081-14,8.081m-2.953,0-40.235-23.23,41.711-24.083,40.236,23.231-1.477.853L311.92-372.912l-38.758,22.377,38.759,22.377,26.767-15.453-26.767,15.453-1.477.853m43.188-23.229-1.108-.639-.271-.157,1.379.8" transform="translate(488 658.32)" fill="#d6effb"/>
      <path id="Path_3755" data-name="Path 3755" d="M353.635-304.075h0l17.4-10.045-17.4,10.045m-1.479-.853L312.29-327.945l-.368-.213,26.767-15.453,11.99-6.922,1.477-.853.1.057.271.157,1.108.639,38.759,22.377-1.476.853-38.759-22.377L327.4-335.386l-14,8.081,38.76,22.377,24.822-14.33-24.822,14.33M393.869-327.3l-1.108-.64-.236-.136,1.344.776" transform="translate(488 658.32)" fill="#d6effb"/>
      <path id="Path_3756" data-name="Path 3756" d="M393.87-280.844l17.173-9.916-17.173,9.916m-2.953,0-19.38-11.189,19.38,11.19h0m1.476-.852-19.38-11.189,19.38,11.189,19.38-11.189L392.394-281.7h0M434.1-304.074l-1.108-.64-.185-.107,1.295.747m-2.953,0-38.76-22.377-21.358,12.33-17.4,10.045-1.476-.853,24.822-14.33,13.936-8.045,1.476-.853.133.077.236.136,1.108.64,38.759,22.377-1.477.853" transform="translate(488 658.32)" fill="#d6effb"/>
      <path id="Path_3757" data-name="Path 3757" d="M406.309-273.663l-12.44-7.181h0l-1.276-.737-.2-.116,19.378-11.189,19.378-11.188,1.477-.853.183.107.185.107,1.108.64,12.446,7.185-1.477.852-12.445-7.185-21.585,12.462-17.173,9.916,12.438,7.181m228.976,132.2,15.254-8.808-15.254,8.808m-1.477-.853-7.177-4.144,7.178,4.144,19.378-11.189-19.378,11.189m41.711-22.377-1.108-.64-.079-.045,1.187.685m-2.953,0-24.647-14.23c.008-.129.013-.26.013-.391a6.159,6.159,0,0,0-.159-1.4l26.269,15.165-1.476.853" transform="translate(488 658.32)" fill="#d6effb"/>
      <path id="Path_3758" data-name="Path 3758" d="M675.52-118.235,697.105-130.7,675.52-118.233m-1.477-.854-38.759-22.377-1.247-.72-.229-.133,19.378-11.189,19.38-11.188,1.477-.853.289.168.079.045,1.108.64,38.759,22.377-1.476.853-38.759-22.378-23.5,13.57-15.254,8.808,38.76,22.377,13.277-7.666-13.277,7.666" transform="translate(488 658.32)" fill="#d6effb"/>
      <path id="Path_3759" data-name="Path 3759" d="M715.757-95v0h0l-1.344-.774-.133-.078L675.52-118.233h0l-1.344-.775-.132-.078,13.277-7.666,25.481-14.71,1.476-.853,1.477.853,40.235,23.23L715.757-95M675.52-118.235l38.759,22.378,38.759-22.377-38.76-22.378L697.105-130.7l-21.585,12.461M313.4-280.845l21.586-12.462L313.4-280.845m-2.955,0-40.235-23.229,40.234-23.23,1.477-.853.368.213,39.867,23.017-1.476.853-38.759-22.378-38.758,22.378L311.923-281.7l13.277-7.665L311.923-281.7l-1.477.852" transform="translate(488 658.32)" fill="#d6effb"/>
      <path id="Path_3760" data-name="Path 3760" d="M353.635-257.616l21.359-12.33-21.359,12.33m-1.477-.852-39.867-23.017-.368-.213,13.277-7.665,25.481-14.712,1.477-.853,1.476.853h0l19.378,11.189,19.38,11.189-1.476.852-19.38-11.189-19.38-11.189-17.173,9.916L313.4-280.845l38.76,22.377,14-8.081-14,8.081m41.71-22.375-1.107-.64-.168-.1,1.276.737" transform="translate(488 658.32)" fill="#d6effb"/>
      <path id="Path_3761" data-name="Path 3761" d="M353.635-257.616l-1.476-.852,14-8.081,24.761-14.3,1.476-.852h0l.2.116.168.1,1.107.64,12.44,7.181-1.477.852-12.438-7.181-17.4,10.045-21.359,12.33M595.049-118.235l25.481-14.71L595.05-118.233m-2.955,0-7.185-4.148h0l7.185,4.148h0m1.477-.852-7.185-4.148,7.185,4.148,13.277-7.666-13.277,7.666m41.711-22.377-1.108-.64-.139-.08,1.247.72m-2.953,0-7.178-4.145,1.477-.852,7.177,4.144-1.476.853" transform="translate(488 658.32)" fill="#d6effb"/>
      <path id="Path_3762" data-name="Path 3762" d="M635.285-95l19.38-11.188L635.285-95m-1.476-.852-38.76-22.377h0l-1.375-.793-.1-.059,13.277-7.666,25.481-14.71,1.477-.853.229.133.139.08,1.108.64,38.759,22.377-1.476.852-38.759-22.377-13.278,7.667-25.481,14.71,38.76,22.378,23.5-13.57-23.5,13.57m41.711-22.377-1.108-.64-.236-.136,1.344.775" transform="translate(488 658.32)" fill="#d6effb"/>
      <path id="Path_3763" data-name="Path 3763" d="M674.046-70.921h0m1.476-.853,21.789-12.58-21.789,12.58m-1.477-.852L635.285-95l-1.343-.774-.133-.078,23.5-13.57,15.254-8.808,1.477-.852.132.078.236.136,1.108.64L714.28-95.856,712.8-95l-38.759-22.377-19.38,11.189L635.286-95l38.76,22.378,19.378-11.189-19.38,11.189M715.755-95l-1.107-.639-.236-.136,1.344.774" transform="translate(488 658.32)" fill="#d6effb"/>
      <path id="Path_3764" data-name="Path 3764" d="M714.281-47.691l-.368-.215L674.046-70.921l1.476-.853-1.477-.852,19.38-11.189L712.8-95l1.476-.852.133.078.236.136,1.107.639v0l40.235,23.229L714.281-47.691M675.522-71.774,714.281-49.4,753.04-71.774,714.28-94.151l-16.969,9.8-21.789,12.58M313.4-234.386l19.38-11.188L313.4-234.386m-2.953,0-40.236-23.23,40.234-23.23,1.477-.852.368.213,39.867,23.017-1.476.852-38.759-22.377-38.758,22.377,38.759,22.378,23.5-13.57-23.5,13.57-1.476.852" transform="translate(488 658.32)" fill="#d6effb"/>
    </g>
    <g id="g516" transform="translate(912.305 401.51)">
      <g id="g518" transform="translate(0 0)" clip-path="url(#clip-path)">
        <path id="path530" d="M365.207-321.373l-12.39,7.154v-14.307l12.39-7.154v14.306" transform="translate(-352.816 335.679)" fill="url(#radial-gradient)"/>
      </g>
    </g>
    <g id="g532" transform="translate(899.914 394.356)">
      <g id="g534" transform="translate(0 0)" clip-path="url(#clip-path-2)">
        <path id="path546" d="M335.087-338.761l-12.39-7.154,12.39-7.153,12.39,7.154-12.39,7.153" transform="translate(-322.697 353.068)" fill="url(#linear-gradient)"/>
      </g>
    </g>
    <g id="g548" transform="translate(899.914 401.51)">
      <g id="g550" transform="translate(0 0)" clip-path="url(#clip-path-3)">
        <path id="path562" d="M335.087-314.219l-12.39-7.154v-14.306l12.39,7.154v14.307" transform="translate(-322.697 335.679)" fill="url(#radial-gradient-2)"/>
      </g>
    </g>
    <path id="path564" d="M337.01-310.888l-3.465-2v-4l3.465,2v4" transform="translate(570.832 726.129)" fill="#fff"/>
    <g id="Group_139" data-name="Group 139" transform="translate(278.039 -364.635)">
      <path id="path100" d="M563.159-130.04h0l19.38-11.188-19.38,11.188m-1.477-.852-21.287-12.291h0l21.287,12.291,19.38-11.189-19.379,11.189h0m41.712-22.377-1.107-.64-.236-.136,1.344.775m-2.953,0L579.1-165.589l1.475-.853,21.339,12.32-1.476.852" transform="translate(355.938 805.584)" fill="#d6effb"/>
      <path id="path102" d="M601.919-105.956h0m1.477-.853h0L622.774-118,603.4-106.809m-1.477-.852-38.76-22.379h0l-1.344-.774-.132-.078,19.379-11.189,19.38-11.189,1.476-.852h0l.133.077.236.136,1.107.64,38.761,22.377-1.477.852-38.76-22.377-19.379,11.189-19.38,11.188,38.76,22.379,23.505-13.571-23.505,13.571" transform="translate(355.938 805.584)" fill="#d6effb"/>
      <path id="path116" d="M521.447-105.956h0m1.476-.853h0l21.791-12.58-21.791,12.58m-2.953,0-26-15.014,26,15.014m1.477-.852-14.583-8.42,14.583,8.42,19.379-11.189-19.379,11.189m41.712-22.379-1.108-.639-.236-.136,1.344.774m-2.953,0L538.92-142.329l1.475-.853,21.287,12.291-1.476.852m-77.518,0-1.477-.852,19.283-11.132,1.476.852-1.883,1.087-17.4,10.045" transform="translate(355.938 805.584)" fill="#d6effb"/>
      <path id="path118" d="M561.683-82.725l-.368-.215-39.868-23.016h0l1.476-.852-1.476-.852,19.379-11.189,19.38-11.19,1.476-.852h0l.132.078.236.136,1.108.639,38.76,22.379,1.477.852-1.477.852h0L561.683-82.725m-38.76-24.084,38.76,22.378,38.76-22.378-38.761-22.377-16.968,9.8-21.791,12.58" transform="translate(355.938 805.584)" fill="#d6effb"/>
      <path id="path128" d="M481.211-82.726l-.368-.214-39.869-23.017h0l1.477-.854-1.477-.852,19.38-11.19,19.379-11.189,1.477-.852,1.477.852h0l24.177,13.96,14.583,8.42,1.476.852-1.476.852h0l-40.235,23.23m-38.76-24.084,38.76,22.378,38.759-22.376-26-15.014-12.756-7.365-23.5,13.571-15.255,8.806" transform="translate(355.938 805.584)" fill="#d6effb"/>
      <path id="path140" d="M599.188-144.594a8.6,8.6,0,0,1-3.892,6.743c-2.149,1.241-3.892.235-3.892-2.248a8.6,8.6,0,0,1,3.892-6.74c2.151-1.241,3.892-.236,3.892,2.245" transform="translate(355.938 805.584)" fill="#fff"/>
      <path id="path772" d="M516.327-52.557,470.311-79.125c-2.824-1.631-2.469-4.48.791-6.363l44.432-25.652c3.261-1.883,8.195-2.086,11.019-.457l46.016,26.568c2.825,1.63,2.471,4.479-.791,6.361L527.345-53.014c-3.261,1.883-8.195,2.086-11.019.457" transform="translate(355.938 805.584)" fill="#88c8ed"/>
      <path id="path774" d="M517.632-69.36c2.032,1.17,5.956.957,8.405-.457l44.432-25.654c1.117-.644,1.385-1.228,1.392-1.337a1.707,1.707,0,0,0-.6-.5l-46.019-26.568c-2.027-1.17-5.953-.957-8.4.457L472.408-97.764c-1.117.645-1.384,1.228-1.391,1.337a1.651,1.651,0,0,0,.6.5L517.633-69.36Zm3.5,5.989a12.372,12.372,0,0,1-6.116-1.463h0L469-91.4a5.858,5.858,0,0,1-3.213-5.027c0-2.256,1.459-4.393,4-5.861l44.433-25.652c4.111-2.376,9.969-2.573,13.631-.458l46.019,26.568a5.855,5.855,0,0,1,3.212,5.024c0,2.256-1.46,4.393-4.005,5.863L528.652-65.291a15.31,15.31,0,0,1-7.516,1.92" transform="translate(355.938 805.584)" fill="#fff"/>
      <path id="path776" d="M574.46-113.086h0v-15.876l-35.6-.021-12.305-7.1c-2.824-1.631-7.757-1.425-11.019.457L504.053-129l-35.635-.021v16.33a3.2,3.2,0,0,0,1.892,2.952l46.016,26.568c2.824,1.63,7.757,1.426,11.019-.457l44.432-25.652c1.881-1.087,2.789-2.493,2.683-3.8" transform="translate(355.938 805.584)" fill="#4067b1"/>
      <g id="g778" transform="translate(355.938 805.584)">
        <g id="g780" clip-path="url(#clip-path-4)">
          <path id="path792" d="M521.44-137.18a12.717,12.717,0,0,0-5.907,1.549L504.053-129l-35.635-.021v16.33a3.2,3.2,0,0,0,1.892,2.952l46.016,26.568a9.968,9.968,0,0,0,5.113,1.092v-55.1" fill="url(#radial-gradient-3)"/>
        </g>
      </g>
      <path id="path796" d="M517.036-82.826a12.55,12.55,0,0,0,8.808-.1v-18.54h-8.808v18.642" transform="translate(355.938 805.584)" fill="#5f92d3"/>
      <g id="g798" transform="translate(355.938 805.584)">
        <g id="g800" clip-path="url(#clip-path-5)">
          <path id="path814" d="M516.327-99.444l-46.016-26.567c-2.824-1.63-2.469-4.48.791-6.363l44.432-25.652c3.261-1.883,8.195-2.087,11.019-.457l46.016,26.568c2.825,1.631,2.471,4.477-.791,6.361L527.345-99.9c-3.261,1.883-8.195,2.086-11.019.456" fill="url(#linear-gradient-2)"/>
        </g>
      </g>
      <path id="path816" d="M571.777-128.677l-44.432,25.652c-3.261,1.883-8.195,2.087-11.019.457l-46.016-26.568a4.244,4.244,0,0,1-1.409-1.249c-.971,1.56-.531,3.255,1.409,4.375l46.016,26.567c2.824,1.631,7.757,1.427,11.019-.456l44.432-25.653c2.533-1.463,3.3-3.507,2.2-5.111a6.173,6.173,0,0,1-2.2,1.986" transform="translate(355.938 805.584)" fill="#fff"/>
      <path id="path818" d="M557.535-108.9a4.112,4.112,0,0,1-1.857,3.22c-1.028.592-1.86.112-1.86-1.073a4.106,4.106,0,0,1,1.86-3.22c1.025-.592,1.857-.112,1.857,1.073" transform="translate(355.938 805.584)" fill="#d9effb"/>
      <path id="path820" d="M563.515-112.348a4.106,4.106,0,0,1-1.859,3.219c-1.027.592-1.859.112-1.859-1.073a4.108,4.108,0,0,1,1.859-3.219c1.027-.592,1.859-.112,1.859,1.073" transform="translate(355.938 805.584)" fill="#d9effb"/>
      <path id="path822" d="M569.495-115.8a4.107,4.107,0,0,1-1.859,3.22c-1.027.592-1.859.112-1.859-1.073a4.111,4.111,0,0,1,1.859-3.22c1.027-.592,1.859-.112,1.859,1.073" transform="translate(355.938 805.584)" fill="#d9effb"/>
      <path id="path824" d="M519.048-115.914l-21.535-12.432c-1.321-.762-1.155-2.1.372-2.979l20.792-12a5.731,5.731,0,0,1,5.156-.213l21.532,12.433c1.321.762,1.156,2.095-.369,2.976l-20.792,12a5.735,5.735,0,0,1-5.156.215" transform="translate(355.938 805.584)" fill="#5f92d3"/>
      <path id="path826" d="M521.109-126.325l-2.98-1.72c-.181-.105-.16-.29.051-.411l2.879-1.661a.79.79,0,0,1,.712-.03l2.98,1.72c.183.105.159.289-.052.412l-2.876,1.66a.788.788,0,0,1-.713.029" transform="translate(355.938 805.584)" fill="#d9effb"/>
      <path id="path828" d="M497.513-128.347l.061.035.311-.213,20.792-12a5.731,5.731,0,0,1,5.156-.213l21.471,12.4c1.219-.873,1.283-2.06.061-2.764l-21.532-12.433a5.731,5.731,0,0,0-5.156.213l-20.792,12c-1.527.883-1.693,2.216-.372,2.979" transform="translate(355.938 805.584)" fill="#4067b1"/>
    </g>
    <path id="path458" d="M690.07-69.536l-30.12-17.39,30.119-17.39L720.19-86.925,690.07-69.536" transform="translate(571 740.584)" fill="#88c8ed"/>
    <path id="path460" d="M664.529-99.985,690.07-85.238l25.541-14.747-25.543-14.744ZM690.07-80.3a2.292,2.292,0,0,1-1.144-.307L658.8-98a2.292,2.292,0,0,1-1.145-1.984,2.292,2.292,0,0,1,1.145-1.983l30.12-17.389a2.287,2.287,0,0,1,2.289,0l30.121,17.389a2.292,2.292,0,0,1,1.145,1.983A2.289,2.289,0,0,1,721.336-98l-30.12,17.391a2.293,2.293,0,0,1-1.145.307" transform="translate(571 740.584)" fill="#fff"/>
    <g id="g462" transform="translate(571 740.584)">
      <g id="g464" clip-path="url(#clip-path-6)">
        <path id="path476" d="M720.19-113.572,690.07-96.183v-34.779l30.12-17.389v34.779" fill="url(#radial-gradient-4)"/>
      </g>
    </g>
    <g id="g478" transform="translate(571 740.584)">
      <g id="g480" clip-path="url(#clip-path-7)">
        <path id="path492" d="M690.07-130.961,659.952-148.35l30.117-17.389,30.12,17.389L690.07-130.961" fill="url(#linear-gradient-3)"/>
      </g>
    </g>
    <g id="g494" transform="translate(571 740.584)">
      <g id="g496" clip-path="url(#clip-path-8)">
        <path id="path508" d="M690.07-96.183l-30.119-17.389V-148.35l30.119,17.389v34.779" fill="url(#radial-gradient-5)"/>
      </g>
    </g>
    <g id="Group_140" data-name="Group 140" transform="translate(-18308.105 12241.824)">
      <g id="_1027" data-name="1027" transform="translate(18832 -12046.015)">
        <path id="Path_3816" data-name="Path 3816" d="M389.1-222.044a8.677,8.677,0,0,1-4.245-1.016l-65.8-37.986c-2.344-1.353-2.344-3.547,0-4.9l23.838-13.761a8.668,8.668,0,0,1,4.244-1.016,8.673,8.673,0,0,1,4.243,1.015l65.8,37.987c2.344,1.355,2.344,3.548,0,4.9L393.34-223.058a8.662,8.662,0,0,1-4.243,1.015M206.111-130.766a12.782,12.782,0,0,0,6.217,1.553,9.739,9.739,0,0,0,4.773-1.1l15.118-8.621,20.625,12.215L217.1-106.336a9.73,9.73,0,0,1-4.775,1.1m42.836-22.8-20.626-12.214,43.824-24.989,14.972,8.644c3.253,1.877,3.605,4.717.789,6.344l-38.959,22.216" transform="translate(0 600)" fill="#899abf"/>
        <path id="Path_3841" data-name="Path 3841" d="M420.584-344.9v-1.236h-.395l-.12.839.515.4m-25.213,14.553v-1.267l-.381.539Z" transform="translate(0 600)" fill="#fff"/>
        <path id="Path_3844" data-name="Path 3844" d="M538.976-65.181a14.938,14.938,0,0,1-7.325-1.685L378.823-155.1c-4.323-2.5-3.781-6.855,1.213-9.738L484.1-224.9a19.6,19.6,0,0,1,9.541-2.385,14.937,14.937,0,0,1,7.326,1.685l152.828,88.235c4.323,2.5,3.781,6.856-1.211,9.738L548.518-67.565a19.613,19.613,0,0,1-9.542,2.384" transform="translate(0 600)" fill="#899abf"/>
        <path id="Path_3845" data-name="Path 3845" d="M697.289-306.666l-159.62-92.156a6.442,6.442,0,0,0-5.409-.663l.011-.017-.291.109-.069.028-5.768,2.207,5.176,2.536-.073.281-26,118.348c-1.3,5.924,1.3,12.837,5.819,15.445l155.781,89.939-.555,6.6,6.3-2.443c2.117-.991,3.815-3.231,4.515-6.421l26-118.349c1.3-5.923-1.3-12.837-5.82-15.445" transform="translate(0 600)" fill="#263c7a"/>
        <path id="Path_3846" data-name="Path 3846" d="M697.289-306.666l-159.62-92.156a6.442,6.442,0,0,0-5.409-.663l.011-.017-.291.109-.069.028-5.768,2.207,5.176,2.536-.073.281-17.137,78,78.1,60.846L702.332-300.3a12.393,12.393,0,0,0-5.042-6.363" transform="translate(0 600)" fill="#4067b1"/>
        <path id="Path_3847" data-name="Path 3847" d="M691.271-288.473l12.15-5.173c.223-4.705-1.724-9.568-4.923-12.166l-19.233,8.089,12.005,9.25" transform="translate(0 600)" fill="#2e4b8d"/>
        <path id="Path_3848" data-name="Path 3848" d="M660.746-164.633,501.125-256.79c-4.516-2.608-7.121-9.522-5.819-15.445l26-118.349c1.3-5.923,6.015-8.61,10.53-6l159.621,92.156c4.515,2.608,7.121,9.522,5.819,15.445l-26,118.349c-1.3,5.923-6.016,8.61-10.53,6" transform="translate(0 600)" fill="#d9effb"/>
        <path id="Path_3849" data-name="Path 3849" d="M692.989-304.992,533.368-397.147a6.308,6.308,0,0,0-6.284-.273,6.56,6.56,0,0,1,4.752.835l159.621,92.155c4.516,2.607,7.121,9.524,5.819,15.445l-26,118.348a9,9,0,0,1-4.245,6.277c2.693-.589,4.944-3.033,5.779-6.837l26-118.349c1.3-5.921-1.3-12.837-5.82-15.445" transform="translate(0 600)" fill="#fff"/>
        <path id="Path_3850" data-name="Path 3850" d="M657.285-173.437,507.166-260.066c-4.132-2.387-6.517-8.714-5.327-14.133l23.793-108.3c1.189-5.419,5.505-7.878,9.636-5.493l150.12,86.63c4.133,2.385,6.517,8.712,5.327,14.133l-23.793,108.3c-1.189,5.421-5.5,7.88-9.637,5.495" transform="translate(0 600)" fill="#fff"/>
        <path id="Path_3851" data-name="Path 3851" d="M657.285-173.437,507.166-260.066c-4.132-2.387-6.517-8.714-5.327-14.133l23.793-108.3c1.189-5.419,5.505-7.878,9.636-5.493l150.12,86.63c4.133,2.385,6.517,8.712,5.327,14.133l-23.793,108.3c-1.189,5.421-5.5,7.88-9.637,5.495" transform="translate(0 600)" fill="#263c7a"/>
        <path id="Path_3852" data-name="Path 3852" d="M658.593-173.969,508.474-260.6c-4.132-2.385-6.516-8.713-5.327-14.132l23.793-108.3a8.3,8.3,0,0,1,3.783-5.7c-2.38.612-4.347,2.843-5.091,6.232L501.839-274.2c-1.191,5.42,1.195,11.748,5.325,14.134l150.12,86.629a5.773,5.773,0,0,0,5.856.207,5.99,5.99,0,0,1-4.548-.739" transform="translate(0 600)" fill="#5f92d3"/>
        <path id="Path_3853" data-name="Path 3853" d="M662.949-160.621,641.131-163.5,500.284-244.819c-4.515-2.607-12.4-2.28-17.616.731l-99.8,57.6-13.194-1.743v7.486l.013,0c-.087,1.729.9,3.393,3.029,4.623l159.62,92.158c4.516,2.607,12.4,2.28,17.617-.731l108.689-62.73c2.933-1.695,4.395-3.876,4.309-5.924v-7.274" transform="translate(0 600)" fill="#263c7a"/>
        <path id="Path_3854" data-name="Path 3854" d="M557.122-212l-10.006-5.777H437.1l-54.235,31.293-13.194-1.743v7.486l.013,0c-.087,1.729.9,3.393,3.029,4.623l159.62,92.158a16.515,16.515,0,0,0,9.09,1.7L557.122-212" transform="translate(0 600)" fill="#4067b1"/>
        <path id="Path_3855" data-name="Path 3855" d="M375.527-187.457l-5.856-.775v7.486l.013,0c-.087,1.729.9,3.393,3.029,4.623l2.813,1.624v-12.961" transform="translate(0 600)" fill="#5f92d3"/>
        <path id="Path_3856" data-name="Path 3856" d="M533.94-83.215a20.45,20.45,0,0,0,14.969-.93v-16.7H533.94v17.628" transform="translate(0 600)" fill="#2e4b8d"/>
        <path id="Path_3857" data-name="Path 3857" d="M532.333-91.439,372.713-183.6c-4.515-2.607-3.949-7.16,1.265-10.17L482.668-256.5c5.213-3.008,13.1-3.337,17.617-.729L659.9-165.071c4.516,2.607,3.949,7.16-1.265,10.17L549.95-92.17c-5.215,3.01-13.1,3.337-17.617.731" transform="translate(0 600)" fill="#d9effb"/>
        <path id="Path_3858" data-name="Path 3858" d="M658.64-157.635,549.95-94.9c-5.215,3.009-13.1,3.336-17.617.729L372.713-186.33a5.939,5.939,0,0,1-2.807-3.071c-.707,2.136.193,4.3,2.807,5.805l159.62,92.156c4.516,2.606,12.4,2.28,17.617-.731L658.64-154.9c3.5-2.024,4.9-4.743,4.072-7.1a8.481,8.481,0,0,1-4.072,4.367" transform="translate(0 600)" fill="#fff"/>
        <path id="Path_3859" data-name="Path 3859" d="M440.6-214.105l-7.221-4.171c-.58-.335-.508-.919.161-1.305l8.525-4.923a2.515,2.515,0,0,1,2.263-.093l7.222,4.171c.58.335.507.919-.163,1.307l-8.524,4.921a2.518,2.518,0,0,1-2.264.093m11.154,6.438-7.221-4.169c-.581-.335-.508-.919.161-1.305l8.524-4.923a2.515,2.515,0,0,1,2.263-.093l7.223,4.169c.58.335.507.92-.163,1.307l-8.524,4.921a2.515,2.515,0,0,1-2.263.093m11.153,6.44-7.222-4.171c-.58-.333-.507-.919.163-1.305l8.524-4.921a2.518,2.518,0,0,1,2.264-.095l7.221,4.171c.58.335.508.92-.161,1.307l-8.525,4.921a2.515,2.515,0,0,1-2.263.093m15.425-5.317-7.222-4.171c-.579-.335-.507-.919.163-1.305l7.156-4.132a2.518,2.518,0,0,1,2.264-.093l7.221,4.169c.58.335.508.92-.161,1.305l-7.157,4.133a2.519,2.519,0,0,1-2.263.093m11.153,6.439-7.223-4.169c-.579-.335-.505-.92.163-1.307l7.157-4.132a2.516,2.516,0,0,1,2.261-.093l7.222,4.171c.58.335.508.919-.163,1.305L491.75-200.2a2.518,2.518,0,0,1-2.264.093m11.154,6.44-7.222-4.171c-.58-.335-.507-.919.163-1.305l7.156-4.132a2.512,2.512,0,0,1,2.261-.093l7.222,4.169c.58.335.508.92-.163,1.305l-7.156,4.133a2.517,2.517,0,0,1-2.261.093m11.153,6.439-7.222-4.169c-.58-.335-.507-.92.163-1.305l7.156-4.133a2.517,2.517,0,0,1,2.261-.093l7.223,4.171c.58.335.507.919-.163,1.305l-7.156,4.132a2.512,2.512,0,0,1-2.261.093m11.153,6.44-7.222-4.169c-.579-.335-.508-.92.163-1.307l7.156-4.132a2.515,2.515,0,0,1,2.263-.093l7.222,4.169c.579.335.507.921-.163,1.308l-7.157,4.131a2.517,2.517,0,0,1-2.261.093m11.153,6.44-7.222-4.169c-.58-.335-.508-.921.163-1.307l7.156-4.132a2.516,2.516,0,0,1,2.263-.095l7.222,4.171c.579.335.507.92-.163,1.307l-7.156,4.131a2.515,2.515,0,0,1-2.263.095m11.153,6.44-7.221-4.171c-.581-.335-.508-.92.161-1.307l7.156-4.131a2.515,2.515,0,0,1,2.263-.095l7.222,4.169c.58.335.507.921-.163,1.308L547.516-168a2.52,2.52,0,0,1-2.263.095m11.153,6.439-7.222-4.169c-.58-.335-.507-.921.163-1.307l7.156-4.132a2.52,2.52,0,0,1,2.263-.095L565.986-167c.581.335.508.92-.161,1.307l-7.156,4.131a2.511,2.511,0,0,1-2.263.095m11.153,6.44-7.222-4.171c-.58-.335-.507-.92.163-1.307l7.156-4.131a2.522,2.522,0,0,1,2.264-.095l7.221,4.169c.58.335.507.921-.161,1.308l-7.157,4.132a2.515,2.515,0,0,1-2.263.093m11.153,6.439-7.222-4.169c-.579-.335-.507-.92.163-1.305l7.157-4.133a2.517,2.517,0,0,1,2.261-.093l7.222,4.171c.58.333.508.919-.163,1.305l-7.154,4.132a2.518,2.518,0,0,1-2.264.093m-83.946-61-7.221-4.169c-.58-.335-.508-.919.161-1.305l7.157-4.132a2.511,2.511,0,0,1,2.263-.093l7.222,4.169c.579.335.507.919-.163,1.305l-7.156,4.132a2.518,2.518,0,0,1-2.264.093m-11.318-6.535-7.222-4.171c-.579-.335-.508-.92.163-1.307l7.156-4.131a2.515,2.515,0,0,1,2.263-.095l7.222,4.171c.579.335.507.92-.163,1.307l-7.157,4.131a2.513,2.513,0,0,1-2.261.095m-11.338-6.547-15.554-8.981c-.58-.335-.508-.919.161-1.305l7.156-4.132a2.518,2.518,0,0,1,2.264-.093l15.554,8.98c.579.335.508.92-.163,1.307l-7.157,4.131a2.517,2.517,0,0,1-2.261.095m7.926-7.961-12.624-7.288c-.581-.335-.508-.919.163-1.307l7.156-4.131a2.512,2.512,0,0,1,2.261-.093l12.624,7.286c.58.335.507.92-.163,1.307L482.3-230.73a2.509,2.509,0,0,1-2.261.095m25.885,27.482-7.221-4.171c-.581-.335-.508-.919.161-1.305l7.156-4.132a2.515,2.515,0,0,1,2.263-.093l7.222,4.169c.58.336.507.92-.163,1.307l-7.156,4.132a2.515,2.515,0,0,1-2.263.093m11.153,6.438-7.222-4.169c-.58-.335-.507-.919.163-1.305l7.156-4.132a2.511,2.511,0,0,1,2.263-.093l7.221,4.169c.581.335.508.919-.161,1.305l-7.156,4.132a2.515,2.515,0,0,1-2.263.093m11.153,6.44L521-194.446c-.58-.335-.507-.919.163-1.305l7.156-4.132a2.515,2.515,0,0,1,2.263-.093l7.222,4.169c.58.336.507.92-.163,1.307l-7.156,4.132a2.515,2.515,0,0,1-2.263.093m11.153,6.438-7.222-4.169c-.579-.335-.507-.919.163-1.305l7.157-4.132a2.508,2.508,0,0,1,2.261-.093l7.222,4.169c.579.335.508.919-.163,1.305l-7.156,4.132a2.515,2.515,0,0,1-2.263.093m11.154,6.44-7.222-4.169c-.58-.335-.507-.92.163-1.307L550.63-187a2.512,2.512,0,0,1,2.261-.093l7.222,4.169c.58.336.507.92-.163,1.308L552.8-177.49a2.512,2.512,0,0,1-2.261.093m11.153,6.44-7.222-4.169c-.58-.335-.508-.92.163-1.307l7.156-4.132a2.508,2.508,0,0,1,2.261-.093l7.222,4.169c.58.335.507.92-.163,1.307l-7.156,4.131a2.513,2.513,0,0,1-2.261.095m11.153,6.44-7.222-4.171c-.581-.335-.508-.92.163-1.307l7.155-4.131a2.518,2.518,0,0,1,2.264-.095l7.222,4.169c.579.336.505.921-.164,1.308l-7.156,4.131a2.513,2.513,0,0,1-2.261.095m11.152,6.439-7.221-4.169c-.58-.335-.508-.92.161-1.307l7.157-4.131a2.511,2.511,0,0,1,2.263-.095l7.223,4.169c.579.335.507.92-.163,1.307l-7.156,4.131a2.518,2.518,0,0,1-2.264.095m11.153,6.44-7.222-4.171c-.579-.335-.505-.92.164-1.307l7.156-4.131a2.515,2.515,0,0,1,2.263-.095l7.221,4.169c.581.336.508.921-.161,1.308l-7.156,4.132a2.518,2.518,0,0,1-2.264.093m19.829,11.448-15.758-9.1c-.579-.335-.508-.92.163-1.307l7.156-4.132a2.515,2.515,0,0,1,2.263-.093l15.758,9.1c.58.336.507.921-.163,1.308l-7.156,4.131a2.515,2.515,0,0,1-2.263.095m21.714-12.538-13.3-7.677c-.579-.335-.507-.92.163-1.307l7.156-4.131a2.507,2.507,0,0,1,2.263-.095l13.3,7.678c.581.335.508.919-.161,1.305l-7.156,4.132a2.511,2.511,0,0,1-2.263.093M525.452-204.414l-7.222-4.169c-.58-.335-.507-.921.163-1.308l7.156-4.131a2.515,2.515,0,0,1,2.263-.095l7.222,4.171c.58.335.507.92-.164,1.307l-7.154,4.131a2.511,2.511,0,0,1-2.263.095m-11.43-6.6-7.223-4.171c-.58-.335-.507-.92.163-1.307l7.156-4.131a2.509,2.509,0,0,1,2.261-.095l7.222,4.169c.581.335.508.921-.163,1.307l-7.154,4.132a2.52,2.52,0,0,1-2.263.095m-11.43-6.6-7.223-4.169c-.58-.336-.507-.92.163-1.307l7.156-4.132a2.515,2.515,0,0,1,2.263-.093l7.221,4.171c.581.335.508.919-.161,1.305l-7.156,4.132a2.515,2.515,0,0,1-2.263.093m-11.432-6.6-7.222-4.169c-.579-.335-.507-.919.163-1.305l7.157-4.132a2.515,2.515,0,0,1,2.263-.093l7.221,4.169c.58.335.508.919-.161,1.305l-7.156,4.132a2.514,2.514,0,0,1-2.264.093m45.445,26.239-7.222-4.171c-.579-.335-.507-.92.163-1.307l7.156-4.131a2.515,2.515,0,0,1,2.263-.093l7.222,4.168c.579.335.508.921-.163,1.307l-7.156,4.133a2.519,2.519,0,0,1-2.263.093m11.153,6.438-7.222-4.169c-.579-.335-.507-.92.164-1.307l7.156-4.132a2.517,2.517,0,0,1,2.261-.093l7.222,4.171c.58.335.507.919-.163,1.305l-7.156,4.132a2.515,2.515,0,0,1-2.263.093m11.154,6.44-7.222-4.171c-.581-.335-.508-.919.163-1.305l7.156-4.132a2.512,2.512,0,0,1,2.261-.093l7.222,4.169c.58.335.507.92-.163,1.305l-7.156,4.133a2.517,2.517,0,0,1-2.261.093m11.152,6.439-7.221-4.169c-.581-.335-.508-.92.161-1.307l7.156-4.132a2.52,2.52,0,0,1,2.263-.093l7.222,4.171c.58.335.507.919-.163,1.305l-7.156,4.132a2.515,2.515,0,0,1-2.263.093m11.153,6.44L574-176.388c-.58-.335-.508-.919.161-1.305l7.156-4.132a2.518,2.518,0,0,1,2.264-.093l7.222,4.169c.579.335.507.92-.163,1.305l-7.157,4.133a2.519,2.519,0,0,1-2.263.093m11.153,6.439-7.222-4.169c-.579-.335-.505-.92.164-1.305l7.156-4.133a2.519,2.519,0,0,1,2.263-.093l7.221,4.171c.581.335.508.919-.161,1.305l-7.156,4.132a2.518,2.518,0,0,1-2.264.093m11.154,6.44-7.222-4.171c-.58-.333-.507-.919.163-1.305l7.156-4.132a2.512,2.512,0,0,1,2.261-.093l7.222,4.169c.581.335.508.92-.161,1.307l-7.156,4.132a2.519,2.519,0,0,1-2.263.093m11.153,6.44-7.222-4.169c-.58-.335-.507-.921.163-1.307l7.156-4.133a2.516,2.516,0,0,1,2.261-.093l7.222,4.171c.58.335.508.92-.163,1.307l-7.156,4.131a2.517,2.517,0,0,1-2.261.095m11.153,6.44-7.222-4.171c-.579-.335-.507-.92.163-1.307l7.156-4.131a2.511,2.511,0,0,1,2.263-.095l7.222,4.169c.579.335.507.921-.163,1.308l-7.157,4.131a2.517,2.517,0,0,1-2.261.095M519.58-220.341l-7.222-4.169c-.581-.335-.508-.92.163-1.307l7.154-4.132a2.515,2.515,0,0,1,2.263-.093l7.222,4.169c.58.336.507.92-.163,1.308l-7.156,4.131a2.512,2.512,0,0,1-2.261.093m-11.1-6.407-7.221-4.171c-.58-.335-.507-.92.163-1.307l7.156-4.131a2.515,2.515,0,0,1,2.263-.095l7.221,4.169c.581.336.508.921-.161,1.308l-7.156,4.132a2.518,2.518,0,0,1-2.264.093m-11.1-6.408-7.222-4.171c-.579-.335-.507-.919.163-1.305l7.157-4.132a2.512,2.512,0,0,1,2.261-.093l7.223,4.171c.58.335.508.919-.163,1.305l-7.154,4.132a2.518,2.518,0,0,1-2.264.093m-11.1-6.408-7.223-4.168c-.58-.336-.507-.921.163-1.308l7.156-4.132a2.515,2.515,0,0,1,2.263-.093l7.222,4.171c.579.335.505.92-.164,1.307l-7.156,4.131a2.512,2.512,0,0,1-2.261.093m11.412-6.588-7.222-4.171c-.58-.335-.507-.919.163-1.305L493-252.994a2.515,2.515,0,0,1,2.263-.093l7.221,4.171c.581.335.508.919-.161,1.305l-2.365,1.367a2.515,2.515,0,0,1-2.263.093m14.482,8.362-7.222-4.171c-.58-.335-.507-.92.163-1.307l2.365-1.365a2.515,2.515,0,0,1,2.263-.095l7.222,4.169c.58.336.508.921-.163,1.308l-2.365,1.365a2.52,2.52,0,0,1-2.263.095m11.052,6.38-7.222-4.169c-.58-.336-.507-.921.163-1.308l2.365-1.365a2.519,2.519,0,0,1,2.263-.093l7.222,4.171c.579.333.507.919-.163,1.305l-2.367,1.365a2.513,2.513,0,0,1-2.261.095m11.052,6.38-7.222-4.169c-.581-.335-.508-.92.163-1.307l2.365-1.365a2.515,2.515,0,0,1,2.263-.093l7.222,4.169c.579.335.507.919-.163,1.305l-2.367,1.367a2.512,2.512,0,0,1-2.261.093m11.05,6.381-7.221-4.171c-.58-.335-.508-.919.161-1.305l2.367-1.367a2.515,2.515,0,0,1,2.263-.093l7.221,4.171c.58.335.508.919-.161,1.305l-2.367,1.367a2.515,2.515,0,0,1-2.263.093m61.7,35.622-7.221-4.171c-.58-.335-.507-.92.163-1.307l2.365-1.365a2.512,2.512,0,0,1,2.261-.093l7.222,4.171c.58.335.508.919-.163,1.305l-2.364,1.365a2.514,2.514,0,0,1-2.264.095m11.053,6.38-7.222-4.169c-.58-.335-.507-.919.163-1.305l2.365-1.367a2.512,2.512,0,0,1,2.261-.093l7.222,4.169c.58.335.507.919-.163,1.305l-2.365,1.367a2.512,2.512,0,0,1-2.261.093m11.052,6.381-7.222-4.171c-.581-.335-.508-.919.163-1.305l2.364-1.367a2.515,2.515,0,0,1,2.263-.093l7.222,4.171c.58.335.507.919-.163,1.305l-2.365,1.367a2.512,2.512,0,0,1-2.261.093m11.05,6.38-7.222-4.169c-.58-.335-.507-.92.163-1.305l2.365-1.367a2.511,2.511,0,0,1,2.263-.093l7.221,4.169c.581.335.508.919-.161,1.307l-2.365,1.365a2.515,2.515,0,0,1-2.263.093M530.732-213.9l-7.221-4.169c-.581-.335-.508-.921.161-1.307l7.156-4.131a2.512,2.512,0,0,1,2.263-.1l7.222,4.171c.58.335.507.92-.163,1.307L532.995-214a2.515,2.515,0,0,1-2.263.095m11.153,6.44-7.221-4.171c-.58-.335-.508-.92.161-1.307l7.156-4.131a2.518,2.518,0,0,1,2.264-.095l7.221,4.169c.58.336.508.921-.161,1.308l-7.157,4.131a2.515,2.515,0,0,1-2.263.095m11.153,6.439-7.222-4.169c-.579-.335-.505-.921.164-1.307l7.156-4.131a2.516,2.516,0,0,1,2.263-.1l7.221,4.171c.581.335.508.92-.161,1.307l-7.156,4.131a2.518,2.518,0,0,1-2.264.095m11.154,6.44-7.222-4.171c-.58-.335-.507-.92.163-1.307l7.156-4.131a2.513,2.513,0,0,1,2.261-.095l7.222,4.169c.581.336.508.921-.163,1.308l-7.154,4.132a2.515,2.515,0,0,1-2.263.093m11.153,6.439-7.222-4.169c-.58-.335-.507-.919.163-1.307l7.156-4.131a2.508,2.508,0,0,1,2.261-.093l7.222,4.169c.58.333.508.919-.163,1.305l-7.156,4.132a2.512,2.512,0,0,1-2.261.093M586.5-181.7l-7.222-4.171c-.579-.335-.508-.919.163-1.305l7.156-4.132a2.515,2.515,0,0,1,2.263-.093l7.222,4.169c.579.336.507.92-.163,1.307L588.76-181.8a2.512,2.512,0,0,1-2.261.093m11.153,6.438-7.222-4.169c-.58-.335-.507-.919.163-1.305l7.157-4.132a2.508,2.508,0,0,1,2.261-.093l7.222,4.169c.579.335.507.919-.163,1.305l-7.156,4.132a2.515,2.515,0,0,1-2.263.093m11.153,6.44L601.584-173c-.581-.335-.508-.919.161-1.305l7.156-4.132a2.515,2.515,0,0,1,2.263-.093l7.222,4.169c.58.336.507.92-.163,1.307l-7.156,4.132a2.515,2.515,0,0,1-2.263.093m11.153,6.439-7.221-4.169c-.581-.335-.508-.919.161-1.305l7.156-4.132a2.511,2.511,0,0,1,2.263-.093l7.222,4.169c.58.335.507.919-.163,1.305l-7.156,4.132a2.515,2.515,0,0,1-2.263.093M466.968-213.107,445.7-225.388c-.58-.335-.507-.919.163-1.305l7.156-4.132a2.512,2.512,0,0,1,2.261-.093l21.27,12.28c.58.336.508.92-.163,1.307L469.23-213.2a2.512,2.512,0,0,1-2.261.093M603.988-134l-21.27-12.28c-.579-.335-.508-.919.163-1.305l7.156-4.132a2.515,2.515,0,0,1,2.263-.093l21.27,12.28c.579.335.507.919-.163,1.305l-7.156,4.132a2.511,2.511,0,0,1-2.263.093m-44.6-11.526-7.222-4.171c-.58-.335-.508-.92.163-1.307l8.525-4.921a2.512,2.512,0,0,1,2.261-.093l7.222,4.171c.58.335.507.919-.163,1.305l-8.525,4.921a2.508,2.508,0,0,1-2.261.095m-81-46.763-11.55-6.668c-.58-.335-.507-.92.163-1.307l8.525-4.921a2.515,2.515,0,0,1,2.263-.095l11.549,6.668c.581.335.508.921-.161,1.307l-8.525,4.921a2.515,2.515,0,0,1-2.263.095m70.249,40.558-11.55-6.668c-.58-.335-.507-.92.163-1.307l8.524-4.921a2.516,2.516,0,0,1,2.263-.095l11.552,6.669c.579.335.505.92-.164,1.307l-8.524,4.921a2.515,2.515,0,0,1-2.263.093M494.481-183l-11.55-6.669c-.579-.335-.507-.919.163-1.305l8.525-4.923a2.512,2.512,0,0,1,2.261-.093l11.55,6.669c.58.335.508.92-.163,1.307l-8.524,4.921a2.515,2.515,0,0,1-2.263.093" transform="translate(0 600)" fill="#5f92d3"/>
        <path id="Path_3860" data-name="Path 3860" d="M493.958-195.943l50.217,28.993a.687.687,0,0,1,0,1.3l-8.693,5.02a2.5,2.5,0,0,1-2.256,0l-50.217-28.993,10.949-6.323m96.6,62.093,8.044,4.644c.476.273.417.753-.132,1.071l-3.488,2.013a2.055,2.055,0,0,1-1.853.076l-8.045-4.644c-.476-.275-.416-.755.132-1.071l3.488-2.013a2.059,2.059,0,0,1,1.855-.076m-11.245-6.493,8.044,4.644c.475.275.416.753-.133,1.071l-3.487,2.013a2.06,2.06,0,0,1-1.855.078l-8.045-4.644c-.475-.275-.415-.755.133-1.072l3.488-2.013a2.059,2.059,0,0,1,1.855-.076m-11.154-6.44,8.045,4.645c.476.273.416.753-.133,1.071l-3.487,2.012a2.055,2.055,0,0,1-1.855.077l-8.045-4.644c-.476-.276-.416-.755.133-1.071l3.488-2.013a2.057,2.057,0,0,1,1.853-.077m17.313,2.884,8.045,4.644c.475.275.415.753-.135,1.071l-3.487,2.013a2.059,2.059,0,0,1-1.855.077l-8.045-4.644c-.475-.275-.415-.755.135-1.072l3.487-2.013a2.059,2.059,0,0,1,1.855-.076" transform="translate(0 600)" fill="#5f92d3"/>
        <path id="Path_3861" data-name="Path 3861" d="M629.526-269.548l-60.077-34.684.773-3.905L630.3-273.453l-.773,3.905m-21.517,6.591L566.073-287.17l.773-3.9,41.936,24.211-.773,3.905" transform="translate(0 600)" fill="#d9effb"/>
        <path id="Path_3862" data-name="Path 3862" d="M604.041-274.754,567.76-295.7l.773-3.907,36.279,20.946-.772,3.907" transform="translate(0 600)" fill="#fff"/>
        <path id="Path_3863" data-name="Path 3863" d="M627.838-261.016,609.7-271.489l.772-3.907,18.14,10.474-.772,3.905" transform="translate(0 600)" fill="#ee1696"/>
        <path id="Path_3864" data-name="Path 3864" d="M563.051-338.308l-18.14-10.474.772-3.9,18.14,10.472-.772,3.907" transform="translate(0 600)" fill="#d9effb"/>
        <path id="Path_3865" data-name="Path 3865" d="M561.083-329.23,542.942-339.7l.773-3.905,18.141,10.473-.773,3.907" transform="translate(0 600)" fill="#fff"/>
        <path id="Path_3866" data-name="Path 3866" d="M650.117-203.338l-18.139-10.472.772-3.907,18.14,10.474-.772,3.9m-92.971-107.74-18.14-10.474.772-3.905,18.141,10.473-.773,3.907" transform="translate(0 600)" fill="#d9effb"/>
        <path id="Path_3867" data-name="Path 3867" d="M596.341-308.267a2.264,2.264,0,0,1-3.261,1.005,2.84,2.84,0,0,1-1.169-3.563,2.263,2.263,0,0,1,3.261-1,2.839,2.839,0,0,1,1.169,3.561" transform="translate(0 600)" fill="#ee1696"/>
        <path id="Path_3868" data-name="Path 3868" d="M604.153-303.755a2.263,2.263,0,0,1-3.261,1,2.838,2.838,0,0,1-1.168-3.561,2.264,2.264,0,0,1,3.261-1.005,2.838,2.838,0,0,1,1.168,3.563" transform="translate(0 600)" fill="#fff"/>
        <path id="Path_3869" data-name="Path 3869" d="M611.967-299.245a2.265,2.265,0,0,1-3.263,1.005,2.841,2.841,0,0,1-1.168-3.563,2.265,2.265,0,0,1,3.263-1,2.839,2.839,0,0,1,1.168,3.561" transform="translate(0 600)" fill="#d9effb"/>
        <path id="Path_3870" data-name="Path 3870" d="M619.781-294.733a2.264,2.264,0,0,1-3.261,1,2.838,2.838,0,0,1-1.168-3.561,2.262,2.262,0,0,1,3.261-1.005,2.84,2.84,0,0,1,1.168,3.563" transform="translate(0 600)" fill="#ee1696"/>
        <path id="Path_3871" data-name="Path 3871" d="M486.783-135.375,441.353-161.6c-1.323-.764-1.156-2.1.371-2.979l27.415-15.828a5.728,5.728,0,0,1,5.159-.215l45.43,26.227c1.323.765,1.156,2.1-.369,2.98L491.941-135.59a5.732,5.732,0,0,1-5.159.215" transform="translate(0 600)" fill="#fff"/>
        <path id="Path_3872" data-name="Path 3872" d="M448.9-241.263l5.481-6.721-14.5-11.829-5.481,6.721,14.5,11.829" transform="translate(0 600)" fill="#5f92d3"/>
        <path id="Path_3873" data-name="Path 3873" d="M451.075-241.129a6.78,6.78,0,0,0,3.876-4.753c.312-1.931-.915-2.932-2.744-2.237a6.781,6.781,0,0,0-3.876,4.752c-.312,1.931.916,2.932,2.744,2.239m-15.845-7.813,8.882-10.89L429.3-271.913l-8.881,10.89,14.814,12.081" transform="translate(0 600)" fill="#5f92d3"/>
        <path id="Path_3874" data-name="Path 3874" d="M442.264-257.867l4.909,4a11.217,11.217,0,0,1-5.481,6.721l-4.909-4a11.224,11.224,0,0,1,5.481-6.72" transform="translate(0 600)" fill="#4067b1"/>
        <path id="Path_3875" data-name="Path 3875" d="M438.754-248.723a10.981,10.981,0,0,0,6.281-7.7c.505-3.128-1.485-4.751-4.447-3.627a10.983,10.983,0,0,0-6.28,7.7c-.507,3.127,1.484,4.751,4.445,3.625m-14.821-12.086a10.983,10.983,0,0,0,6.281-7.7c.507-3.128-1.484-4.752-4.447-3.627a10.989,10.989,0,0,0-6.28,7.7c-.507,3.128,1.484,4.752,4.445,3.627" transform="translate(0 600)" fill="#5f92d3"/>
        <path id="Path_3876" data-name="Path 3876" d="M424.332-263.269a6.211,6.211,0,0,0,3.553-4.356c.287-1.771-.84-2.688-2.515-2.051a6.206,6.206,0,0,0-3.553,4.355c-.287,1.769.839,2.689,2.515,2.052m26.786,16.64c.711.579,1.407.316,1.553-.591a3.183,3.183,0,0,0-1.023-2.689c-.711-.58-1.405-.316-1.552.589a3.181,3.181,0,0,0,1.021,2.691" transform="translate(0 600)" fill="#d9effb"/>
        <path id="Path_3877" data-name="Path 3877" d="M303.582-99.012a14.65,14.65,0,0,1-7.568-2.14l-10.262-6.079a1.161,1.161,0,0,1-.407-1.588,1.159,1.159,0,0,1,1.588-.407l10.268,6.083a12.164,12.164,0,0,0,12.834-.049A12.162,12.162,0,0,0,315.9-114.6l-.219-3.095c-3.6-50.664-10.31-144.969,29.434-155.141a309.455,309.455,0,0,0,29.91-9.306c20.4-7.3,21.794-6.9,49.912,14.337a1.157,1.157,0,0,1,.227,1.623,1.16,1.16,0,0,1-1.623.227c-27.93-21.093-28.3-20.962-47.736-14a312.148,312.148,0,0,1-30.114,9.369c-37.872,9.693-31.255,102.743-27.7,152.732l.22,3.094a14.446,14.446,0,0,1-6.965,13.551,14.612,14.612,0,0,1-7.665,2.205" transform="translate(0 600)" fill="#5f92d3"/>
        <path id="Path_3878" data-name="Path 3878" d="M381.546-80.221c-9.622,0-19.245-2.118-26.586-6.357-14.684-8.478-14.684-22.222,0-30.7,7.341-4.238,16.964-6.358,26.586-6.358s19.244,2.12,26.586,6.358c14.682,8.478,14.682,22.222,0,30.7-7.341,4.239-16.964,6.357-26.586,6.357" transform="translate(0 600)" fill="#899abf"/>
        <path id="Path_3879" data-name="Path 3879" d="M399.483-111.229a5.809,5.809,0,0,1,3.275,5.8,9.773,9.773,0,0,1-.479,2.837c-.673,1.413-2.881,3.356-6.408,1.963s-11.353-8.749-11.646-13.564c-.545-8.944,9.682.58,15.258,2.961M378.772-96.436s.845,5.156.433,6.1-2.863,2.963-6.488,2.526-14.052-4.032-16.374-10.9c-3.6-10.653,20.129.8,20.129.8l2.3,1.476" transform="translate(0 600)" fill="#263c7a"/>
        <path id="Path_3880" data-name="Path 3880" d="M368.583-178.872l-.808,80.5a5.642,5.642,0,0,0,4.385,5.581q.458.076.981.122a5.012,5.012,0,0,0,4.783-1.979A5.914,5.914,0,0,0,379-97.9l1.028-34.363,5.131-30.725,7.1,54.379a4.7,4.7,0,0,0,1.949,3.581,5.448,5.448,0,0,0,3.237.878,5.95,5.95,0,0,0,4.3-2.119,4.321,4.321,0,0,0,1.027-2.912L399.959-141.9l-1.048-41.734-30.329,4.76" transform="translate(0 600)" fill="#d9effb"/>
        <path id="Path_3881" data-name="Path 3881" d="M379.007-250.928l1.272,7.336a3.36,3.36,0,0,1-2.745,3.2c-2.795.693-3.66-1.111-3.66-1.111l-1.263-8.261,6.4-1.16" transform="translate(0 600)" fill="#fab6a9"/>
        <path id="Path_3882" data-name="Path 3882" d="M364.092-250.708c4.669,4.651,11.8,5.039,15.925.868s3.687-11.322-.983-15.972-11.8-5.039-15.926-.867-3.685,11.321.984,15.97" transform="translate(0 600)" fill="#fab6a9"/>
        <path id="Path_3883" data-name="Path 3883" d="M378.675-243.458c.195-.08,11.857-7.589,16.166.269,7.03,12.813,6.616,54.06,4.4,59.4-2.053,4.944-7.182,8.59-10.777,10.644A21.515,21.515,0,0,1,378-170.168c-3.644.031-10.632-3.211-10.378-7.973,1.167-21.913-.771-40.383-2.56-58.305,0,0,2.236-2.407,13.614-7.012" transform="translate(0 600)" fill="#5f92d3"/>
        <path id="Path_3884" data-name="Path 3884" d="M385.157-162.985l7.1,54.379a4.7,4.7,0,0,0,1.949,3.581,5.314,5.314,0,0,0,.608.343c-1.475-1.107-5.776-46.749-6.573-51.827s-3.083-6.476-3.083-6.476" transform="translate(0 600)" fill="#4067b1"/>
        <path id="Path_3885" data-name="Path 3885" d="M341.381-241.041l-6.337-20.754,3.347-1.388,7.472,16.264-4.481,5.879M405.262-257.4l-4.751-21.609-3.783.041,1.421,17.92,7.112,3.648" transform="translate(0 600)" fill="#fab6a9"/>
        <path id="Path_3886" data-name="Path 3886" d="M365.06-236.446s-11.386,2.272-18.626-10.985a1.8,1.8,0,0,0-3-.316c-1.161,1.769-2.7,4.477-1.9,7.406,3.524,12.956,22.666,15.821,26.1,23.334s-2.572-19.44-2.572-19.44m21.012-9.705s9.017.693,10.314-7.112a59.462,59.462,0,0,0,.907-7.8,1.574,1.574,0,0,1,1.768-1.531c2.16.267,5.5.912,5.957,2.36.677,2.16,1.951,12.758-6.956,29.021-5.835,10.653-11.99-14.937-11.99-14.937" transform="translate(0 600)" fill="#5f92d3"/>
        <path id="Path_3887" data-name="Path 3887" d="M400.531-278.953l-.087-2.465a5.055,5.055,0,0,0-.737-2.46l-2.5-4.1-.651-.821a1.9,1.9,0,0,0-2.5-.427l-.575.361a2.36,2.36,0,0,0-1.1,2.148l1.292,3.507-1.633-.316a.58.58,0,0,0-.438.091.58.58,0,0,0-.243.376.578.578,0,0,0,.353.64l2.668,1.077,2.424,3.429,3.719-1.037m-65.58,17.268-.755-2.348a5.056,5.056,0,0,1-.144-2.564l.956-4.707.335-.993a1.9,1.9,0,0,1,2.2-1.249l.663.145a2.357,2.357,0,0,1,1.764,1.647l-.025,3.737,1.429-.853a.581.581,0,0,1,.8.208.581.581,0,0,1-.116.723l-2.144,1.919-1.252,4.551-3.713-.215" transform="translate(0 600)" fill="#fab6a9"/>
        <path id="Path_3888" data-name="Path 3888" d="M370.392-220.745c1.039,4.735-1.873,41.482,7.606,50.577-3.644.031-10.632-3.211-10.378-7.973a291.315,291.315,0,0,0-.869-40.3c-3.717-4.816-13.945-7.882-20.345-14.06.467.144,22.959,7.066,23.986,11.753" transform="translate(0 600)" fill="#4067b1"/>
        <path id="Path_3889" data-name="Path 3889" d="M382.869-245.531l-1.62-1.663s-2.664,2.721-4.8,3.193a25.1,25.1,0,0,1-3.835.793l-1.043,2.873s8.482-.607,11.3-5.2" transform="translate(0 600)" fill="#fff"/>
        <path id="Path_3890" data-name="Path 3890" d="M370.924-254.059a1.367,1.367,0,0,1-1.259,0c-.688-.363-1.805-3.1-3.24-2.9-2.243.313-5.491,5.021-9.533-1.547-2.1-3.413-.869-5.256-1.892-7.193,0,0,.36,1.051,9.161-4.32s16,1.175,18.23,4.919,3.681,11.06-2.1,15.189c-.959.683-7.122-.539-7.25-1.053s1.525-1.348.592-2.556a1.934,1.934,0,0,0-2.713-.54" transform="translate(0 600)" fill="#263c7a"/>
        <path id="Path_3891" data-name="Path 3891" d="M288.43-105.831a1.162,1.162,0,0,1-.589-.161L225.857-142.7a1.161,1.161,0,0,1-.408-1.588,1.158,1.158,0,0,1,1.588-.407l61.986,36.707a1.161,1.161,0,0,1,.407,1.588,1.163,1.163,0,0,1-1,.568" transform="translate(0 600)" fill="#5f92d3"/>
        <path id="Path_3892" data-name="Path 3892" d="M159.12-160.144V-327.757l66.634-17.44,12.274-7.088c2.816-1.625,7.736-1.421,10.989.456l11.45,6.612,35.54-.019L285.485-183.43a3.183,3.183,0,0,1-1.888,2.944L217.1-130.31c-2.817,1.627-7.737,1.421-10.99-.456L161.8-156.351c-1.876-1.084-2.781-2.488-2.676-3.793" transform="translate(0 600)" fill="#4067b1"/>
        <path id="Path_3893" data-name="Path 3893" d="M243.127-353.373a12.68,12.68,0,0,1,5.891,1.544l11.45,6.612,35.54-.019v168.062a3.181,3.181,0,0,1-1.887,2.944L217.1-130.31a9.937,9.937,0,0,1-5.1,1.088l-.793-169.113,31.919-55.037" transform="translate(0 600)" fill="#d9effb"/>
        <path id="Path_3894" data-name="Path 3894" d="M216.393-129.963a12.517,12.517,0,0,1-8.784-.1V-300.334h8.784v170.37" transform="translate(0 600)" fill="#5f92d3"/>
        <path id="Path_3895" data-name="Path 3895" d="M217.1-298.315l77.021-43.918c2.816-1.627,2.464-4.468-.789-6.345l-44.315-25.586c-3.253-1.877-8.173-2.081-10.989-.455L161.007-330.7c-2.816,1.627-2.463,4.467.789,6.345l44.315,25.585c3.253,1.877,8.173,2.083,10.99.456" transform="translate(0 600)" fill="#d9effb"/>
        <path id="Path_3896" data-name="Path 3896" d="M161.8-327.473l44.315,25.586c3.253,1.879,8.173,2.081,10.99.455l77.021-43.916a4.254,4.254,0,0,0,1.405-1.248c.968,1.557.529,3.247-1.405,4.364L217.1-298.315c-2.817,1.627-7.737,1.421-10.99-.456L161.8-324.356c-2.528-1.46-3.3-3.5-2.195-5.1a6.153,6.153,0,0,0,2.195,1.981" transform="translate(0 600)" fill="#fcfeff"/>
        <path id="Path_3897" data-name="Path 3897" d="M214.923-316.115,266.2-345.838c1.319-.763,1.153-2.092-.369-2.971L245.1-360.782a5.722,5.722,0,0,0-5.144-.213L188.673-331.27c-1.317.763-1.152,2.092.371,2.971l20.737,11.972a5.715,5.715,0,0,0,5.143.213" transform="translate(0 600)" fill="#263c7a"/>
        <path id="Path_3898" data-name="Path 3898" d="M242.606-344.5l2.972-1.716c.183-.105.16-.288-.051-.409l-2.871-1.656a.786.786,0,0,0-.711-.031l-2.971,1.716c-.183.1-.16.289.051.411l2.868,1.656a.784.784,0,0,0,.712.029" transform="translate(0 600)" fill="#d9effb"/>
        <path id="Path_3899" data-name="Path 3899" d="M232.68-338.8l2.972-1.716c.181-.105.159-.289-.052-.411l-2.869-1.657a.79.79,0,0,0-.711-.029l-2.973,1.715c-.181.107-.159.291.052.412l2.869,1.656a.793.793,0,0,0,.712.031" transform="translate(0 600)" fill="#ee1696"/>
        <path id="Path_3900" data-name="Path 3900" d="M222.753-333.088l2.971-1.716c.183-.105.159-.289-.052-.411l-2.868-1.657a.792.792,0,0,0-.712-.028l-2.972,1.715c-.183.105-.159.289.052.411l2.869,1.657a.8.8,0,0,0,.712.029m-9.929,5.708L215.8-329.1c.183-.105.159-.289-.052-.411l-2.869-1.657a.8.8,0,0,0-.712-.028l-2.971,1.715c-.183.105-.159.289.051.412l2.869,1.656a.794.794,0,0,0,.711.029" transform="translate(0 600)" fill="#d9effb"/>
        <path id="Path_3901" data-name="Path 3901" d="M266.2-345.838l-.06.033-.309-.211L245.1-357.99a5.722,5.722,0,0,0-5.144-.213l-51.217,29.691c-1.215-.871-1.279-2.055-.061-2.759L239.951-361a5.722,5.722,0,0,1,5.144.213l20.737,11.973c1.523.879,1.688,2.208.369,2.971" transform="translate(0 600)" fill="#5f92d3"/>
        <path id="Path_3902" data-name="Path 3902" d="M197.459-265.108,168.3-281.8a7.115,7.115,0,0,1-2.971-5.677V-297.9c0-2.188,1.329-3.195,2.971-2.247l29.155,16.693a7.118,7.118,0,0,1,2.971,5.676v10.426c0,2.188-1.331,3.193-2.971,2.245" transform="translate(0 600)" fill="#263c7a"/>
        <path id="Path_3903" data-name="Path 3903" d="M166.861-300.462a2.91,2.91,0,0,0-.747,2.169v10.425a7.108,7.108,0,0,0,2.972,5.676L198.24-265.5a2.142,2.142,0,0,0,1.444.315,1.771,1.771,0,0,1-2.225.076L168.3-281.8a7.117,7.117,0,0,1-2.972-5.677V-297.9c0-1.487.621-2.407,1.529-2.56" transform="translate(0 600)" fill="#fff"/>
        <path id="Path_3904" data-name="Path 3904" d="M188.69-276.433l-2.675-1.544a1.547,1.547,0,0,1-.647-1.239v-2.856c0-.477.288-.7.647-.491l2.675,1.545a1.551,1.551,0,0,1,.647,1.237v2.857c0,.476-.289.695-.647.489" transform="translate(0 600)" fill="#4067b1"/>
        <path id="Path_3905" data-name="Path 3905" d="M179.748-281.6l-2.675-1.544a1.545,1.545,0,0,1-.647-1.237v-2.856c0-.477.288-.7.647-.491l2.675,1.545a1.55,1.55,0,0,1,.647,1.236v2.857c0,.476-.289.7-.647.489" transform="translate(0 600)" fill="#fff"/>
        <path id="Path_3906" data-name="Path 3906" d="M197.459-189.766,168.3-206.458a7.115,7.115,0,0,1-2.971-5.677v-10.426c0-2.187,1.329-3.192,2.971-2.245l29.155,16.693a7.116,7.116,0,0,1,2.971,5.676v10.428c0,2.187-1.331,3.192-2.971,2.244" transform="translate(0 600)" fill="#263c7a"/>
        <path id="Path_3907" data-name="Path 3907" d="M166.861-225.12a2.907,2.907,0,0,0-.747,2.168v10.426a7.115,7.115,0,0,0,2.972,5.677l29.154,16.692a2.134,2.134,0,0,0,1.444.315,1.771,1.771,0,0,1-2.225.076L168.3-206.458a7.118,7.118,0,0,1-2.972-5.677v-10.426c0-1.485.621-2.405,1.529-2.559" transform="translate(0 600)" fill="#fff"/>
        <path id="Path_3908" data-name="Path 3908" d="M188.69-201.091l-2.675-1.544a1.549,1.549,0,0,1-.647-1.237v-2.859c0-.476.288-.695.647-.488l2.675,1.544a1.551,1.551,0,0,1,.647,1.237v2.857c0,.476-.289.695-.647.489" transform="translate(0 600)" fill="#ee1696"/>
        <path id="Path_3909" data-name="Path 3909" d="M179.748-206.255l-2.675-1.544a1.549,1.549,0,0,1-.647-1.237v-2.857c0-.476.288-.695.647-.489l2.675,1.544a1.555,1.555,0,0,1,.647,1.237v2.857c0,.476-.289.7-.647.489" transform="translate(0 600)" fill="#fff"/>
        <path id="Path_3910" data-name="Path 3910" d="M197.459-152.095,168.3-168.788a7.11,7.11,0,0,1-2.971-5.675V-184.89c0-2.187,1.329-3.192,2.971-2.245l29.155,16.693a7.114,7.114,0,0,1,2.971,5.676v10.426c0,2.188-1.331,3.193-2.971,2.245" transform="translate(0 600)" fill="#263c7a"/>
        <path id="Path_3911" data-name="Path 3911" d="M166.861-187.45a2.913,2.913,0,0,0-.747,2.169v10.426a7.115,7.115,0,0,0,2.972,5.677l29.154,16.692a2.134,2.134,0,0,0,1.444.315,1.771,1.771,0,0,1-2.225.076L168.3-168.788a7.111,7.111,0,0,1-2.972-5.675V-184.89c0-1.485.621-2.405,1.529-2.56" transform="translate(0 600)" fill="#fff"/>
        <path id="Path_3912" data-name="Path 3912" d="M188.69-163.42l-2.675-1.544a1.551,1.551,0,0,1-.647-1.237v-2.857c0-.477.288-.7.647-.489l2.675,1.543a1.555,1.555,0,0,1,.647,1.239v2.857c0,.476-.289.695-.647.489" transform="translate(0 600)" fill="#4067b1"/>
        <path id="Path_3913" data-name="Path 3913" d="M179.748-168.584l-2.675-1.544a1.549,1.549,0,0,1-.647-1.237v-2.857c0-.476.288-.695.647-.489l2.675,1.544a1.555,1.555,0,0,1,.647,1.237v2.857c0,.477-.289.7-.647.489" transform="translate(0 600)" fill="#fff"/>
        <path id="Path_3914" data-name="Path 3914" d="M197.459-227.437,168.3-244.129a7.115,7.115,0,0,1-2.971-5.677v-10.425c0-2.188,1.329-3.193,2.971-2.247l29.155,16.693a7.116,7.116,0,0,1,2.971,5.676v10.426c0,2.188-1.331,3.193-2.971,2.245" transform="translate(0 600)" fill="#263c7a"/>
        <path id="Path_3915" data-name="Path 3915" d="M166.861-262.791a2.91,2.91,0,0,0-.747,2.169V-250.2a7.108,7.108,0,0,0,2.972,5.676l29.154,16.693a2.142,2.142,0,0,0,1.444.315,1.771,1.771,0,0,1-2.225.076L168.3-244.129a7.118,7.118,0,0,1-2.972-5.677v-10.425c0-1.487.621-2.407,1.529-2.56" transform="translate(0 600)" fill="#fff"/>
        <path id="Path_3916" data-name="Path 3916" d="M188.69-238.762l-2.675-1.544a1.548,1.548,0,0,1-.647-1.239V-244.4c0-.477.288-.7.647-.491l2.675,1.545a1.55,1.55,0,0,1,.647,1.237v2.857c0,.476-.289.695-.647.489" transform="translate(0 600)" fill="#4067b1"/>
        <path id="Path_3917" data-name="Path 3917" d="M179.748-243.926l-2.675-1.544a1.545,1.545,0,0,1-.647-1.237v-2.856c0-.477.288-.7.647-.491l2.675,1.545a1.55,1.55,0,0,1,.647,1.236v2.857c0,.476-.289.7-.647.489" transform="translate(0 600)" fill="#fff"/>
        <path id="Path_3918" data-name="Path 3918" d="M222.71-275.781l67.266-38.835a6.526,6.526,0,0,0,2.725-5.208V-332.65c0-2.008-1.22-2.929-2.725-2.061L222.71-295.877a6.537,6.537,0,0,0-2.725,5.209v12.826c0,2.007,1.221,2.931,2.725,2.06" transform="translate(0 600)" fill="#5f92d3"/>
        <path id="Path_3919" data-name="Path 3919" d="M224.093-280.112c-.491,0-.833-.453-.833-1.212v-9.641a3.312,3.312,0,0,1,1.383-2.644l63.4-36.606a1.114,1.114,0,0,1,.549-.165c.491,0,.835.453.835,1.211v9.644a3.313,3.313,0,0,1-1.384,2.643l-63.4,36.6a1.1,1.1,0,0,1-.549.167" transform="translate(0 600)" fill="#90b9e6"/>
        <path id="Path_3920" data-name="Path 3920" d="M274.832-314.128l9.462-5.464a3.217,3.217,0,0,0,1.343-2.567c0-.988-.6-1.444-1.343-1.015l-9.462,5.463a3.218,3.218,0,0,0-1.344,2.567c0,.988.6,1.443,1.344,1.016" transform="translate(0 600)" fill="#d9effb"/>
        <path id="Path_3921" data-name="Path 3921" d="M266.768-311.264c0,.988.695,1.389,1.552.895a3.426,3.426,0,0,0,1.551-2.687c0-.988-.695-1.389-1.551-.895a3.429,3.429,0,0,0-1.552,2.687m-5.471,3.159c0,.988.693,1.389,1.551.895A3.424,3.424,0,0,0,264.4-309.9c0-.989-.693-1.389-1.551-.895a3.422,3.422,0,0,0-1.551,2.685" transform="translate(0 600)" fill="#263c7a"/>
        <path id="Path_3922" data-name="Path 3922" d="M255.826-304.948c0,.991.7,1.391,1.551.9a3.427,3.427,0,0,0,1.553-2.685c0-.989-.7-1.389-1.553-.895a3.428,3.428,0,0,0-1.551,2.684" transform="translate(0 600)" fill="#d9effb"/>
        <path id="Path_3923" data-name="Path 3923" d="M250.356-301.788c0,.989.693,1.391,1.551.895a3.427,3.427,0,0,0,1.551-2.685c0-.988-.695-1.389-1.551-.9a3.426,3.426,0,0,0-1.551,2.687m-23.047,16.141,3.187-1.84a2.061,2.061,0,0,0,.863-1.647v-3.372c0-.635-.385-.927-.863-.652l-3.187,1.84a2.064,2.064,0,0,0-.863,1.647v3.373c0,.633.387.925.863.651" transform="translate(0 600)" fill="#263c7a"/>
        <path id="Path_3924" data-name="Path 3924" d="M222.71-253.163,289.977-292a6.528,6.528,0,0,0,2.725-5.208v-12.826c0-2.008-1.22-2.929-2.725-2.061L222.71-273.259a6.533,6.533,0,0,0-2.725,5.209v12.825c0,2.008,1.221,2.932,2.725,2.061" transform="translate(0 600)" fill="#5f92d3"/>
        <path id="Path_3925" data-name="Path 3925" d="M224.093-257.494c-.491,0-.833-.453-.833-1.212v-9.642a3.312,3.312,0,0,1,1.383-2.643l63.4-36.606a1.114,1.114,0,0,1,.549-.165c.491,0,.835.453.835,1.211v9.644a3.31,3.31,0,0,1-1.384,2.641l-63.4,36.606a1.1,1.1,0,0,1-.549.167" transform="translate(0 600)" fill="#90b9e6"/>
        <path id="Path_3926" data-name="Path 3926" d="M274.832-291.511l9.462-5.463a3.217,3.217,0,0,0,1.343-2.567c0-.989-.6-1.444-1.343-1.016l-9.462,5.464a3.218,3.218,0,0,0-1.344,2.567c0,.988.6,1.443,1.344,1.015" transform="translate(0 600)" fill="#d9effb"/>
        <path id="Path_3927" data-name="Path 3927" d="M266.768-288.646c0,.988.695,1.389,1.552.895a3.43,3.43,0,0,0,1.551-2.687c0-.988-.695-1.389-1.551-.895a3.425,3.425,0,0,0-1.552,2.687" transform="translate(0 600)" fill="#fff"/>
        <path id="Path_3928" data-name="Path 3928" d="M261.3-285.489c0,.989.693,1.391,1.551.9a3.424,3.424,0,0,0,1.551-2.687c0-.988-.693-1.389-1.551-.895a3.426,3.426,0,0,0-1.551,2.685" transform="translate(0 600)" fill="#263c7a"/>
        <path id="Path_3929" data-name="Path 3929" d="M255.826-282.33c0,.991.7,1.391,1.551.9a3.427,3.427,0,0,0,1.553-2.685c0-.991-.7-1.389-1.553-.9a3.433,3.433,0,0,0-1.551,2.685" transform="translate(0 600)" fill="#d9effb"/>
        <path id="Path_3930" data-name="Path 3930" d="M250.356-279.172c0,.991.693,1.391,1.551.9a3.429,3.429,0,0,0,1.551-2.685c0-.991-.695-1.389-1.551-.9a3.426,3.426,0,0,0-1.551,2.685m-23.047,16.142,3.187-1.84a2.063,2.063,0,0,0,.863-1.647v-3.373c0-.633-.385-.925-.863-.651l-3.187,1.84a2.064,2.064,0,0,0-.863,1.647v3.373c0,.633.387.925.863.651" transform="translate(0 600)" fill="#263c7a"/>
        <path id="Path_3931" data-name="Path 3931" d="M222.71-230.545l67.266-38.835a6.529,6.529,0,0,0,2.725-5.209v-12.825c0-2.008-1.22-2.931-2.725-2.061L222.71-250.64a6.532,6.532,0,0,0-2.725,5.208v12.826c0,2.008,1.221,2.931,2.725,2.061" transform="translate(0 600)" fill="#5f92d3"/>
        <path id="Path_3932" data-name="Path 3932" d="M224.093-234.875c-.491,0-.833-.453-.833-1.212v-9.644a3.309,3.309,0,0,1,1.383-2.641l63.4-36.606a1.107,1.107,0,0,1,.549-.167c.491,0,.835.455.835,1.212v9.644a3.31,3.31,0,0,1-1.384,2.641l-63.4,36.606a1.1,1.1,0,0,1-.549.167" transform="translate(0 600)" fill="#90b9e6"/>
        <path id="Path_3933" data-name="Path 3933" d="M274.832-268.895l9.462-5.461a3.221,3.221,0,0,0,1.343-2.567c0-.989-.6-1.444-1.343-1.016l-9.462,5.464a3.218,3.218,0,0,0-1.344,2.565c0,.989.6,1.444,1.344,1.015" transform="translate(0 600)" fill="#d9effb"/>
        <path id="Path_3934" data-name="Path 3934" d="M266.768-266.029c0,.989.695,1.391,1.552.9a3.43,3.43,0,0,0,1.551-2.687c0-.989-.695-1.389-1.551-.9a3.43,3.43,0,0,0-1.552,2.687" transform="translate(0 600)" fill="#fff"/>
        <path id="Path_3935" data-name="Path 3935" d="M261.3-262.871c0,.989.693,1.391,1.551.9a3.428,3.428,0,0,0,1.551-2.687c0-.989-.693-1.389-1.551-.9a3.428,3.428,0,0,0-1.551,2.687" transform="translate(0 600)" fill="#263c7a"/>
        <path id="Path_3936" data-name="Path 3936" d="M255.826-259.712c0,.989.7,1.391,1.551.9a3.429,3.429,0,0,0,1.553-2.687c0-.989-.7-1.391-1.553-.895a3.433,3.433,0,0,0-1.551,2.685" transform="translate(0 600)" fill="#d9effb"/>
        <path id="Path_3937" data-name="Path 3937" d="M250.356-256.554c0,.991.693,1.389,1.551.9a3.429,3.429,0,0,0,1.551-2.685c0-.991-.695-1.391-1.551-.9a3.426,3.426,0,0,0-1.551,2.685m-23.047,16.142,3.187-1.84a2.063,2.063,0,0,0,.863-1.647v-3.373c0-.633-.385-.927-.863-.651l-3.187,1.84a2.064,2.064,0,0,0-.863,1.647v3.372c0,.635.387.927.863.652" transform="translate(0 600)" fill="#263c7a"/>
        <path id="Path_3938" data-name="Path 3938" d="M222.71-207.927l67.266-38.835a6.529,6.529,0,0,0,2.725-5.209V-264.8c0-2.008-1.22-2.932-2.725-2.061L222.71-228.022a6.532,6.532,0,0,0-2.725,5.208v12.826c0,2.008,1.221,2.929,2.725,2.061" transform="translate(0 600)" fill="#5f92d3"/>
        <path id="Path_3939" data-name="Path 3939" d="M224.093-212.259c-.491,0-.833-.452-.833-1.211v-9.644a3.314,3.314,0,0,1,1.383-2.643l63.4-36.6a1.107,1.107,0,0,1,.549-.167c.491,0,.835.453.835,1.212v9.642a3.313,3.313,0,0,1-1.384,2.643l-63.4,36.606a1.11,1.11,0,0,1-.549.165" transform="translate(0 600)" fill="#90b9e6"/>
        <path id="Path_3940" data-name="Path 3940" d="M274.832-246.277l9.462-5.463a3.217,3.217,0,0,0,1.343-2.565c0-.989-.6-1.444-1.343-1.016l-9.462,5.464a3.214,3.214,0,0,0-1.344,2.565c0,.989.6,1.444,1.344,1.015" transform="translate(0 600)" fill="#d9effb"/>
        <path id="Path_3941" data-name="Path 3941" d="M266.768-243.411c0,.989.695,1.391,1.552.9a3.432,3.432,0,0,0,1.551-2.687c0-.989-.695-1.391-1.551-.9a3.43,3.43,0,0,0-1.552,2.687m-5.471,3.159c0,.989.693,1.389,1.551.9a3.428,3.428,0,0,0,1.551-2.687c0-.989-.693-1.391-1.551-.9a3.428,3.428,0,0,0-1.551,2.687" transform="translate(0 600)" fill="#263c7a"/>
        <path id="Path_3942" data-name="Path 3942" d="M255.826-237.094c0,.989.7,1.389,1.551.9a3.431,3.431,0,0,0,1.553-2.687c0-.989-.7-1.391-1.553-.9a3.433,3.433,0,0,0-1.551,2.687" transform="translate(0 600)" fill="#d9effb"/>
        <path id="Path_3943" data-name="Path 3943" d="M250.356-233.936c0,.988.693,1.389,1.551.9a3.43,3.43,0,0,0,1.551-2.687c0-.989-.695-1.391-1.551-.895a3.424,3.424,0,0,0-1.551,2.685" transform="translate(0 600)" fill="#263c7a"/>
        <path id="Path_3944" data-name="Path 3944" d="M227.309-217.793l3.187-1.841a2.061,2.061,0,0,0,.863-1.647v-3.372c0-.635-.385-.927-.863-.652l-3.187,1.841a2.062,2.062,0,0,0-.863,1.645v3.372c0,.636.387.928.863.653" transform="translate(0 600)" fill="#d9effb"/>
        <path id="Path_3945" data-name="Path 3945" d="M222.71-185.31l67.266-38.835a6.526,6.526,0,0,0,2.725-5.208v-12.826c0-2.007-1.22-2.931-2.725-2.06L222.71-205.4a6.528,6.528,0,0,0-2.725,5.208v12.826c0,2.007,1.221,2.929,2.725,2.06" transform="translate(0 600)" fill="#5f92d3"/>
        <path id="Path_3946" data-name="Path 3946" d="M224.094-189.641c-.492,0-.835-.453-.835-1.212v-9.642a3.314,3.314,0,0,1,1.383-2.643l63.4-36.6a1.107,1.107,0,0,1,.549-.167c.491,0,.835.453.835,1.212v9.641a3.313,3.313,0,0,1-1.384,2.644l-63.4,36.606a1.11,1.11,0,0,1-.548.165" transform="translate(0 600)" fill="#90b9e6"/>
        <path id="Path_3947" data-name="Path 3947" d="M274.832-223.658l9.462-5.463a3.219,3.219,0,0,0,1.343-2.567c0-.988-.6-1.443-1.343-1.015l-9.462,5.463a3.218,3.218,0,0,0-1.344,2.565c0,.991.6,1.444,1.344,1.016" transform="translate(0 600)" fill="#d9effb"/>
        <path id="Path_3948" data-name="Path 3948" d="M266.768-220.793c0,.989.695,1.389,1.552.9a3.434,3.434,0,0,0,1.551-2.687c0-.989-.695-1.391-1.551-.9a3.425,3.425,0,0,0-1.552,2.687" transform="translate(0 600)" fill="#263c7a"/>
        <path id="Path_3949" data-name="Path 3949" d="M261.3-217.635c0,.988.693,1.389,1.551.9a3.428,3.428,0,0,0,1.551-2.687c0-.989-.693-1.391-1.551-.9a3.426,3.426,0,0,0-1.551,2.687" transform="translate(0 600)" fill="#fff"/>
        <path id="Path_3950" data-name="Path 3950" d="M255.826-214.476c0,.988.7,1.389,1.551.895a3.427,3.427,0,0,0,1.553-2.685c0-.989-.7-1.391-1.553-.9a3.433,3.433,0,0,0-1.551,2.687" transform="translate(0 600)" fill="#d9effb"/>
        <path id="Path_3951" data-name="Path 3951" d="M250.356-211.317c0,.988.693,1.389,1.551.895a3.428,3.428,0,0,0,1.551-2.687c0-.988-.695-1.389-1.551-.895a3.428,3.428,0,0,0-1.551,2.687" transform="translate(0 600)" fill="#fff"/>
        <path id="Path_3952" data-name="Path 3952" d="M227.309-195.176l3.187-1.84a2.061,2.061,0,0,0,.863-1.648v-3.371c0-.636-.385-.927-.863-.652l-3.187,1.84a2.066,2.066,0,0,0-.863,1.647v3.372c0,.636.387.928.863.652" transform="translate(0 600)" fill="#d9effb"/>
        <path id="Path_3953" data-name="Path 3953" d="M222.71-162.692l67.266-38.835a6.528,6.528,0,0,0,2.725-5.208v-12.828c0-2.005-1.22-2.929-2.725-2.06L222.71-182.786a6.528,6.528,0,0,0-2.725,5.208v12.826c0,2.007,1.221,2.929,2.725,2.06" transform="translate(0 600)" fill="#5f92d3"/>
        <path id="Path_3954" data-name="Path 3954" d="M224.093-167.024c-.491,0-.833-.452-.833-1.212v-9.641a3.312,3.312,0,0,1,1.383-2.643l63.4-36.6a1.107,1.107,0,0,1,.549-.167c.491,0,.835.453.835,1.212v9.641a3.315,3.315,0,0,1-1.384,2.644l-63.4,36.6a1.118,1.118,0,0,1-.549.165" transform="translate(0 600)" fill="#90b9e6"/>
        <path id="Path_3955" data-name="Path 3955" d="M274.832-201.04l9.462-5.464a3.215,3.215,0,0,0,1.343-2.565c0-.989-.6-1.443-1.343-1.015l-9.462,5.463a3.216,3.216,0,0,0-1.344,2.565c0,.991.6,1.444,1.344,1.016" transform="translate(0 600)" fill="#d9effb"/>
        <path id="Path_3956" data-name="Path 3956" d="M266.768-198.175c0,.988.695,1.388,1.552.893a3.425,3.425,0,0,0,1.551-2.684c0-.989-.695-1.391-1.551-.9a3.425,3.425,0,0,0-1.552,2.687m-5.471,3.159c0,.988.693,1.389,1.551.895a3.426,3.426,0,0,0,1.551-2.687c0-.988-.693-1.389-1.551-.895a3.424,3.424,0,0,0-1.551,2.687" transform="translate(0 600)" fill="#263c7a"/>
        <path id="Path_3957" data-name="Path 3957" d="M255.826-191.858c0,.988.7,1.389,1.551.895a3.429,3.429,0,0,0,1.553-2.687c0-.988-.7-1.389-1.553-.895a3.431,3.431,0,0,0-1.551,2.687" transform="translate(0 600)" fill="#d9effb"/>
        <path id="Path_3958" data-name="Path 3958" d="M250.356-188.7c0,.988.693,1.389,1.551.895a3.43,3.43,0,0,0,1.551-2.687c0-.988-.695-1.389-1.551-.895a3.424,3.424,0,0,0-1.551,2.687m-23.047,16.14L230.5-174.4a2.063,2.063,0,0,0,.863-1.648v-3.372c0-.635-.385-.925-.863-.651l-3.187,1.839a2.069,2.069,0,0,0-.863,1.648v3.372c0,.635.387.925.863.651" transform="translate(0 600)" fill="#263c7a"/>
        <path id="Path_3959" data-name="Path 3959" d="M222.71-140.074l67.266-38.835a6.531,6.531,0,0,0,2.725-5.209v-12.826c0-2.008-1.22-2.929-2.725-2.061L222.71-160.171a6.537,6.537,0,0,0-2.725,5.211v12.825c0,2.008,1.221,2.931,2.725,2.061" transform="translate(0 600)" fill="#5f92d3"/>
        <path id="Path_3960" data-name="Path 3960" d="M224.093-144.406c-.491,0-.833-.453-.833-1.212v-9.641a3.31,3.31,0,0,1,1.383-2.643l63.4-36.607a1.11,1.11,0,0,1,.549-.165c.491,0,.835.453.835,1.212v9.642a3.313,3.313,0,0,1-1.384,2.643l-63.4,36.606a1.114,1.114,0,0,1-.549.165" transform="translate(0 600)" fill="#90b9e6"/>
        <path id="Path_3961" data-name="Path 3961" d="M274.832-178.422l9.462-5.464a3.215,3.215,0,0,0,1.343-2.567c0-.988-.6-1.444-1.343-1.015L274.832-182a3.22,3.22,0,0,0-1.344,2.567c0,.988.6,1.443,1.344,1.016" transform="translate(0 600)" fill="#d9effb"/>
        <path id="Path_3962" data-name="Path 3962" d="M265.04-174.334c0,1.869,1.311,2.625,2.929,1.692a6.477,6.477,0,0,0,2.929-5.075c0-1.868-1.312-2.625-2.929-1.691a6.473,6.473,0,0,0-2.929,5.073" transform="translate(0 600)" fill="#fff"/>
        <path id="Path_3963" data-name="Path 3963" d="M253.708-167.7c0,.989.693,1.391,1.551.9a3.43,3.43,0,0,0,1.551-2.687c0-.988-.695-1.389-1.551-.9a3.428,3.428,0,0,0-1.551,2.687" transform="translate(0 600)" fill="#263c7a"/>
        <path id="Path_3964" data-name="Path 3964" d="M248.236-164.545c0,.989.695,1.391,1.551.9a3.424,3.424,0,0,0,1.551-2.687c0-.989-.693-1.389-1.551-.9a3.434,3.434,0,0,0-1.551,2.687" transform="translate(0 600)" fill="#d9effb"/>
        <path id="Path_3965" data-name="Path 3965" d="M242.765-161.387c0,.989.7,1.391,1.552.9a3.431,3.431,0,0,0,1.552-2.685c0-.991-.7-1.389-1.552-.9a3.431,3.431,0,0,0-1.552,2.685" transform="translate(0 600)" fill="#263c7a"/>
        <path id="Path_3966" data-name="Path 3966" d="M227.309-149.942l3.187-1.84a2.059,2.059,0,0,0,.863-1.647V-156.8c0-.635-.385-.927-.863-.652l-3.187,1.84a2.065,2.065,0,0,0-.863,1.648v3.372c0,.635.387.925.863.651" transform="translate(0 600)" fill="#d9effb"/>
        <path id="Path_3967" data-name="Path 3967" d="M488.306-369.78l-23.918-13.809L488.306-397.4l23.917,13.808L488.306-369.78" transform="translate(-17.252 612)" fill="#899abf"/>
        <path id="Path_3968" data-name="Path 3968" d="M512.223-401.121l-23.917,13.809v-27.617l23.917-13.809v27.617" transform="translate(-17.252 612)" fill="#263c7a"/>
        <path id="Path_3969" data-name="Path 3969" d="M488.306-414.928l-23.918-13.809,23.918-13.809,23.917,13.81-23.917,13.808" transform="translate(-17.252 612)" fill="#d9effb"/>
        <path id="Path_3970" data-name="Path 3970" d="M488.306-387.312l-23.918-13.809v-27.617l23.918,13.809v27.617" transform="translate(-17.252 612)" fill="#5f92d3"/>
        <path id="Path_3971" data-name="Path 3971" d="M479.693-402.231,473-406.094v-7.724l6.69,3.863v7.724" transform="translate(-17.252 612)" fill="#fff"/>
      </g>
    </g>
  </g>
</svg>
